<?xml version="1.0" encoding="utf-8"?>
<!-- Generator: Adobe Illustrator 23.1.1, SVG Export Plug-In . SVG Version: 6.00 Build 0)  -->
<svg version="1.1" id="Layer_1" xmlns="http://www.w3.org/2000/svg" xmlns:xlink="http://www.w3.org/1999/xlink" x="0px" y="0px"
	 viewBox="0 0 1920 135.7" style="enable-background:new 0 0 1920 135.7;" xml:space="preserve">
<style type="text/css">
	.st0{fill:url(#SVGID_1_);}
	.st1{fill:none;stroke:#FFFFFF;stroke-width:4.1927;stroke-miterlimit:10;}
	.st2{fill:#FFFFFF;}
	.st3{fill:url(#SVGID_2_);}
	.st4{fill:none;stroke:url(#SVGID_3_);stroke-width:4.1927;stroke-miterlimit:10;}
	.st5{fill:none;stroke:url(#SVGID_4_);stroke-width:4.1927;stroke-miterlimit:10;}
	.st6{fill:none;stroke:url(#SVGID_5_);stroke-width:4.1927;stroke-miterlimit:10;}
	.st7{fill:none;stroke:url(#SVGID_6_);stroke-width:4.1927;stroke-miterlimit:10;}
</style>
<title>bg-curve1</title>
<linearGradient id="SVGID_1_" gradientUnits="userSpaceOnUse" x1="400.735" y1="775.1155" x2="1518.265" y2="-231.1155" gradientTransform="matrix(1 0 0 1 0.5 -214.5)">
	<stop  offset="0" style="stop-color:#F83600"/>
	<stop  offset="1" style="stop-color:#FE8C00"/>
</linearGradient>
<path class="st0" d="M0,0h1920v115c-144.7-38.8-293-62.4-442.5-70.5c-77.6-4.2-135.6-3.1-184.5,0.6
	c-121.7,9.1-159.8,24.7-235.3,28.3c-126,6-147.6-35.1-284.7-55c-134.4-19.5-176.2,11-596.7,72.3C101.1,101.7,39.5,109.9,0,115V0z"/>
<g>
	<path class="st1" d="M144.1,94l0.4-32.6c0-3.4,3-6.1,6.5-6.1l34.5,0.4c3.6,0,6.4,2.8,6.4,6.2l-0.4,32.6c0,3.4-3,6.1-6.5,6
		l-34.5-0.4C146.9,100.1,144,97.4,144.1,94z"/>
	<g>
		<path class="st2" d="M171.4,57.5c-3.2-0.3-6.8-0.6-10.1,0l10.1,0.1C171.5,57.6,171.4,57.5,171.4,57.5z"/>
		<linearGradient id="SVGID_2_" gradientUnits="userSpaceOnUse" x1="142.0249" y1="95.7004" x2="193.6409" y2="95.7004">
			<stop  offset="0" style="stop-color:#F83600"/>
			<stop  offset="1" style="stop-color:#FE8C00"/>
		</linearGradient>
		<path class="st3" d="M189.4,89.3l-0.1,5.2c0,2.2-2,4-4.4,4c0,0,0,0-0.1,0l-34.5-0.4c-1.2,0-2.4-0.5-3.2-1.3
			c-0.7-0.8-1.1-1.7-1.1-2.7l0-0.4c-1.4,0.4-2.8,0.8-4.2,1.1c0.2,1.8,1,3.5,2.3,4.9c1.6,1.6,3.8,2.6,6.1,2.6l34.5,0.4h0.1
			c4.7,0,8.5-3.6,8.6-8.1l0.1-5.8C192.2,88.9,190.8,89.1,189.4,89.3z"/>
	</g>
	<linearGradient id="SVGID_3_" gradientUnits="userSpaceOnUse" x1="627.3218" y1="124.3205" x2="666.2989" y2="89.2253">
		<stop  offset="0" style="stop-color:#F83600"/>
		<stop  offset="1" style="stop-color:#FE8C00"/>
	</linearGradient>
	<path class="st4" d="M638.3,133.3l-20.7-26.1c-2.1-2.7-1.6-6.5,1.3-8.6L646.3,79c2.9-2,6.9-1.5,9.1,1.2l20.7,26.1
		c2.1,2.7,1.6,6.5-1.3,8.6l-27.5,19.6C644.5,136.6,640.4,136,638.3,133.3z"/>
	<linearGradient id="SVGID_4_" gradientUnits="userSpaceOnUse" x1="801.1429" y1="75.1923" x2="831.7849" y2="47.602">
		<stop  offset="0" style="stop-color:#F83600"/>
		<stop  offset="1" style="stop-color:#FE8C00"/>
	</linearGradient>
	<path class="st5" d="M821.2,77.7l-17.4-4.4c-3.4-0.9-5.5-4.2-4.6-7.5l4.6-16.4c0.9-3.3,4.5-5.2,7.9-4.3l17.4,4.4
		c3.4,0.9,5.5,4.2,4.6,7.5l-4.6,16.4C828.2,76.6,824.6,78.6,821.2,77.7z"/>
	<linearGradient id="SVGID_5_" gradientUnits="userSpaceOnUse" x1="378.9803" y1="102.0062" x2="406.164" y2="77.5298">
		<stop  offset="0" style="stop-color:#F83600"/>
		<stop  offset="1" style="stop-color:#FE8C00"/>
	</linearGradient>
	<path class="st6" d="M389,106.3L375.6,95c-2.7-2.3-2.9-6.1-0.5-8.6l12-12.7c2.4-2.5,6.5-2.7,9.1-0.5l13.4,11.3
		c2.7,2.3,2.9,6.1,0.5,8.6l-12,12.7C395.7,108.4,391.6,108.6,389,106.3z"/>
	<path class="st1" d="M265.4,56.7L254,56.1c-3.6-0.2-6.3-3.1-6.1-6.4l0.6-10.9c0.2-3.4,3.2-6,6.8-5.8l11.5,0.6
		c3.6,0.2,6.3,3.1,6.1,6.4l-0.6,10.9C272,54.3,269,56.9,265.4,56.7z"/>
	<linearGradient id="SVGID_6_" gradientUnits="userSpaceOnUse" x1="741.4791" y1="88.866" x2="765.7809" y2="66.9844">
		<stop  offset="0" style="stop-color:#F83600"/>
		<stop  offset="1" style="stop-color:#FE8C00"/>
	</linearGradient>
	<path class="st7" d="M758.7,89.8l-11.5-0.6c-3.6-0.2-6.3-3.1-6.1-6.4l0.6-10.9c0.2-3.4,3.2-6,6.8-5.8l11.5,0.6
		c3.6,0.2,6.3,3.1,6.1,6.4L765.5,84C765.3,87.3,762.3,89.9,758.7,89.8z"/>
	<path class="st1" d="M918.4,101.6l-11.5-0.6c-3.6-0.2-6.3-3.1-6.1-6.4l0.6-10.9c0.2-3.4,3.2-6,6.8-5.8l11.5,0.6
		c3.6,0.2,6.3,3.1,6.1,6.4l-0.6,10.9C925,99.2,922,101.8,918.4,101.6z"/>
</g>
</svg>
