<?xml version="1.0" encoding="utf-8"?>
<!-- Generator: Adobe Illustrator 23.1.1, SVG Export Plug-In . SVG Version: 6.00 Build 0)  -->
<svg version="1.1" id="Layer_1" xmlns="http://www.w3.org/2000/svg" xmlns:xlink="http://www.w3.org/1999/xlink" x="0px" y="0px"
	 viewBox="0 0 88.2 24.4" style="enable-background:new 0 0 88.2 24.4;" xml:space="preserve">
<title>bg-curve1</title>
<g>
	<path d="M6,20.7c-1.4-0.8-2.5-2-3.3-3.5c-0.8-1.5-1.2-3.3-1.2-5.3c0-2,0.4-3.8,1.2-5.3C3.5,5.1,4.6,3.9,6,3.1
		c1.4-0.8,3.1-1.2,5-1.2c1.3,0,2.6,0.2,3.7,0.6c1.2,0.4,2.1,1,2.9,1.7l-1.2,2.6c-0.9-0.7-1.8-1.2-2.6-1.5c-0.9-0.3-1.8-0.5-2.8-0.5
		c-1.9,0-3.3,0.6-4.4,1.8s-1.5,3-1.5,5.3c0,2.3,0.5,4.1,1.5,5.3c1,1.2,2.5,1.8,4.4,1.8c1,0,1.9-0.2,2.8-0.5c0.9-0.3,1.7-0.8,2.6-1.5
		l1.2,2.6c-0.8,0.7-1.8,1.3-2.9,1.7c-1.2,0.4-2.4,0.6-3.7,0.6C9.2,21.9,7.5,21.5,6,20.7z"/>
	<path d="M32.9,8.1v13.6h-3.4v-2.1c-0.4,0.7-1,1.3-1.7,1.7c-0.7,0.4-1.5,0.6-2.4,0.6c-3.3,0-5-1.9-5-5.6V8.1h3.5v8.2
		c0,1,0.2,1.7,0.6,2.1c0.4,0.5,1,0.7,1.8,0.7c1,0,1.7-0.3,2.3-1c0.6-0.6,0.9-1.5,0.9-2.5V8.1H32.9z"/>
	<path d="M38.2,21.4c-1-0.3-1.9-0.7-2.6-1.3l1-2.4c1.4,1.1,3.1,1.6,5,1.6c0.8,0,1.4-0.1,1.8-0.4c0.4-0.3,0.6-0.6,0.6-1.1
		c0-0.4-0.1-0.7-0.4-0.9c-0.3-0.2-0.8-0.4-1.5-0.6l-2.2-0.5c-1.3-0.3-2.2-0.7-2.8-1.4c-0.6-0.6-0.9-1.4-0.9-2.4
		c0-0.8,0.2-1.6,0.7-2.2c0.5-0.6,1.1-1.1,2-1.5c0.8-0.4,1.8-0.5,2.9-0.5c1,0,1.9,0.1,2.8,0.4c0.9,0.3,1.7,0.7,2.4,1.2l-1,2.4
		c-1.4-1-2.8-1.5-4.2-1.5c-0.8,0-1.4,0.1-1.8,0.4c-0.4,0.3-0.6,0.7-0.6,1.2c0,0.4,0.1,0.7,0.4,0.9c0.3,0.2,0.7,0.4,1.3,0.6l2.3,0.5
		c1.3,0.3,2.3,0.8,3,1.4c0.6,0.6,0.9,1.5,0.9,2.5c0,1.3-0.5,2.3-1.5,3c-1,0.7-2.4,1.1-4.1,1.1C40.3,21.9,39.2,21.7,38.2,21.4z"/>
	<path d="M58,19.2l-0.2,2.6c-0.6,0.1-1.1,0.1-1.5,0.1c-1.9,0-3.3-0.4-4.2-1.3c-0.9-0.9-1.4-2.2-1.4-3.9v-5.9h-2.6V8.1h2.6V4.1h3.5
		v4.1h3.6v2.6h-3.6v5.9c0,1.8,0.8,2.7,2.5,2.7C57.1,19.3,57.6,19.3,58,19.2z"/>
	<path d="M62.6,21c-1-0.6-1.9-1.4-2.4-2.5c-0.6-1.1-0.9-2.3-0.9-3.7c0-1.4,0.3-2.7,0.9-3.7c0.6-1.1,1.4-1.9,2.4-2.5
		c1-0.6,2.3-0.9,3.6-0.9c1.4,0,2.6,0.3,3.6,0.9c1,0.6,1.8,1.4,2.4,2.5c0.6,1.1,0.8,2.3,0.8,3.7c0,1.4-0.3,2.7-0.8,3.7
		c-0.6,1.1-1.4,1.9-2.4,2.5c-1,0.6-2.3,0.9-3.6,0.9C64.8,21.9,63.6,21.6,62.6,21z M68.8,18.1c0.6-0.7,0.9-1.8,0.9-3.3
		c0-1.4-0.3-2.5-0.9-3.3c-0.6-0.7-1.4-1.1-2.6-1.1c-1.1,0-2,0.4-2.6,1.1c-0.6,0.7-0.9,1.8-0.9,3.3c0,1.4,0.3,2.5,0.9,3.3
		c0.6,0.7,1.4,1.1,2.6,1.1C67.3,19.2,68.2,18.8,68.8,18.1z"/>
	<path d="M77.7,21.4c-1-0.3-1.9-0.7-2.6-1.3l1-2.4c1.4,1.1,3.1,1.6,5,1.6c0.8,0,1.4-0.1,1.8-0.4c0.4-0.3,0.6-0.6,0.6-1.1
		c0-0.4-0.1-0.7-0.4-0.9c-0.3-0.2-0.8-0.4-1.5-0.6l-2.2-0.5c-1.3-0.3-2.2-0.7-2.8-1.4c-0.6-0.6-0.9-1.4-0.9-2.4
		c0-0.8,0.2-1.6,0.7-2.2c0.5-0.6,1.1-1.1,2-1.5c0.8-0.4,1.8-0.5,2.9-0.5c1,0,1.9,0.1,2.8,0.4c0.9,0.3,1.7,0.7,2.4,1.2l-1,2.4
		c-1.4-1-2.8-1.5-4.2-1.5c-0.8,0-1.4,0.1-1.8,0.4c-0.4,0.3-0.6,0.7-0.6,1.2c0,0.4,0.1,0.7,0.4,0.9c0.3,0.2,0.7,0.4,1.3,0.6l2.3,0.5
		c1.3,0.3,2.3,0.8,3,1.4c0.6,0.6,0.9,1.5,0.9,2.5c0,1.3-0.5,2.3-1.5,3c-1,0.7-2.4,1.1-4.1,1.1C79.8,21.9,78.7,21.7,77.7,21.4z"/>
</g>
</svg>
