<?xml version="1.0" encoding="iso-8859-1"?>
<!-- Generator: Adobe Illustrator 19.0.0, SVG Export Plug-In . SVG Version: 6.00 Build 0)  -->
<svg version="1.1" id="Capa_1" xmlns="http://www.w3.org/2000/svg" xmlns:xlink="http://www.w3.org/1999/xlink" x="0px" y="0px"
	 viewBox="0 0 512 512" style="enable-background:new 0 0 512 512;" xml:space="preserve">
<path style="fill:#4398D1;" d="M51.214,93.875v90.447c0,137.267,80.003,261.939,204.786,319.125l0,0
	c124.783-57.187,204.786-181.859,204.786-319.125V93.875l0,0c-66.155-0.017-130.218-23.209-181.065-65.532L256,8.548l-23.721,19.796
	C181.432,70.666,117.368,93.858,51.214,93.875z"/>
<path style="fill:#3E8CC7;" d="M356.089,73.738c-29.95,183.454-116.131,295.404-198.131,362.387
	c28.602,27.868,61.76,50.633,98.041,67.324c124.783-57.187,204.786-181.859,204.786-319.125V93.875
	C424.932,93.85,389.401,87.015,356.089,73.738z"/>
<path style="fill:#E5E5E5;" d="M290.131,247.465v-51.197c0-18.849-15.282-34.131-34.131-34.131l0,0
	c-18.849,0-34.131,15.282-34.131,34.131v51.197h-34.131v-51.197c0-37.698,30.564-68.262,68.262-68.262l0,0
	c37.698,0,68.262,30.564,68.262,68.262v51.197H290.131z"/>
<g>
	<path style="fill:#D6D6D6;" d="M187.738,247.465h34.131V207.19c-11.101,5.512-22.492,10.419-34.131,14.676V247.465z"/>
	<path style="fill:#D6D6D6;" d="M302.845,146.693c-7.56,8.584-15.743,16.605-24.489,23.977c7.432,6.442,11.724,15.769,11.775,25.598
		v51.197h34.131v-51.197C324.245,177.496,316.497,159.569,302.845,146.693z"/>
</g>
<rect id="SVGCleanerId_0" x="162.123" y="230.383" style="fill:#FDB62F;" width="187.721" height="153.59"/>
<g>
	<rect id="SVGCleanerId_0_1_" x="162.123" y="230.383" style="fill:#FDB62F;" width="187.721" height="153.59"/>
</g>
<path style="fill:#FFA230;" d="M349.86,383.989H162.14C215.384,349.858,296.616,349.858,349.86,383.989z"/>
<g>
	<rect x="247.45" y="307.177" style="fill:#126099;" width="17.066" height="42.664"/>
	<circle style="fill:#126099;" cx="255.983" cy="298.645" r="17.066"/>
</g>
<g>
	<path style="fill:#FDC353;" d="M162.14,230.4H349.86C296.616,264.531,215.384,264.531,162.14,230.4z"/>
	<path style="fill:#FDC353;" d="M119.476,204.801c0-23.559,19.105-42.664,42.664-42.664c-23.559,0-42.664-19.105-42.664-42.664"/>
	<path style="fill:#FDC353;" d="M119.476,119.474c0,23.559-19.105,42.664-42.664,42.664c23.559,0,42.664,19.105,42.664,42.664"/>
</g>
<path d="M162.14,153.605c-18.849,0-34.131-15.282-34.131-34.131h-17.066c0,18.849-15.282,34.131-34.131,34.131v17.066
	c18.849,0,34.131,15.282,34.131,34.131h17.066c0-18.849,15.282-34.131,34.131-34.131V153.605z M119.476,176.643
	c-3.797-5.743-8.695-10.674-14.42-14.506c5.725-3.831,10.623-8.763,14.42-14.506c3.797,5.743,8.695,10.674,14.42,14.506
	C128.171,165.969,123.273,170.892,119.476,176.643z"/>
<path d="M250.539,1.977l-23.721,19.796C177.482,62.782,115.372,85.274,51.214,85.343c-4.71,0-8.533,3.823-8.533,8.533v90.447
	c0.247,140.526,82.102,268.099,209.735,326.89c2.27,1.05,4.898,1.05,7.168,0c127.633-58.791,209.488-186.364,209.735-326.89V93.875
	c0-4.71-3.823-8.533-8.533-8.533c-64.158-0.068-126.268-22.561-175.604-63.569L261.461,1.977
	C258.295-0.659,253.705-0.659,250.539,1.977z M452.254,102.408v81.915C452.015,316.768,375.655,437.285,256,494.062
	C136.345,437.285,59.985,316.768,59.746,184.323v-81.915c65.19-1.98,127.846-25.709,177.993-67.409L256,19.64l18.26,15.274
	C324.399,76.639,387.055,100.403,452.254,102.408z"/>
<path d="M179.205,196.269v25.598H162.14c-4.71,0-8.533,3.823-8.533,8.533v153.59c0,4.71,3.823,8.533,8.533,8.533H349.86
	c4.71,0,8.533-3.823,8.533-8.533V230.4c0-4.71-3.823-8.533-8.533-8.533h-17.066v-25.598c0-42.416-34.379-76.795-76.795-76.795
	S179.205,153.852,179.205,196.269z M341.328,238.932v136.524H170.672V238.932L341.328,238.932L341.328,238.932z M281.598,221.867
	h-51.197v-25.598c0-14.139,11.46-25.598,25.598-25.598c14.139,0,25.598,11.46,25.598,25.598V221.867z M315.729,196.269v25.598
	h-17.066v-25.598c0-23.559-19.105-42.664-42.664-42.664c-23.559,0-42.664,19.105-42.664,42.664v25.598h-17.066v-25.598
	c0-32.988,26.742-59.729,59.729-59.729S315.729,163.281,315.729,196.269z"/>
<path d="M247.467,322.724v27.134h17.066v-27.134c13.328-4.71,20.316-19.335,15.598-32.663c-4.71-13.328-19.335-20.317-32.663-15.598
	c-13.328,4.71-20.317,19.335-15.598,32.663C234.446,314.413,240.18,320.147,247.467,322.724z M256,290.129
	c4.71,0,8.533,3.823,8.533,8.533c0,4.71-3.823,8.533-8.533,8.533s-8.533-3.823-8.533-8.533
	C247.467,293.952,251.29,290.129,256,290.129z"/>
<g>
</g>
<g>
</g>
<g>
</g>
<g>
</g>
<g>
</g>
<g>
</g>
<g>
</g>
<g>
</g>
<g>
</g>
<g>
</g>
<g>
</g>
<g>
</g>
<g>
</g>
<g>
</g>
<g>
</g>
</svg>
