<svg xmlns="http://www.w3.org/2000/svg" xmlns:xlink="http://www.w3.org/1999/xlink" viewBox="0 0 373 364"><defs><style>.cls-1{isolation:isolate;}.cls-16,.cls-2,.cls-4,.cls-6{mix-blend-mode:multiply;}.cls-2{fill:url(#_ÂÁ_Ï_ÌÌ_È_ËÂÌÚ_170);}.cls-3{fill:#1f2121;opacity:0.78;mix-blend-mode:hard-light;}.cls-4{fill:url(#_ÂÁ_Ï_ÌÌ_È_ËÂÌÚ_170-2);}.cls-5{fill:#90bf1d;}.cls-6{fill:#839e13;opacity:0.3;}.cls-7{fill:#f2f1eb;}.cls-8{fill:#e58d2e;}.cls-9{fill:#24547c;}.cls-10{fill:#fbbd9e;}.cls-11{fill:#3a312b;}.cls-12{fill:#fcbe9f;}.cls-13{fill:#f3a984;}.cls-14{fill:#724a2f;}.cls-15{fill:#d2ceca;}.cls-16,.cls-17{fill:#bcb9b5;}.cls-16{opacity:0.1;}.cls-18{fill:#3d3838;}.cls-19{fill:#999693;}.cls-20{fill:#3294ad;}.cls-21{fill:#f5a800;}.cls-22{fill:#ffc844;}.cls-23{fill:#ffb71b;}.cls-24{fill:#a27300;}.cls-25{fill:#6e561c;}.cls-26{fill:#1d5766;}.cls-27{fill:#7b8aff;}.cls-28{fill:#3579fe;}.cls-29,.cls-35,.cls-36,.cls-39{fill:none;stroke-linecap:round;stroke-miterlimit:10;}.cls-29{stroke:#fff;stroke-width:1.3px;}.cls-30{fill:#fac34a;}.cls-31{fill:#f7f7f7;}.cls-32{fill:#fff;}.cls-33{fill:#6196fe;}.cls-34{fill:#23329a;}.cls-35,.cls-36{stroke:#466cb8;}.cls-35{stroke-width:0.81px;}.cls-36{stroke-width:0.4px;}.cls-37{fill:#ef602e;}.cls-38{fill:#f98321;}.cls-39{stroke:#1a286b;stroke-width:0.58px;}</style><linearGradient id="_ÂÁ_Ï_ÌÌ_È_ËÂÌÚ_170" x1="32" y1="144.61" x2="283.5" y2="144.61" gradientTransform="translate(180.09 -94.81) rotate(45)" gradientUnits="userSpaceOnUse"><stop offset="0" stop-color="#d8d3d4"/><stop offset="1" stop-color="#d0cacc"/></linearGradient><linearGradient id="_ÂÁ_Ï_ÌÌ_È_ËÂÌÚ_170-2" x1="14.28" y1="288.36" x2="232.02" y2="288.36" gradientTransform="matrix(1, 0, 0, 1, 0, 0)" xlink:href="#_ÂÁ_Ï_ÌÌ_È_ËÂÌÚ_170"/></defs><title>webuser</title><g class="cls-1"><g id="Layer_1" data-name="Layer 1"><path class="cls-2" d="M239.78,226l.28-.08a131.29,131.29,0,0,0,26-10.24,78.31,78.31,0,0,0,10.41-6.55,44,44,0,0,0,7-6.59c6.55-7.71,7.75-16,8.9-24.12.15-1.06.3-2.11.46-3.16.27-1.73.56-3.31.89-4.84a39.69,39.69,0,0,1,4.59-11.69,68.08,68.08,0,0,1,11-12.79c5.51-5.17,11.8-10.12,17.89-14.9l1.21-1c5.67-4.46,12.73-10,18.4-15.78a49.34,49.34,0,0,0,10.65-15.17,26.64,26.64,0,0,0,1.92-7.54,22.25,22.25,0,0,0-.61-7.46c-1.19-4.88-4.23-9.63-9.28-14.53a75.44,75.44,0,0,0-17.64-12.25,142.63,142.63,0,0,0-22.39-9.14,229.51,229.51,0,0,0-24.6-6.37c-8.7-1.8-17.91-3.28-28.15-4.54-9.83-1.21-20-2.06-30.2-2.54-4.88-.23-9.91-.36-15-.39a150,150,0,0,0-15.18.67,114.67,114.67,0,0,0-19.94,3.72c-2.22.62-4.42,1.32-6.54,2.06a108.59,108.59,0,0,0-13.57,5.87,122.69,122.69,0,0,0-13,7.86c-3.86,2.64-7.69,5.56-12.05,9.19l-1.63,1.38-1.23,1c-.94.79-2,1.62-3.31,2.6-1.86,1.39-3.93,2.78-6.33,4.25a132.93,132.93,0,0,1-13.25,6.9c-2.08.94-4.4,2-7.3,3.16-3.19,1.33-5.65,2.33-8,3.22s-4.6,1.59-7.15,2.3c-.94.27-1.92.53-2.91.78-3.51.89-7,1.59-10.25,2.21l-4.43.82c-6.31,1.16-12.83,2.36-19,4.1-2,.57-3.88,1.15-5.68,1.79a69,69,0,0,0-10.29,4.58,51.39,51.39,0,0,0-8.15,5.55,35.8,35.8,0,0,0-10.09,13.22,30.12,30.12,0,0,0-2,7.28,28,28,0,0,0-.15,7.35,34.7,34.7,0,0,0,1.07,5.52,60.11,60.11,0,0,0,1.92,6A35.62,35.62,0,0,0,19,157.94,37.12,37.12,0,0,0,29,166,61,61,0,0,0,36,169.42c1.65.69,3.38,1.33,5.06,2,1,.38,2,.76,3,1.15a169.45,169.45,0,0,1,18.56,8.53,142.26,142.26,0,0,1,16.36,10.37c1.16.86,2.19,1.64,3.14,2.38l.6.45.65.58c1.39,1.2,2.82,2.45,4.26,3.65,5,4.19,9.88,7.88,14.88,11.29a131.86,131.86,0,0,0,34.87,17.08,138.12,138.12,0,0,0,21.32,4.85,169.35,169.35,0,0,0,24.62,1.75,220.56,220.56,0,0,0,28.05-1.77A195.78,195.78,0,0,0,239.78,226"/><path class="cls-3" d="M129.64,242.48c3.61.16,7.27.2,10.9.12a154.57,154.57,0,0,0,20.75-2c6.62-1,13-2.44,20.53-4.2l5.71-1.35c4.59-1.1,9.35-2.23,14.08-3.24,3.41-.74,6.81-1.4,10.1-2,3.86-.66,7.69-1.14,11.4-1.42,9.63-.64,19.56-.19,29.16.25l2,.09c5,.23,10.38.44,15.79.44a145.18,145.18,0,0,0,15.64-.82,126.65,126.65,0,0,0,13-2.23c3.6-.78,7.27-1.74,10.92-2.86a79,79,0,0,0,18.78-8.41,53.09,53.09,0,0,0,14.28-13,49.49,49.49,0,0,0,5.48-9.24,29.41,29.41,0,0,0,2.57-10,23.67,23.67,0,0,0-1.54-9.88,33.8,33.8,0,0,0-6.12-9.93c-5-5.94-11.92-10.86-18.58-15.61l-1.59-1.14c-1-.69-1.93-1.39-2.89-2.09-2.42-2.16-4.33-3.95-6-5.62a64,64,0,0,1-9.71-12.21,58,58,0,0,1-4.38-9.83,98.77,98.77,0,0,1-2.8-10.14l0,.14-.72-3.28a112,112,0,0,0-4.9-17.41A52.71,52.71,0,0,0,286,75.34a66.46,66.46,0,0,0-8.23-9.43,107.5,107.5,0,0,0-19.21-14.86,143,143,0,0,0-22.68-11.21c-3.72-1.46-7.72-2.86-13-4.54-4.47-1.44-9.28-2.85-14.27-4.19-9.51-2.56-19.45-4.73-29.54-6.46a308.22,308.22,0,0,0-37.27-4.09c-7.61-.35-15.18-.38-22.51-.1-7.77.3-15.25.84-22.24,1.62a167.78,167.78,0,0,0-22.8,4,80.39,80.39,0,0,0-20,7.61,42.7,42.7,0,0,0-7.8,5.57,27.73,27.73,0,0,0-3.71,4.11,23.74,23.74,0,0,0-2.67,4.79,24,24,0,0,0-1.72,7,37.9,37.9,0,0,0,0,7.23,97.13,97.13,0,0,0,2.47,13.25l.4,1.73a96.69,96.69,0,0,1,2.12,31.49,80.46,80.46,0,0,1-2.72,13.53,78.61,78.61,0,0,1-5,12.61c-1.28,2.58-2.66,5.16-4,7.66-2,3.71-4,7.54-5.79,11.4A62,62,0,0,0,22.17,164a40.18,40.18,0,0,0-1.39,10.46,36,36,0,0,0,1.81,10.81A39.93,39.93,0,0,0,27,194.47c3.22,5,8.06,10,14.81,15.17,3.32,2.56,6.84,4.92,9.54,6.68,4.13,2.71,7.65,4.87,11.06,6.81,3.75,2.13,7.78,4.18,12,6.1,3.8,1.73,7.9,3.37,12.51,5A147.19,147.19,0,0,0,113,240.8a154,154,0,0,0,16.6,1.68M291.05,99.33h0v.06l0,.06v.06c0-.11,0-.21-.07-.31Z"/><g id="_9" data-name="9"><ellipse class="cls-4" cx="123.15" cy="288.36" rx="108.87" ry="54.35"/><path class="cls-5" d="M58.23,216.85c-.79,5.86-.84,14.64-.22,24.31,3.35,52.21,48.05,92.61,100.24,89.08l1.09-.07c38.15-2.85,60.41-13.91,79-37.37,10.28-13,1.13-54.37-36-80.1a60,60,0,0,1-21.55-27.06c-5-12.63-8.77-25.92-12.51-37.35-4.88-14.86-17.53-22.16-34.37-22.06a66,66,0,0,0-49,22C70,165.06,61.94,189.43,58.23,216.85Z"/><path class="cls-6" d="M115.53,201.81c-.43,11.35-3.39,31.47,1.92,44.34,9.85,24,39.4,25.79,43.45,25.7,18.55-.4,45.22,5,58.84-17,2.42-3.92-9.34-16.09-13.42-17.09-34-8.4-38.14-17.76-36.41-46.58.15-2.54-3.25-27.88-4.44-32.93a51.28,51.28,0,0,0-4-10.51c-3.08-6.27-5.53-7.09-11.57-10.72-2.08-1.25-4.92-1.49-8-1.12-12,1.43-21.25,11-23.62,22.8S116.19,184.65,115.53,201.81Z"/><path class="cls-7" d="M278.43,343.55c-1.47-2.45-7.1-4.51-12.56-6.69s-13.34-5.5-13.68-6.29-.15-1.49-.63-2a2,2,0,0,0-1.15-.49,18.91,18.91,0,0,0-11.59,1.58c-1.66.81-3.59,4.16-3.59,4.16.11,1.31,0,4.51.06,6.91,0,1.66,24.54,11.38,28.1,11.87,4.09.56,13.23,2.12,15.41-2.62A7.09,7.09,0,0,0,278.43,343.55Z"/><path class="cls-8" d="M278.8,347.79c-2.18,4.74-11.32,3.18-15.41,2.62-3.56-.48-28.21-10.38-28.21-10.38-.23,2.54.08,2.85.36,3.36,0,0,24.29,9.14,27.85,9.63,4.09.55,13.52,2.11,15.71-2.62a6.09,6.09,0,0,0,.24-4.27A8.71,8.71,0,0,1,278.8,347.79Z"/><path class="cls-7" d="M185.52,357.77c6.11,2.84,13.25-.11,15.22-3.14,2.82-4.32-6.08-12.37-9.77-23.8-.22-.68-2.13-8.46-2.13-8.46-4.7-1.32-15.55-.52-17.42,3.71-.69,1.56.89,6.29,1.24,7.87C174.88,344,176.85,353.75,185.52,357.77Z"/><path class="cls-8" d="M200.63,351.72c-2,3-9.11,6-15.22,3.13-5.73-2.65-8.53-7.83-10.42-13.92-1-3.13-3.34-12.77-3.69-14.43-.54,1.7,1.13,6.51,1.47,8,2.22,10,4.19,19.8,12.86,23.82,6.11,2.84,13.25-.11,15.22-3.14a5,5,0,0,0,.14-4.34A5.18,5.18,0,0,1,200.63,351.72Z"/><path class="cls-9" d="M241.19,260.12c-.88-6.91,1.05-10.31-2.68-16.19-5.48-8.65-44.62-30.11-60-39.21-.32-.18-15.71,2.46-20,9.17-1.92,3-31-3.07-30.71.37-3.26,28.91,4.17,32.65,10.27,40.87l25.3,34.46s1,13.18,7.78,36.17c1,5.93,18.92,2.65,18.1-3.71,0,0,3.82-30.72,2.64-39.85-.69-5.39-11.07-24.82-19.44-39.82,13.28,6.79,30,14.94,40.1,20.46a9,9,0,0,1,4.54,7.64c.52,20.77,7.47,23,16.57,61.72,1.45,6.16,21.45,2.64,20.27-1.74C250.87,316,242.6,271,241.19,260.12Z"/><path class="cls-10" d="M175.1,128.62a38.32,38.32,0,0,0-.17,5.87c.48,11.12,2.75,30.21,6.08,40.83,7,1.48,12.77,0,15.8-8.25-1.45-12.22-1.76-30-5.48-41.32C186,126.92,180.55,127.82,175.1,128.62Z"/><path class="cls-11" d="M172.41,157.26s11.24,7.17,25.89-2.16c.27-10.42-4.51-40.38-16.27-38.65C167,118.65,169.29,137.34,172.41,157.26Z"/><path class="cls-11" d="M190.12,151.71c.16-3.5,2.49-16.57-.11-25.94-1.55-5.54-7.17-8.94-12.89-8.37-8.15.81-13.9,1.95-23.29,6.77-5.14,2.88-24,14-24.92,18.18-.65,2.94-2.4,5.51-2.42,8.52-.07,11.06,2.41,35.06.85,68.3,7.45,7,22.57,8.45,32.51,6.72,14.81-2.58,20.41-6.65,22.32-18.92C182.21,206.76,189.52,164.49,190.12,151.71Z"/><path class="cls-10" d="M151.83,193.6a4,4,0,0,1-1.25-2.56c-.46-5.12-1.27-21.52-2.5-33.63-4.43,1.41-8.82,3-13.15,4.81a64.74,64.74,0,0,1-6.6,2.51c2.9,13,8,30.43,9.53,35.52a4,4,0,0,0,1.66,2.22c8.55,5.59,34.57,25.09,34.72,25.18.81-3.4,3-5.73,3.83-9.12Z"/><path class="cls-10" d="M229.63,199a1.8,1.8,0,0,0,.83-2.15c-.09-.35-.74-5.14-2.89-6.34-.75-.41-12.21-.17-12.21-.17s-18.21-22.06-18.55-23.22l-9.38,7.11-.55,3.72c2.69,1.33,19.62,15.73,22.7,18.06a2.75,2.75,0,0,1,.93,1.15,21.12,21.12,0,0,1,1.22,5.43c.15,1.42-.36,3.15,1.25,3.15a2.54,2.54,0,0,0,2.11-1.8c.57-1.43.1-3,.54-4.4a2.38,2.38,0,0,1,.28-.63c.69-1,1.83-.62,2.78-.31a5.44,5.44,0,0,1,2,.74c.92,1,1.08,4.56,2.11,5.39.49.39,1.73.43,1.81-.61.3,1.06.59,2.13.62,2.17.67,1.14,2.31.49,2.59-.62a1.88,1.88,0,0,0,2.25-.87c.66-1.11.33-2.18.17-3.34C230.13,200.69,229.63,199,229.63,199Z"/><path class="cls-11" d="M126.44,175.89s10.62,8.06,26,0c1.12-10.37-1.2-40.62-13.06-39.86C124.25,137,125,155.78,126.44,175.89Z"/><path class="cls-12" d="M175.05,119c-3.81,0-11.22.59-16.86,3.53-6.77,3.52-10.73,5.78-9.5,7.9,4.72,8.14,13.48,16.62,22.59,13.15l.22-.09a13.28,13.28,0,0,0,8-16.26C178.42,123.64,176.72,121.9,175.05,119Z"/><path class="cls-13" d="M163.42,111.14l-10,17s-.08,2.46,3,6.58c4.78,6.34,9.73,7,12.85,6.59a5.36,5.36,0,0,0,4.36-3.68l.62-1.92Z"/><path class="cls-12" d="M168.69,89.61c-7.42,2.89-12.9,8.17-11.15,22.39,1.34,10.94,10.55,22,18.75,27.94,2,1.47,8.25,3.05,10.25-1.67,1.7-4,5.72-15.72,5.8-25.91.08-8.19-.23-15.22-6.48-20.26C181.57,88.65,176.46,86.59,168.69,89.61Z"/><path class="cls-14" d="M170.37,117.36a5.94,5.94,0,0,1,3.08-5.1c4.11-2.09,14-.43,18.82-5.21,1.28-4.33-.59-11.08-6.41-15.91-4.24-3.52-10-5.74-17.79-2.72-7.42,2.89-13.27,8.74-11.16,23.58.15,1.09,1.82,9.66,3.82,9.66,1.27-.29.32-4.85.53-6.12.33-2.11,2.65-3.24,4.19-1.58,2.39,2.58,1,5,1.11,8.64.07,1.72,2,3.59,3.13,1.82a4.43,4.43,0,0,0,.47-2.7S170.26,119.68,170.37,117.36Z"/><g class="cls-1"><polygon class="cls-15" points="209.35 209.91 157 240.33 191.74 260.85 242.95 229.31 209.35 209.91"/><path class="cls-16" d="M205,227.06l-13.87,8-9-5.2,13.87-8,9,5.19Z"/><path class="cls-17" d="M196,221.85l-13.88,8,.28.17L196,222.18l8.73,5,.28-.16S196,221.85,196,221.85Z"/><path class="cls-18" d="M188.48,242.82l2.11,1.19a.48.48,0,0,1,.25.41.46.46,0,0,1-.25.41l-2.48,1.4L186,245a.45.45,0,0,1,0-.81Zm8.52-5a.46.46,0,0,0-.25.41.47.47,0,0,0,.26.4l2.1,1.2,2.48-1.4a.46.46,0,0,0,.25-.41.47.47,0,0,0-.26-.41l-2.1-1.19Zm-7.94,11.71,2.48-1.4a.46.46,0,0,0,.25-.41.47.47,0,0,0-.26-.41l-2.1-1.19-2.47,1.4a.46.46,0,0,0-.26.41.49.49,0,0,0,.26.4Zm.61-7.47a.46.46,0,0,0,0,.82l2.1,1.19,2.48-1.39a.48.48,0,0,0,.25-.42.47.47,0,0,0-.26-.4l-2.1-1.19Zm3.67-2.12a.45.45,0,0,0,0,.82l2.1,1.19,2.48-1.39a.45.45,0,0,0,0-.82l-2.1-1.19Zm-11,6.37a.46.46,0,0,0-.25.42.48.48,0,0,0,.25.4l2.11,1.19,2.47-1.39a.48.48,0,0,0,.26-.42.49.49,0,0,0-.26-.4l-2.1-1.19Zm8.95,5.89,2.47-1.4a.45.45,0,0,0,.25-.41.46.46,0,0,0-.26-.4l-2.1-1.19-2.47,1.39a.46.46,0,0,0-.25.41.47.47,0,0,0,.26.41Zm13.47-7.76a.46.46,0,0,0,0-.82l-2.1-1.19-2.47,1.39a.47.47,0,0,0-.26.42.49.49,0,0,0,.26.4l2.1,1.19Zm3.66-2.13a.47.47,0,0,0,.26-.41.5.5,0,0,0-.26-.41l-2.1-1.19-2.48,1.4a.45.45,0,0,0,0,.81l2.1,1.2Zm-11,6.37a.46.46,0,0,0,.25-.41.47.47,0,0,0-.26-.41l-2.1-1.19-2.48,1.4a.46.46,0,0,0-.25.41.47.47,0,0,0,.26.4l2.1,1.2Zm3.66-2.12a.45.45,0,0,0,0-.82l-2.1-1.19L196.51,246a.46.46,0,0,0-.25.42.48.48,0,0,0,.25.4l2.11,1.19Zm-.42-10.87a.46.46,0,0,0,0,.82l2.1,1.19,2.47-1.39a.47.47,0,0,0,.26-.42.49.49,0,0,0-.26-.4l-2.11-1.19Zm-10,9.7a.46.46,0,0,0,0,.82l2.1,1.19L195.2,246a.47.47,0,0,0,.26-.42.49.49,0,0,0-.26-.4L193.1,244Zm21.47-5.2a.46.46,0,0,0,.25-.42.47.47,0,0,0-.26-.4l-2.1-1.19-2.47,1.39a.48.48,0,0,0-.26.42.52.52,0,0,0,.26.4l2.1,1.19Zm6.16-6.57a.49.49,0,0,0,.26.4l2.1,1.19,3.66-2.08a.45.45,0,0,0,.25-.41.47.47,0,0,0-.26-.4l-2.1-1.2-3.66,2.08A.48.48,0,0,0,218.25,233.65Zm-12.05,6a.47.47,0,0,0,.26-.42.49.49,0,0,0-.26-.4l-2.11-1.19-2.47,1.39a.47.47,0,0,0-.25.42.48.48,0,0,0,.25.4l2.11,1.19Zm-7.33,4.25a.46.46,0,0,0,0-.82l-2.1-1.19-2.47,1.39a.47.47,0,0,0-.26.42.49.49,0,0,0,.26.4l2.1,1.19Zm3.67-2.13a.46.46,0,0,0,0-.82l-2.1-1.19-2.48,1.4a.46.46,0,0,0-.25.41.47.47,0,0,0,.26.4l2.1,1.2Zm11-6.37a.46.46,0,0,0,.26-.41.5.5,0,0,0-.26-.41l-2.1-1.19-2.48,1.4a.45.45,0,0,0-.25.41.48.48,0,0,0,.25.4l2.11,1.2Zm-9.19-1.82a.47.47,0,0,0-.26.42.48.48,0,0,0,.27.4l2.09,1.19,2.48-1.39a.46.46,0,0,0,0-.82l-2.1-1.19Zm6.14-3.52-2.48,1.4a.45.45,0,0,0,0,.81l2.1,1.2,2.47-1.4a.47.47,0,0,0,.26-.41.5.5,0,0,0-.26-.41Zm6.72,3.22a.46.46,0,0,0,.25-.42.47.47,0,0,0-.26-.4l-2.1-1.19-2.47,1.39a.48.48,0,0,0-.26.42.49.49,0,0,0,.26.4l2.1,1.19Zm-7.33,4.25a.46.46,0,0,0,0-.82l-2.1-1.19-2.48,1.39a.48.48,0,0,0-.25.42.49.49,0,0,0,.26.4l2.1,1.19Zm-19.52,15a.49.49,0,0,0-.26-.4L188,251l-2.48,1.39a.48.48,0,0,0-.25.42.47.47,0,0,0,.26.4l2.1,1.19,2.47-1.39A.47.47,0,0,0,190.35,252.54Zm-2.22-2.67a.49.49,0,0,0-.26-.4l-2.11-1.19-3.65,2.08a.46.46,0,0,0-.26.41.49.49,0,0,0,.26.4l2.11,1.19,3.65-2.08A.46.46,0,0,0,188.13,249.87Zm-4.62-1.21a.47.47,0,0,0-.26-.4l-2.1-1.19-2.47,1.39a.48.48,0,0,0-.26.42.47.47,0,0,0,.26.4l2.1,1.19,2.48-1.39A.46.46,0,0,0,183.51,248.66ZM181.29,246a.49.49,0,0,0-.26-.4l-2.1-1.19-3.66,2.08a.45.45,0,0,0-.25.41.46.46,0,0,0,.26.4l2.1,1.19,3.66-2.07A.49.49,0,0,0,181.29,246Zm11.32,6.14L189,254.21a.49.49,0,0,0-.25.42.47.47,0,0,0,.26.4l2.1,1.19,3.66-2.08a.46.46,0,0,0,.25-.41.46.46,0,0,0-.26-.4Zm35.07-17.9-2.1-1.19-2.47,1.39a.47.47,0,0,0-.26.42.49.49,0,0,0,.26.4l2.1,1.19,2.48-1.39a.46.46,0,0,0,0-.82ZM211,241.54l-17.19,9.91a.46.46,0,0,0,0,.82l2.1,1.19,17.19-9.91a.48.48,0,0,0,.25-.42.47.47,0,0,0-.26-.4Zm10.95-6.38-2.48,1.39a.47.47,0,0,0-.25.42.48.48,0,0,0,.25.4l2.11,1.19,2.47-1.39a.47.47,0,0,0,.26-.42.49.49,0,0,0-.26-.4Zm-39.7,10.52,2.48-1.4a.45.45,0,0,0,.25-.41.47.47,0,0,0-.25-.4l-2.11-1.2-2.47,1.4a.47.47,0,0,0-.26.41.51.51,0,0,0,.26.41Zm32.37-6.27-2.48,1.39a.45.45,0,0,0,0,.82l2.1,1.19,2.48-1.39A.5.5,0,0,0,217,241a.49.49,0,0,0-.26-.4Zm3.66-2.13-2.48,1.4a.46.46,0,0,0,0,.82l2.1,1.19,2.48-1.4a.46.46,0,0,0,.25-.41.45.45,0,0,0-.26-.4Zm-2.5.82a.45.45,0,0,0,0-.82l-2.1-1.19-2.48,1.39a.46.46,0,0,0,0,.82l2.1,1.19Zm-4.34-8.33a.49.49,0,0,0,.26.4l2.1,1.19,3.66-2.08a.46.46,0,0,0,.26-.41.5.5,0,0,0-.26-.4l-2.1-1.2-3.66,2.08A.48.48,0,0,0,211.41,229.77Zm.14-1.08L214,227.3a.48.48,0,0,0,.25-.42.47.47,0,0,0-.26-.4l-2.1-1.19-2.48,1.39a.48.48,0,0,0-.25.42.47.47,0,0,0,.26.4Zm7.87,7.28a.46.46,0,0,0,.25-.41.47.47,0,0,0-.26-.41l-2.1-1.19-2.47,1.4a.45.45,0,0,0-.25.41.46.46,0,0,0,.26.4l2.1,1.19ZM216,231a.47.47,0,0,0,.26.4l2.1,1.19,2.48-1.39a.5.5,0,0,0,.25-.42.49.49,0,0,0-.26-.4l-2.1-1.19-2.48,1.39A.48.48,0,0,0,216,231Zm-8.15-.17,2.48-1.39a.49.49,0,0,0,.26-.42.52.52,0,0,0-.26-.4l-2.11-1.19-2.47,1.39a.49.49,0,0,0-.26.42.52.52,0,0,0,.26.4Zm-7.33,4.25,2.48-1.39a.46.46,0,0,0,0-.82l-2.1-1.19-2.47,1.39a.47.47,0,0,0-.26.42.49.49,0,0,0,.26.4Zm-7.33,4.25,2.48-1.4a.46.46,0,0,0,.25-.41.45.45,0,0,0-.26-.4l-2.1-1.2-2.47,1.4a.47.47,0,0,0-.26.41.5.5,0,0,0,.26.41Zm-3.66,2.12L192,240a.48.48,0,0,0,.26-.42.49.49,0,0,0-.26-.4L189.92,238l-2.47,1.39a.46.46,0,0,0-.25.42.48.48,0,0,0,.25.4Zm14.66-8.49,2.48-1.4a.46.46,0,0,0,.25-.41.45.45,0,0,0-.26-.4l-2.1-1.2-2.48,1.4a.48.48,0,0,0-.25.41.45.45,0,0,0,.26.4Zm-18.33,10.61,2.48-1.39a.48.48,0,0,0,.25-.42.47.47,0,0,0-.26-.4l-2.1-1.19-2.48,1.39a.49.49,0,0,0-.25.42.47.47,0,0,0,.26.4Zm11-6.37,2.47-1.39a.47.47,0,0,0,.26-.42.49.49,0,0,0-.26-.4l-2.1-1.19-2.48,1.39a.47.47,0,0,0-.25.42.48.48,0,0,0,.25.4Z"/><path class="cls-10" d="M191.94,223.89c-2.09-3.83-9.07-3.83-13.87-5.36-3.54-2.11-8.58,5.24-6.62,7a8.53,8.53,0,0,0,2.05,1.74c.81.46,1.65.85,2.48,1.25a11.62,11.62,0,0,1,4.21,3,12.64,12.64,0,0,1,.8,1.12c1,1.59.87,4.52,2.54,5.62,1.24.83,1.51.05,2.75-.15,1-.17,4.14.44,4.87-.05.37-.24.5-.71.81-1,1.34-1.32,2.24-1.48,2.48-3.63a10.28,10.28,0,0,0-.71-5.41C193,226.62,192.66,225.19,191.94,223.89Z"/><polygon class="cls-17" points="201.79 226.54 192.43 262.37 244.65 232.02 254.13 196.12 201.79 226.54"/><polygon class="cls-15" points="201.19 225.95 253.54 195.53 254.13 196.12 201.79 226.54 201.19 225.95"/><polygon class="cls-19" points="201.19 225.95 191.52 260.26 157 240.33 157.02 241.93 192.43 262.37 201.79 226.54 201.19 225.95"/></g></g><polyline class="cls-20" points="68.63 117.73 68.63 117.73 68.63 117.73 68.62 117.72 68.63 117.73"/><path class="cls-20" d="M70.16,118.64h.12l-.15,0,0,0"/><path class="cls-21" d="M71.88,67.12a14.56,14.56,0,0,0-1.41-.47,14.91,14.91,0,0,0-1.79-.35,15.19,15.19,0,0,0-1.85-.1,12.69,12.69,0,0,0-3.65.61,13.28,13.28,0,0,0-5.8,3.77,14.22,14.22,0,0,0-3.2,6,14.46,14.46,0,0,0-.52,3.72c0,3.4,3.58,3.34,3.62,0a4.32,4.32,0,0,0,0-.57,14,14,0,0,1,.26-1.7A11.61,11.61,0,0,1,58.77,75a11,11,0,0,1,1.84-2.38A11.11,11.11,0,0,1,62.77,71a9.47,9.47,0,0,1,4.61-1.19,10.32,10.32,0,0,1,2.47.31,9.82,9.82,0,0,1,1.16.38,10,10,0,0,1,1.15.53,11,11,0,0,1,2.07,1.47,11.92,11.92,0,0,1,1.85,2.2l0-.07a13,13,0,0,1,1.31,2.71A12.45,12.45,0,0,1,78,80.45a12.24,12.24,0,0,1-.16,2.63.28.28,0,0,0-.19.16,3.16,3.16,0,0,0-.11,1.14,11.87,11.87,0,0,1-1,2.38l0,0h0c-.19.33-.4.65-.62,1l0,0a.3.3,0,0,0,.06.44l.07,0a.3.3,0,0,0,.36-.09,11.22,11.22,0,0,0,1.4-2.48c.06-.14.11-.29.17-.43a.91.91,0,0,0,.24.24,1.4,1.4,0,0,0,.32.18,1.78,1.78,0,0,0,.33.09,1.64,1.64,0,0,0,.68-.06,1.7,1.7,0,0,0,.35-.14.29.29,0,0,0,.19.28.39.39,0,0,0,.26,0,.29.29,0,0,0,.14-.15c.05-.16.09-.31.14-.46s0-.06,0-.07c.09-.35.17-.68.23-1,0-.11.06-.23.08-.34.06-.36.1-.69.14-1l0-.23v-.09a15.35,15.35,0,0,0-4.35-12.22A14.33,14.33,0,0,0,73.77,68a13.71,13.71,0,0,0-1.89-.91"/><path class="cls-21" d="M75.34,116.81a.31.31,0,0,0-.35-.12l-.08,0-.52.27-.47.2a.24.24,0,0,0,0-.18,18.2,18.2,0,0,0-.73-3.71c-.35-1.22-.76-2.45-1.21-3.66s-.91-2.31-1.48-3.59c-.51-1.12-1-2.29-1.69-3.39s-1.45-2.23-2-3l-.76-1c-.44-.6-.9-1.21-1.33-1.82l-.42-.61c-.41-.6-.83-1.22-1.3-1.8a9.71,9.71,0,0,0-1-1.09,6.61,6.61,0,0,0-.92-.68.18.18,0,0,0,0-.07.29.29,0,0,0,.15-.16.07.07,0,0,1,0,0l0,0a.26.26,0,0,0,.11-.21.29.29,0,0,0-.28-.31h0l-.08,0a.27.27,0,0,0-.09,0l-.13.07-.13.09-.08,0c-.29.19-.56.38-.83.58l-.19.12-.42.26a3.9,3.9,0,0,0-1,1.07,5,5,0,0,0-.64,1.55c0,.31-.05.61-.08.91s0,.34,0,.5l0,.14v0a.29.29,0,0,1,0,.09c0,.1.07.2.1.3a0,0,0,0,1,0,0l1.81,3.38,7.31,13.66,1.6,3,.25.21h0A3.77,3.77,0,0,0,69,118l.44.22a3.82,3.82,0,0,0,.48.15,3.06,3.06,0,0,0,.51.1h0a6.26,6.26,0,0,0,1.06,0c.33,0,.66-.12,1-.19l.31-.09a11.15,11.15,0,0,0,2.43-1,.27.27,0,0,0,.13-.18A.33.33,0,0,0,75.34,116.81Z"/><path class="cls-22" d="M81.16,81l-5.64,3L60.68,91.85A1.9,1.9,0,0,0,60,94.43L72.08,116.7a1.94,1.94,0,0,0,2.53.89l20.48-10.87a1.9,1.9,0,0,0,.65-2.58l-12-22.27A1.94,1.94,0,0,0,81.16,81"/><path class="cls-23" d="M60.67,91.85A1.66,1.66,0,0,0,59.83,93,2,2,0,0,0,60,94.44l12,22.27a2,2,0,0,0,2.22,1,1.79,1.79,0,0,0,.32-.13l20.48-10.88a1.7,1.7,0,0,0,.85-1.11,1.61,1.61,0,0,0,.06-.44c-.37.25-.76.48-1.15.7a23.16,23.16,0,0,1-2.76,1.3,30,30,0,0,1-2.94,1c-.92.26-1.85.49-2.8.67-.43.08-.87.16-1.32.21s-.91.1-1.37.13a19.48,19.48,0,0,1-5.33-.48,21.45,21.45,0,0,1-5-1.84A24.68,24.68,0,0,1,61.13,91.61Z"/><path class="cls-24" d="M74,92.24c-1.81,1-2.21,3.71-.89,6.09s3.86,3.5,5.67,2.52,2.2-3.71.88-6.08S75.84,91.26,74,92.24"/><path class="cls-24" d="M75.72,94.7q4.91,4.92,9.8,9.83l-6.73,3.64q-1.53-6.73-3.07-13.47"/><path class="cls-25" d="M74.33,92.09a3.64,3.64,0,0,1,.86.17,5.12,5.12,0,0,1,.65.25,4.66,4.66,0,0,1,.53.32,4.13,4.13,0,0,1,.55.47,4.42,4.42,0,0,1,.44.53,7.7,7.7,0,0,1,.76,1.34,9.76,9.76,0,0,1,.47,1.38c.06.25.12.49.16.74a5.1,5.1,0,0,1,.08.67,3.54,3.54,0,0,1-.06.73,1.91,1.91,0,0,1-.1.34,1.42,1.42,0,0,1-.08.18.05.05,0,0,1,0,0,65.26,65.26,0,0,0,5.68,6l1.22-.65-5.32-5.35a5.44,5.44,0,0,0-.51-4.43c-1.16-2.09-3.29-3.26-5.06-2.78l-.31.11"/><polygon class="cls-26" points="78.6 98.49 78.6 98.49 78.6 98.49 78.6 98.49"/><rect class="cls-27" x="126.18" y="44.65" width="39.91" height="27.96" transform="translate(-9.62 35.51) rotate(-13.42)"/><rect class="cls-28" x="125.32" y="27.51" width="37.33" height="44.24" rx="1.98" transform="translate(-7.59 34.77) rotate(-13.42)"/><polygon class="cls-23" points="147.58 64.71 123.48 49.66 129.96 76.86 168.79 67.6 162.3 40.4 147.58 64.71"/><line class="cls-29" x1="128.1" y1="40.33" x2="146.67" y2="35.91"/><line class="cls-29" x1="129.09" y1="44.48" x2="154.25" y2="38.47"/><line class="cls-29" x1="130.08" y1="48.62" x2="155.24" y2="42.62"/><line class="cls-29" x1="131.07" y1="52.76" x2="156.23" y2="46.76"/><line class="cls-29" x1="132.06" y1="56.9" x2="157.21" y2="50.9"/><path class="cls-30" d="M168.36,65.8,162.3,40.4,147.58,64.71l-24.1-15,1.2,5C130.05,64.24,142,73.35,168.36,65.8Z"/><polygon class="cls-21" points="147.58 64.71 129.96 76.86 168.79 67.6 147.58 64.71"/><rect class="cls-31" x="216.82" y="123.41" width="28.4" height="37.25" rx="1.71" transform="translate(-33.41 81.85) rotate(-18.76)"/><path class="cls-32" d="M249.83,153.25,239,121.45a1.71,1.71,0,0,0-2.17-1.07L214,128.14C217.76,138.43,227.54,157.51,249.83,153.25Z"/><path class="cls-33" d="M224.29,129.48a7.32,7.32,0,1,0,10.24,1.45,7.32,7.32,0,0,0-10.24-1.45"/><path class="cls-34" d="M227.16,131.2a3.79,3.79,0,0,0-1,.56,4,4,0,0,0-.79,5.55,3.92,3.92,0,0,0,2.14,1.45l-.09.44-.51,2.86.06,0H227a3.48,3.48,0,0,0,.44.1h.11c.26,0,.53.07.8.09H229l.45,0,.72-.12a7.31,7.31,0,0,0,.85-.24l.06,0a7.23,7.23,0,0,0,.79-.34,7.61,7.61,0,0,0,.85-.51,6.76,6.76,0,0,0,.72-.58,6.42,6.42,0,0,0,.64-.66,1.58,1.58,0,0,0,.12-.15l-2.66-2.25a4,4,0,0,0-4.42-6.2"/><path class="cls-34" d="M226.14,128.07l-.45.18a7.37,7.37,0,0,0-1.66,1,7.68,7.68,0,0,0-1.43,1.47,7.58,7.58,0,0,0-.69,1.13l0,.06a6.21,6.21,0,0,0-.26.59l-.15.43a7.88,7.88,0,0,0-.35,2.22,7.33,7.33,0,0,0,.25,2,7.51,7.51,0,0,0,.81,1.92,6,6,0,0,0,.61.88,7.54,7.54,0,0,0,2.07,1.79,3.3,3.3,0,0,0,.32.18,5.83,5.83,0,0,0,.79.36,7.17,7.17,0,0,0,1.2.35,7.34,7.34,0,0,0,2.16.13,7.58,7.58,0,0,0,1.9-.4,8,8,0,0,0,2.16-1.19,7.52,7.52,0,0,0,1.89-2.19l.05-.09,0,0a8.62,8.62,0,0,0,.44-.94l.06-.18a8,8,0,0,0,.42-2.13,7.2,7.2,0,0,0,0-1,6.27,6.27,0,0,0-.18-1.13,7.59,7.59,0,0,0-9.93-5.35m-2.76,2.83h0a8.18,8.18,0,0,1,.63-.68l.06-.06.34-.28,0,0,.05,0,.05,0a6.68,6.68,0,0,1,1-.65,7.07,7.07,0,0,1,.81-.35,8.52,8.52,0,0,1,.9-.26,7.68,7.68,0,0,1,1.8-.13,7.35,7.35,0,0,1,1.73.33,7.63,7.63,0,0,1,1.58.75,7.46,7.46,0,0,1,1.3,1.08,7.83,7.83,0,0,1,1.08,1.53,7.72,7.72,0,0,1,.61,1.73,6.86,6.86,0,0,1-.19,3.55,6.86,6.86,0,0,1-.32.79l0,.07c-.12.23-.25.47-.4.71l-.09.14,0,.06a7.94,7.94,0,0,1-1,1.15l-.21.18,0,0-.06,0,0,0-.09.07a7.19,7.19,0,0,1-1.05.67,7.82,7.82,0,0,1-.85.37l-.56.17-.31.08-.74.11h-.49a3.85,3.85,0,0,1-.59,0,7.75,7.75,0,0,1-1.74-.32l-.36-.14a6.26,6.26,0,0,1-1.13-.56l-.07,0a8,8,0,0,1-1.16-1l0,0-.06-.06-.09-.11a7.29,7.29,0,0,1-.7-.91l0,0c-.11-.19-.21-.36-.3-.54l-.1-.19a7.34,7.34,0,0,1-.44-1.24,2.46,2.46,0,0,1-.07-.29,7.23,7.23,0,0,1-.13-1.81,7.52,7.52,0,0,1,.27-1.55v-.05l0-.06v0c.08-.22.16-.41.24-.6l0-.07,0-.06a5.41,5.41,0,0,1,.42-.79c.14-.22.27-.41.41-.59l0,0,0,0h0"/><line class="cls-35" x1="223.23" y1="149.27" x2="241.31" y2="143.13"/><line class="cls-35" x1="224.36" y1="152.58" x2="242.44" y2="146.44"/><rect class="cls-36" x="218.12" y="125.11" width="25.8" height="33.84" rx="1.55" transform="translate(-33.41 81.85) rotate(-18.76)"/><line class="cls-35" x1="227.82" y1="155.1" x2="241.48" y2="150.46"/><path class="cls-37" d="M293,98.31,286,95l-37.8-17.92c-1.12-.53-2.38-.31-2.76.48l-9,19c-.37.79.26,1.91,1.37,2.44l44.75,21.21c1.12.53,2.38.32,2.76-.47l9-19c.38-.79-.25-1.9-1.37-2.43"/><path class="cls-38" d="M248.23,77.09c-1.12-.54-2.39-.31-2.77.48l-9,19c-.38.79.26,1.91,1.38,2.45l44.75,21.21c1.1.52,2.35.32,2.75-.44a49.81,49.81,0,0,1-5.12-2.55,58.45,58.45,0,0,1-6.83-4.57,61.28,61.28,0,0,1-5.95-5.23c-.9-.9-1.76-1.82-2.58-2.77s-1.52-1.81-2.21-2.74c-.34-.46-.66-.92-1-1.39s-.57-.87-.85-1.31c-.56-.9-1.1-1.81-1.61-2.73s-1.08-2-1.56-3-1-2.15-1.41-3.23A31.71,31.71,0,0,1,255.16,87a20.29,20.29,0,0,1-.6-3.11,12.35,12.35,0,0,1,0-2.85,8.34,8.34,0,0,1,.16-.87Z"/><path class="cls-32" d="M252.25,83.24a7,7,0,1,0,5.92,7.86,7,7,0,0,0-5.92-7.86"/><path class="cls-33" d="M253,86.33a4,4,0,0,0-1.09-.33,3.76,3.76,0,0,0-4.25,3.21,3.7,3.7,0,0,0,.47,2.41l-.36.23-2.27,1.59,0,0,0,0a2.85,2.85,0,0,0,.23.37l0,0,0,0a7,7,0,0,0,.48.6l.37.38.12.1c.1.1.21.19.32.28s.37.28.56.41a8.16,8.16,0,0,0,.74.41l.05,0a8,8,0,0,0,.76.31,7.07,7.07,0,0,0,.92.22,6.44,6.44,0,0,0,.87.1,8.32,8.32,0,0,0,.88,0l.18,0-.28-3.31A3.76,3.76,0,0,0,253,86.33"/><path class="cls-33" d="M254.44,83.54l-.42-.18a6.82,6.82,0,0,0-1.79-.45,7.09,7.09,0,0,0-1.95,0,7.46,7.46,0,0,0-1.22.29l-.06,0-.57.23-.39.19a7.48,7.48,0,0,0-1.73,1.26,6.64,6.64,0,0,0-1.18,1.52,7,7,0,0,0-.75,1.83,5.67,5.67,0,0,0-.18,1,7.11,7.11,0,0,0,.19,2.6l.09.33a7.56,7.56,0,0,0,.29.78,7.07,7.07,0,0,0,.58,1,7.22,7.22,0,0,0,1.36,1.53,6.78,6.78,0,0,0,1.55,1,7.36,7.36,0,0,0,2.25.65,7.11,7.11,0,0,0,2.75-.2l.09,0h.05a9.06,9.06,0,0,0,.93-.35l.16-.07a7.26,7.26,0,0,0,1.71-1.16,6.6,6.6,0,0,0,.69-.71,8.78,8.78,0,0,0,.64-.88,7.22,7.22,0,0,0-3.09-10.27m-3.76,0h0a8.64,8.64,0,0,1,.88,0h.08a3,3,0,0,1,.42,0h.17a7.25,7.25,0,0,1,1.14.26,6.67,6.67,0,0,1,.78.31,6.52,6.52,0,0,1,.77.43,7,7,0,0,1,1.31,1.12,7.38,7.38,0,0,1,.94,1.39,6.6,6.6,0,0,1,.56,1.56,6.36,6.36,0,0,1-.16,3.36,6.6,6.6,0,0,1-.74,1.57,6.45,6.45,0,0,1-2.52,2.26,6.88,6.88,0,0,1-.74.32l-.08,0a7.17,7.17,0,0,1-.74.22l-.16,0h-.06a7,7,0,0,1-1.44.1l-.26,0h-.17l-.1,0a6.78,6.78,0,0,1-1.17-.25,6.38,6.38,0,0,1-.82-.33c-.16-.07-.33-.16-.49-.25l-.26-.16q-.27-.18-.57-.42l0,0s0,0,0,0l0,0-.09-.08h0l0,0,0,0,0,0h0l0,0c-.13-.13-.27-.26-.39-.4a7.45,7.45,0,0,1-.95-1.39c-.06-.11-.11-.22-.16-.33a7.26,7.26,0,0,1-.38-1.14l0-.07a8.33,8.33,0,0,1-.15-1.41v-.28A8.41,8.41,0,0,1,245,88.7v-.07c.05-.2.1-.38.15-.56l.07-.19a7.35,7.35,0,0,1,.53-1.13l.15-.24A6.37,6.37,0,0,1,247,85.2a7.27,7.27,0,0,1,1.22-.86l.05,0,.05,0,0,0L249,84l.07,0,.07,0a5.78,5.78,0,0,1,.81-.24,5.94,5.94,0,0,1,.67-.12h.1"/><path class="cls-32" d="M282.61,102.22l-.22-.1-11.48-5.45-7.1-3.36a.56.56,0,0,0-.74.24.54.54,0,0,0,.28.72l15.24,7.22,3.56,1.69a.53.53,0,1,0,.46-1"/><path class="cls-32" d="M280.28,97.19l0,0-9.86-4.67-5-2.36a.56.56,0,0,0-.75.24.56.56,0,0,0,.29.72L279,97.78l.78.37a.55.55,0,0,0,.74-.23.56.56,0,0,0-.28-.73"/><path class="cls-32" d="M284.47,108.56l-.06,0-12-5.68-10.67-5.06A.56.56,0,0,0,261,98a.54.54,0,0,0,.28.72l17,8,5.73,2.72a.56.56,0,0,0,.74-.24.54.54,0,0,0-.28-.72"/><path class="cls-32" d="M283,111.5l0,0L269.33,105l-9.16-4.34a.55.55,0,0,0-.74.23.57.57,0,0,0,.29.73l18.19,8.62,4.65,2.21a.54.54,0,1,0,.46-1"/><path class="cls-32" d="M270.12,109.17,259,103.91a.56.56,0,0,0-.75.24.55.55,0,0,0,.29.72l18.11,8.59,4.45,2.11a.57.57,0,0,0,.75-.23.56.56,0,0,0-.3-.73Z"/><rect class="cls-23" x="279.81" y="185.93" width="29.35" height="35.53" rx="2.27" transform="translate(80.2 -83.18) rotate(18.57)"/><path class="cls-22" d="M303.38,223.26a2.2,2.2,0,0,0,.09-.21l9.86-29.37a2.27,2.27,0,0,0-1.43-2.88l-22-7.4C288,193.8,286.84,213.8,303.38,223.26Z"/><rect class="cls-32" x="285.54" y="190.85" width="24.83" height="4.66" transform="translate(77.03 -84.83) rotate(18.57)"/><line class="cls-39" x1="285.02" y1="195.93" x2="292.87" y2="198.57"/><line class="cls-39" x1="284.09" y1="198.69" x2="305.67" y2="205.94"/><line class="cls-39" x1="283.17" y1="201.46" x2="304.74" y2="208.71"/><line class="cls-39" x1="282.24" y1="204.22" x2="303.81" y2="211.47"/><line class="cls-39" x1="281.31" y1="206.99" x2="302.88" y2="214.24"/><line class="cls-39" x1="280.38" y1="209.75" x2="301.95" y2="217"/><line class="cls-39" x1="279.45" y1="212.52" x2="301.02" y2="219.76"/></g></g></svg>