<svg xmlns="http://www.w3.org/2000/svg" xmlns:xlink="http://www.w3.org/1999/xlink" viewBox="0 0 424.84 361.9"><defs><style>.cls-1,.cls-2{fill:#72afcf;}.cls-1,.cls-12{stroke:#72afcf;}.cls-1,.cls-12,.cls-14,.cls-17,.cls-18,.cls-9{stroke-miterlimit:10;}.cls-1,.cls-12,.cls-17,.cls-18{stroke-width:2px;}.cls-3{isolation:isolate;}.cls-4{fill:#00344f;}.cls-5{fill:#0573a5;}.cls-6{fill:#166593;}.cls-14,.cls-7{fill:#fff;}.cls-8{fill:#b3cce3;}.cls-12,.cls-17,.cls-18,.cls-9{fill:none;}.cls-9{stroke:#b3cce3;}.cls-10{clip-path:url(#clip-path);}.cls-11{fill:#fffff9;}.cls-13{clip-path:url(#clip-path-2);}.cls-14{stroke:#00344f;stroke-width:5px;opacity:0.5;}.cls-15{fill:#ffbf0b;}.cls-16{fill:#87c8ee;mix-blend-mode:multiply;}.cls-17,.cls-18{stroke:#fff;}.cls-17{stroke-dasharray:5 5;}</style><clipPath id="clip-path"><circle class="cls-1" cx="93.12" cy="162" r="11.5"/></clipPath><clipPath id="clip-path-2"><rect class="cls-2" x="211.49" y="143.39" width="81.25" height="56.33" rx="10"/></clipPath></defs><title>cybersecurity</title><g class="cls-3"><g id="Layer_1" data-name="Layer 1"><rect class="cls-4" x="51.08" y="118.54" width="263.47" height="176.97" rx="13"/><path class="cls-4" d="M51.08,301H314.55a0,0,0,0,1,0,0v10a0,0,0,0,1,0,0H60.22a9.14,9.14,0,0,1-9.14-9.14V301a0,0,0,0,1,0,0Z"/><path class="cls-5" d="M85,301H348.5a0,0,0,0,1,0,0v.83a9.14,9.14,0,0,1-9.14,9.14H94.17A9.14,9.14,0,0,1,85,301.86V301a0,0,0,0,1,0,0Z"/><rect class="cls-6" x="59.83" y="127.19" width="245.97" height="143.99" rx="5"/><rect class="cls-7" x="63.23" y="130.69" width="239.17" height="136.99"/><rect class="cls-2" x="63.23" y="130.69" width="239.17" height="5.59"/><path class="cls-7" d="M289.75,133.49a1.54,1.54,0,1,1-1.54-1.54A1.54,1.54,0,0,1,289.75,133.49Z"/><path class="cls-7" d="M295.22,133.49a1.54,1.54,0,1,1-1.54-1.54A1.54,1.54,0,0,1,295.22,133.49Z"/><path class="cls-7" d="M300.69,133.49a1.54,1.54,0,1,1-1.54-1.54A1.54,1.54,0,0,1,300.69,133.49Z"/><rect class="cls-8" x="170.48" y="278.11" width="24.67" height="9.34"/><rect class="cls-5" x="51.08" y="295.51" width="297.42" height="5.52"/><rect class="cls-9" x="73.85" y="143.39" width="131.06" height="37.89" rx="10"/><circle class="cls-2" cx="93.12" cy="162" r="11.5"/><g class="cls-10"><path class="cls-11" d="M97.46,160.18a4.34,4.34,0,1,1-4.34-4.34A4.34,4.34,0,0,1,97.46,160.18Z"/><rect class="cls-11" x="85.77" y="163.56" width="14.69" height="14.69" rx="6.73"/></g><circle class="cls-12" cx="93.12" cy="162" r="11.5"/><rect class="cls-2" x="111.54" y="150.5" width="30.9" height="4.84" rx="2.22"/><rect class="cls-2" x="146.55" y="150.5" width="30.9" height="4.84" rx="2.22"/><rect class="cls-8" x="111.54" y="159.91" width="84.89" height="4.84" rx="2.22"/><rect class="cls-8" x="111.54" y="169.32" width="60.93" height="4.84" rx="2.22"/><rect class="cls-9" x="73.85" y="190.88" width="131.06" height="70.04" rx="10"/><rect class="cls-2" x="92.57" y="197.99" width="30.9" height="4.84" rx="2.22"/><rect class="cls-8" x="184.09" y="197.99" width="12.34" height="4.84" rx="2.22"/><rect class="cls-8" x="92.57" y="207.4" width="84.89" height="4.84" rx="2.22"/><circle class="cls-2" cx="85.15" cy="200.41" r="2.42"/><rect class="cls-2" x="92.57" y="219.48" width="30.9" height="4.84" rx="2.22"/><rect class="cls-8" x="184.09" y="219.48" width="12.34" height="4.84" rx="2.22"/><rect class="cls-8" x="92.57" y="228.89" width="84.89" height="4.84" rx="2.22"/><circle class="cls-2" cx="85.15" cy="221.9" r="2.42"/><rect class="cls-2" x="92.57" y="239.51" width="30.9" height="4.84" rx="2.22"/><rect class="cls-8" x="184.09" y="239.51" width="12.34" height="4.84" rx="2.22"/><rect class="cls-8" x="92.57" y="248.93" width="84.89" height="4.84" rx="2.22"/><circle class="cls-2" cx="85.15" cy="241.94" r="2.42"/><rect class="cls-2" x="211.49" y="143.39" width="81.25" height="56.33" rx="10"/><g class="cls-13"><polygon class="cls-7" points="208.08 199.72 244.95 173.09 255.53 182.07 274.65 162.85 297.52 184.02 292.75 199.72 208.08 199.72"/><circle class="cls-7" cx="261.85" cy="154.48" r="5.46"/></g><rect class="cls-8" x="212.22" y="204.67" width="80.53" height="55.83" rx="10"/><rect class="cls-7" x="218.98" y="234.07" width="21.57" height="6.07" rx="2.78"/><rect class="cls-7" x="243.43" y="234.07" width="21.57" height="6.07" rx="2.78"/><rect class="cls-2" x="218.98" y="210.42" width="16.11" height="6.07" rx="2.78"/><rect class="cls-2" x="218.98" y="245.44" width="37.81" height="6.07" rx="2.78"/><rect class="cls-7" x="270.75" y="210.42" width="15.23" height="12.86" rx="3"/><rect class="cls-14" x="142.01" y="87.92" width="245.97" height="143.99" rx="5"/><path class="cls-4" d="M265,155.51a26.44,26.44,0,0,1-26.41-26.41v-4.86a26.41,26.41,0,0,1,52.82,0v4.86A26.44,26.44,0,0,1,265,155.51Zm0-51.31a20.06,20.06,0,0,0-20,20v4.86a20,20,0,1,0,40.08,0v-4.86A20.06,20.06,0,0,0,265,104.2Z"/><rect class="cls-4" x="234.88" y="130.28" width="60.23" height="44.09"/><circle class="cls-8" cx="265" cy="145.96" r="6.23"/><rect class="cls-8" x="263.13" y="149.4" width="3.74" height="16.53"/><rect class="cls-15" x="184.09" y="187.55" width="161.82" height="28.86" rx="13.22"/><path class="cls-7" d="M211.86,209.57V194.38c0-2.57-4-2.58-4,0v15.19c0,2.57,4,2.58,4,0Z"/><path class="cls-7" d="M217.45,204.05l-11.51-6.65-1.64-1a2,2,0,0,0-2.74.72,2,2,0,0,0,.72,2.73l11.5,6.65,1.65.95a2,2,0,1,0,2-3.45Z"/><path class="cls-7" d="M215.43,196.45l-11.51,6.65-1.64,1a2,2,0,1,0,2,3.45l11.5-6.64,1.65-1a2,2,0,1,0-2-3.45Z"/><path class="cls-7" d="M239.81,209.57V194.38c0-2.57-4-2.58-4,0v15.19c0,2.57,4,2.58,4,0Z"/><path class="cls-7" d="M245.4,204.05l-11.51-6.65-1.65-1a2,2,0,0,0-2,3.45l11.51,6.65,1.65.95a2,2,0,1,0,2-3.45Z"/><path class="cls-7" d="M243.38,196.45l-11.51,6.65-1.65,1a2,2,0,0,0,2,3.45l11.51-6.64,1.65-1a2,2,0,1,0-2-3.45Z"/><path class="cls-7" d="M267.76,209.57V194.38c0-2.57-4-2.58-4,0v15.19c0,2.57,4,2.58,4,0Z"/><path class="cls-7" d="M273.35,204.05l-11.51-6.65-1.65-1a2,2,0,1,0-2,3.45l11.51,6.65,1.65.95a2,2,0,0,0,2-3.45Z"/><path class="cls-7" d="M271.33,196.45l-11.51,6.65-1.65,1a2,2,0,1,0,2,3.45l11.51-6.64,1.65-1a2,2,0,0,0-2-3.45Z"/><path class="cls-7" d="M295.71,209.57V194.38c0-2.57-4-2.58-4,0v15.19c0,2.57,4,2.58,4,0Z"/><path class="cls-7" d="M301.29,204.05l-11.5-6.65-1.65-1a2,2,0,1,0-2,3.45l11.51,6.65,1.64.95a2,2,0,0,0,2.74-.72,2,2,0,0,0-.72-2.73Z"/><path class="cls-7" d="M299.27,196.45l-11.5,6.65-1.65,1a2,2,0,1,0,2,3.45l11.51-6.64,1.64-1a2,2,0,1,0-2-3.45Z"/><path class="cls-7" d="M323.65,209.57V194.38c0-2.57-4-2.58-4,0v15.19c0,2.57,4,2.58,4,0Z"/><path class="cls-7" d="M329.24,204.05l-11.51-6.65-1.64-1a2,2,0,0,0-2.74.72,2,2,0,0,0,.72,2.73l11.5,6.65,1.65.95a2,2,0,1,0,2-3.45Z"/><path class="cls-7" d="M327.22,196.45l-11.51,6.65-1.64,1a2,2,0,1,0,2,3.45l11.5-6.64,1.65-1a2,2,0,1,0-2-3.45Z"/><path class="cls-4" d="M198.43,301H235.1a0,0,0,0,1,0,0v.27a2.92,2.92,0,0,1-2.92,2.92H201.35a2.92,2.92,0,0,1-2.92-2.92V301A0,0,0,0,1,198.43,301Z"/><ellipse class="cls-16" cx="206.49" cy="311.01" rx="206.49" ry="4"/><path class="cls-17" d="M43.19,178.34c-16.21-3.85-31.07-14.64-38-29.8s-4.92-34.49,6.39-46.73C24.74,87.57,46,85.43,65.19,82.57,108.64,76.08,153.79,59,178,22.3c3.32-5,5-13.72-.74-15.48A7.22,7.22,0,0,0,171.36,8c-6.15,3.94-7.23,13.13-3.74,19.54S178,37.83,185,39.88c15.61,4.58,32.36,1.5,48.53,3.13,24.08,2.44,46,17.72,60,37.2,6.45,9,10.33,20.47,7.88,31.28-1.9,8.35-7.38,15.74-8.16,24.27-1,10.61,5.64,20.58,13.71,27.55s17.72,11.87,26,18.6c13.31,10.85,22.9,27.65,20.94,44.71-2.3,20-19.87,35.48-39,41.59s-39.78,4.68-59.83,3.2"/><circle class="cls-7" cx="256.67" cy="44.02" r="27.62" transform="translate(59.9 214.6) rotate(-50.65)"/><path class="cls-8" d="M265.12,42.11a8.55,8.55,0,0,1-17-1.23V34.81a8.56,8.56,0,0,1,17.11,0v.8h2.72v-.8a11.27,11.27,0,1,0-22.54,0v6.07a11.27,11.27,0,0,0,22.47,1.23Z"/><rect class="cls-8" x="243.81" y="41.39" width="25.7" height="18.82"/><path class="cls-7" d="M259.33,48.08a2.66,2.66,0,1,1-2.66-2.67A2.67,2.67,0,0,1,259.33,48.08Z"/><rect class="cls-7" x="255.87" y="49.55" width="1.6" height="7.06"/><circle class="cls-7" cx="120.71" cy="62.88" r="27.62" transform="translate(31.78 165.92) rotate(-76.72)"/><path class="cls-8" d="M111.76,73.08a8.21,8.21,0,0,1,8.2-8.2h1.51a8.2,8.2,0,0,1,0,16.4H120A8.21,8.21,0,0,1,111.76,73.08Zm14.69,0A5.12,5.12,0,0,0,121.33,68H120.1a5.12,5.12,0,1,0,0,10.23h1.23A5.13,5.13,0,0,0,126.45,73.08Z"/><rect class="cls-8" x="119.23" y="44.02" width="2.97" height="22.02"/><rect class="cls-8" x="119.23" y="44.02" width="10.22" height="2.75"/><rect class="cls-8" x="119.23" y="50.27" width="7.22" height="2.75"/><rect class="cls-18" x="22.68" y="336.47" width="22" height="22" rx="3" transform="translate(133.8 13.04) rotate(22.2)"/><rect class="cls-18" x="400" y="246.49" width="22" height="22" rx="3" transform="translate(-53.73 118.74) rotate(-15.44)"/><rect class="cls-18" x="371.61" y="29.32" width="14.34" height="14.34" rx="3" transform="translate(124.57 319.66) rotate(-53.59)"/><rect class="cls-18" x="222.72" y="324.8" width="14.34" height="14.34" rx="3" transform="translate(-124.59 138.59) rotate(-26.68)"/><rect class="cls-18" x="107" y="320.66" width="11.34" height="11.34" rx="3" transform="translate(-230.99 293.46) rotate(-65.49)"/><rect class="cls-18" x="383.6" y="120.36" width="11.34" height="11.34" rx="3" transform="translate(113.11 427.94) rotate(-65.49)"/><rect class="cls-18" x="355.93" y="1.87" width="11.34" height="11.34" rx="3" transform="translate(204.72 333.43) rotate(-65.49)"/></g></g></svg>