<svg id="Layer_1" height="512" viewBox="0 0 512 512" width="512" xmlns="http://www.w3.org/2000/svg" data-name="Layer 1"><path d="m360.36 423.53v54.52a17.95 17.95 0 0 1 -35.9 0v-54.52z" fill="#4a5160"/><path d="m342.72 490.74a17.9 17.9 0 0 1 -5.26-12.69v-54.52h-13v54.52a17.952 17.952 0 0 0 24.47 16.725 17.883 17.883 0 0 1 -6.21-4.035z" fill="#6d7486"/><path d="m383.67 102.65v139.21a83.779 83.779 0 0 0 -83.13 145.48h-187.26a27.452 27.452 0 0 1 -27.45-27.46v-316.43a27.45 27.45 0 0 1 27.45-27.45h183.74v61.89a24.759 24.759 0 0 0 24.76 24.76z" fill="#e2e4ed"/><path d="m125.83 359.88v-316.43a27.45 27.45 0 0 1 27.45-27.45h-40a27.45 27.45 0 0 0 -27.45 27.45v316.43a27.452 27.452 0 0 0 27.45 27.46h40a27.452 27.452 0 0 1 -27.45-27.46z" fill="#ccd3df"/><circle cx="342.41" cy="314.77" fill="#50dd5a" r="60"/><path d="m302.41 314.77a60 60 0 0 1 50-59.155 60 60 0 1 0 0 118.31 60 60 0 0 1 -50-59.155z" fill="#49c160"/><path d="m383.67 241.86a83.778 83.778 0 1 1 -41.26-10.86 83.723 83.723 0 0 1 41.26 10.86zm18.74 72.91a60 60 0 1 0 -60 60 60 60 0 0 0 60-60z" fill="#ccd3df"/><path d="m383.67 102.65h-61.89a24.759 24.759 0 0 1 -24.76-24.76v-61.89z" fill="#ccd3df"/><g fill="#284268"><path d="m126.1 136.181h154.057a6 6 0 0 0 0-12h-154.057a6 6 0 0 0 0 12z"/><path d="m269.75 173a6 6 0 0 0 6 6h64.659a6 6 0 0 0 0-12h-64.659a6 6 0 0 0 -6 6z"/><path d="m238.958 280.56h-112.858a6 6 0 1 0 0 12h112.858a6 6 0 1 0 0-12z"/><path d="m238.958 332.686h-112.858a6 6 0 1 0 0 12h112.858a6 6 0 1 0 0-12z"/><path d="m144.669 240.313c-.044 0-.086-.007-.13-.007s-.086.006-.13.007a12.446 12.446 0 0 1 -12.3-12.429 6 6 0 0 0 -12 0 24.478 24.478 0 0 0 18.435 23.688v5.715a6 6 0 0 0 12 0v-5.715a24.435 24.435 0 0 0 -6-48.123 12.435 12.435 0 1 1 12.436-12.435 6 6 0 0 0 12 0 24.478 24.478 0 0 0 -18.436-23.688v-4.876a6 6 0 0 0 -12 0v4.876a24.436 24.436 0 0 0 6 48.123 12.432 12.432 0 0 1 .13 24.864z"/><path d="m220.991 178.579a12.449 12.449 0 0 1 12.435 12.435 6 6 0 0 0 12 0 24.478 24.478 0 0 0 -18.435-23.688v-4.876a6 6 0 0 0 -12 0v4.876a24.436 24.436 0 0 0 6 48.123 12.432 12.432 0 0 1 .131 24.864c-.044 0-.087-.007-.131-.007s-.086.006-.13.007a12.446 12.446 0 0 1 -12.3-12.429 6 6 0 0 0 -12 0 24.478 24.478 0 0 0 18.435 23.688v5.715a6 6 0 0 0 12 0v-5.715a24.436 24.436 0 0 0 -6-48.123 12.435 12.435 0 1 1 0-24.87z"/><path d="m133.271 93.262c1.465 0 2.638-.469 2.989-1.7l1.994-7.329h12.37l1.993 7.329c.352 1.231 1.524 1.7 2.99 1.7 2.521 0 5.863-1.583 5.863-3.752a3 3 0 0 0 -.118-.645l-10.963-35.765c-.644-2.052-3.283-3.049-5.98-3.049s-5.335 1-5.979 3.049l-10.9 35.762a3.057 3.057 0 0 0 -.117.645c-.005 2.172 3.337 3.755 5.858 3.755zm11.138-31.776 4.279 15.714h-8.558z"/><path d="m179.471 93.614c8.266 0 14.773-3.752 14.773-13.836v-26.617c0-1.934-2.345-2.755-4.572-2.755-2.345 0-4.573.821-4.573 2.755v26.617c0 3.986-2.111 5.862-5.628 5.862s-5.629-1.876-5.629-5.862v-26.617c0-1.934-2.344-2.755-4.571-2.755-2.346 0-4.574.821-4.574 2.755v26.617c.003 10.084 6.449 13.836 14.774 13.836z"/><path d="m204.39 93.262h10.376c8.091 0 14.423-3.752 14.423-13.836v-15.184c0-10.084-6.332-13.836-14.423-13.836h-10.376c-2.4 0-3.987 1.29-3.987 2.755v37.345c-.003 1.466 1.584 2.756 3.987 2.756zm5.159-34.883h5.217c3.283 0 5.277 1.876 5.277 5.863v15.184c0 3.987-1.994 5.863-5.277 5.863h-5.217z"/><path d="m239.568 93.262c2.286 0 4.573-.938 4.573-2.814v-37.287c0-1.934-2.287-2.755-4.573-2.755s-4.568.821-4.568 2.755v37.287c0 1.876 2.282 2.814 4.568 2.814z"/><path d="m250.533 58.614h8.091v31.834c0 1.876 2.286 2.814 4.572 2.814s4.574-.938 4.574-2.814v-31.834h8.089c1.76 0 2.756-1.935 2.756-4.163 0-1.934-.821-4.045-2.756-4.045h-25.326c-1.934 0-2.755 2.111-2.755 4.045 0 2.228.997 4.163 2.755 4.163z"/><path d="m432.174 314.771a89.785 89.785 0 0 0 -42.509-76.287v-135.839a6 6 0 0 0 -1.757-4.243l-86.645-86.645a6 6 0 0 0 -4.242-1.757h-183.741a33.492 33.492 0 0 0 -33.454 33.454v316.429a33.493 33.493 0 0 0 33.454 33.454h185.748a89.114 89.114 0 0 0 37.378 11v13.2h-11.95a6 6 0 0 0 -6 6v54.513a23.95 23.95 0 0 0 47.9 0v-54.516a6 6 0 0 0 -6-6h-11.95v-13.2a89.88 89.88 0 0 0 83.768-89.563zm-77.818 163.279a11.95 11.95 0 0 1 -23.9 0v-48.516h23.9zm65.818-163.279a77.767 77.767 0 1 1 -77.768-77.771 77.856 77.856 0 0 1 77.768 77.771zm-117.153-284.286 66.159 66.16h-47.4a18.777 18.777 0 0 1 -18.759-18.755zm-189.741 350.852a21.478 21.478 0 0 1 -21.454-21.454v-316.429a21.479 21.479 0 0 1 21.454-21.454h177.741v55.89a30.79 30.79 0 0 0 30.755 30.755h55.889v123.577a89.735 89.735 0 0 0 -95.418 149.115z"/><path d="m340.409 204.229h-64.659a6 6 0 0 0 0 12h64.659a6 6 0 0 0 0-12z"/><path d="m316.648 309.51a6 6 0 0 0 -8.484 8.49l20.679 20.678a6 6 0 0 0 8.484 0l39.321-39.321a6 6 0 0 0 -8.484-8.485l-35.079 35.078z"/><path d="m276.406 314.771a66 66 0 1 0 66-66 66.075 66.075 0 0 0 -66 66zm120 0a54 54 0 1 1 -54-54 54.061 54.061 0 0 1 54 54z"/></g></svg>