<svg id="Capa_1" enable-background="new 0 0 512 512" height="512" viewBox="0 0 512 512" width="512" xmlns="http://www.w3.org/2000/svg"><path d="m70.13 270.142h371.74v92.935h-371.74z" fill="#e2dfe2"/><path d="m421.667 270.142h20.203v92.935h-20.203z" fill="#d3ced5"/><path d="m90.333 231.756h331.333v38.386h-331.333z" fill="#544f57"/><path d="m407.524 231.756v14.142c0 5.579-4.523 10.102-10.102 10.102h-307.089v14.142h331.333v-38.386z" fill="#454045"/><path d="m90.333 100.435h331.333v38.386h-331.333z" fill="#544f57"/><path d="m407.524 100.435v14.142c0 5.579-4.523 10.102-10.102 10.102h-307.089v14.142h331.333v-38.386z" fill="#454045"/><path d="m70.13 138.821h371.74v92.935h-371.74z" fill="#e2dfe2"/><path d="m421.667 138.821h20.203v92.935h-20.203z" fill="#d3ced5"/><path d="m70.13 7.5h371.74v92.935h-371.74z" fill="#e2dfe2"/><path d="m421.667 7.5h20.203v92.935h-20.203z" fill="#d3ced5"/><circle cx="124.679" cy="53.967" fill="#aad540" r="15.152"/><circle cx="195.39" cy="53.967" fill="#e27a66" r="15.152"/><circle cx="124.679" cy="185.289" fill="#aad540" r="15.152"/><circle cx="195.39" cy="185.289" fill="#e27a66" r="15.152"/><path d="m195.39 300.447v54.549h30.305v-54.549c0-16.737 13.568-30.305 30.305-30.305 16.737 0 30.305 13.568 30.305 30.305v54.549h30.305v-54.549c0-33.474-27.136-60.61-60.61-60.61-33.474 0-60.61 27.136-60.61 60.61z" fill="#665e66"/><path d="m256 504.5h70.711c11.158 0 20.203-9.045 20.203-20.203v-109.098c0-11.158-9.045-20.203-20.203-20.203h-70.711-70.711c-11.158 0-20.203 9.045-20.203 20.203v109.098c0 11.158 9.045 20.203 20.203 20.203z" fill="#f4dd45"/><path d="m326.711 354.996h-19.193c11.158 0 20.203 9.045 20.203 20.203v109.098c0 11.158-9.045 20.203-20.203 20.203h19.193c11.158 0 20.203-9.045 20.203-20.203v-109.098c.001-11.158-9.045-20.203-20.203-20.203z" fill="#ecc32e"/><circle cx="256" cy="409.545" fill="#665e66" r="18.183"/><path d="m441.87 107.935c4.143 0 7.5-3.357 7.5-7.5v-92.935c0-4.143-3.357-7.5-7.5-7.5h-371.74c-4.142 0-7.5 3.357-7.5 7.5v92.935c0 4.143 3.358 7.5 7.5 7.5h12.704v23.387h-12.704c-4.142 0-7.5 3.357-7.5 7.5v92.935c0 4.143 3.358 7.5 7.5 7.5h12.7v23.384h-12.7c-4.142 0-7.5 3.357-7.5 7.5v92.94c0 4.143 3.358 7.5 7.5 7.5h87.848c-.253 1.503-.392 3.045-.392 4.619v109.098c0 15.275 12.428 27.703 27.703 27.703h141.422c15.276 0 27.704-12.428 27.704-27.703v-109.099c0-1.574-.139-3.116-.392-4.619h87.848c4.143 0 7.5-3.357 7.5-7.5v-92.94c0-4.143-3.357-7.5-7.5-7.5h-12.7v-23.384h12.7c4.143 0 7.5-3.357 7.5-7.5v-92.935c0-4.143-3.357-7.5-7.5-7.5h-12.703v-23.387h12.702zm-364.24 169.705h40.745c4.142 0 7.5-3.357 7.5-7.5s-3.358-7.5-7.5-7.5h-20.545v-23.384h128.295c-10.841 5.314-20.071 13.422-26.745 23.384h-45.692c-4.142 0-7.5 3.357-7.5 7.5s3.358 7.5 7.5 7.5h38.143c-2.544 7.135-3.941 14.81-3.941 22.808v47.049h-2.602c-7.617 0-14.526 3.091-19.539 8.084h-88.119zm231.479 22.807v47.049h-15.305v-47.049c0-20.846-16.959-37.805-37.805-37.805s-37.805 16.959-37.805 37.805v47.049h-15.304v-47.049c0-29.284 23.825-53.109 53.11-53.109 29.284 0 53.109 23.825 53.109 53.109zm-75.914 47.049v-47.049c0-12.574 10.23-22.805 22.805-22.805 12.574 0 22.805 10.23 22.805 22.805v47.049zm106.22 136.801c0 7.005-5.699 12.703-12.704 12.703h-141.422c-7.004 0-12.703-5.698-12.703-12.703v-109.098c0-7.005 5.699-12.703 12.703-12.703h10.102 30.305 60.609 30.305 10.102c7.005 0 12.704 5.698 12.704 12.703v109.098zm94.955-128.717h-88.12c-5.013-4.993-11.922-8.084-19.54-8.084h-2.602v-47.049c0-7.998-1.397-15.672-3.941-22.808h114.203zm-20.2-92.94h-101.55c-6.674-9.962-15.904-18.069-26.744-23.384h128.294zm-.003-131.319h-20.584c-4.143 0-7.5 3.357-7.5 7.5s3.357 7.5 7.5 7.5h40.787v77.935h-356.74v-77.935h280.912c4.143 0 7.5-3.357 7.5-7.5s-3.357-7.5-7.5-7.5h-260.709v-23.387h80.417c4.142 0 7.5-3.357 7.5-7.5s-3.358-7.5-7.5-7.5h-100.62v-77.934h356.74v77.935h-220.62c-4.142 0-7.5 3.357-7.5 7.5s3.358 7.5 7.5 7.5h200.417z"/><path d="m124.679 31.315c-12.491 0-22.652 10.162-22.652 22.652s10.162 22.652 22.652 22.652 22.653-10.162 22.653-22.652-10.163-22.652-22.653-22.652zm0 30.305c-4.22 0-7.652-3.433-7.652-7.652s3.433-7.652 7.652-7.652 7.653 3.433 7.653 7.652-3.434 7.652-7.653 7.652z"/><path d="m218.042 53.968c0-12.49-10.162-22.652-22.652-22.652s-22.652 10.162-22.652 22.652 10.161 22.652 22.652 22.652 22.652-10.162 22.652-22.652zm-22.652 7.652c-4.22 0-7.652-3.433-7.652-7.652s3.433-7.652 7.652-7.652 7.652 3.433 7.652 7.652-3.432 7.652-7.652 7.652z"/><path d="m124.679 162.636c-12.491 0-22.652 10.162-22.652 22.653 0 12.49 10.162 22.652 22.652 22.652s22.653-10.162 22.653-22.652c0-12.491-10.163-22.653-22.653-22.653zm0 30.305c-4.22 0-7.652-3.433-7.652-7.652s3.433-7.653 7.652-7.653 7.653 3.434 7.653 7.653-3.434 7.652-7.653 7.652z"/><path d="m195.39 162.636c-12.491 0-22.652 10.162-22.652 22.653 0 12.49 10.162 22.652 22.652 22.652s22.652-10.162 22.652-22.652c0-12.491-10.161-22.653-22.652-22.653zm0 30.305c-4.22 0-7.652-3.433-7.652-7.652s3.433-7.653 7.652-7.653 7.652 3.434 7.652 7.653-3.432 7.652-7.652 7.652z"/><path d="m256 383.861c-14.162 0-25.683 11.521-25.683 25.684 0 11.553 7.669 21.346 18.183 24.563v27.966c0 4.143 3.358 7.5 7.5 7.5 4.143 0 7.5-3.357 7.5-7.5v-27.966c10.513-3.217 18.183-13.01 18.183-24.563 0-14.162-11.522-25.684-25.683-25.684zm0 36.367c-5.891 0-10.683-4.792-10.683-10.683s4.792-10.684 10.683-10.684 10.683 4.793 10.683 10.684-4.792 10.683-10.683 10.683z"/></svg>