<?xml version="1.0" encoding="iso-8859-1"?>
<!-- Generator: Adobe Illustrator 19.0.0, SVG Export Plug-In . SVG Version: 6.00 Build 0)  -->
<svg version="1.1" id="Layer_1" xmlns="http://www.w3.org/2000/svg" xmlns:xlink="http://www.w3.org/1999/xlink" x="0px" y="0px"
	 viewBox="0 0 512 512" style="enable-background:new 0 0 512 512;" xml:space="preserve">
<path style="fill:#694B4B;" d="M135.758,251.99c-2.197-30.913-25.123-56.113-56.113-56.113s-53.916,25.2-56.113,56.113
	c-1.309,18.43,0,48.097-8.016,64.129c0,0,8.016,16.032,37.579,24.07l53.262-0.022c29.401-8.016,37.417-24.048,37.417-24.048
	C135.758,300.087,137.067,270.42,135.758,251.99z"/>
<path style="fill:#5A4146;" d="M71.629,251.99c-30.892-15.446-24.534-45.709-2.525-55.075
	c-25.532,4.982-43.633,27.788-45.572,55.075c-1.309,18.43,0,48.097-8.016,64.129c0,0,8.016,16.032,37.579,24.07l25.318-0.01
	L71.629,251.99z"/>
<path style="fill:#E6AF78;" d="M138.496,359.463l-25.941-12.97c-5.432-2.716-8.863-8.268-8.863-14.341l0.001-24.05H55.597v24.05
	c0,6.072-3.431,11.623-8.862,14.339l-25.942,12.971c-8.147,4.074-13.293,12.4-13.293,21.509v55.389h144.29v-55.388
	C151.79,371.864,146.644,363.537,138.496,359.463z"/>
<path style="fill:#D5DCED;" d="M151.79,380.973c0-9.109-5.147-17.436-13.294-21.51l-25.941-12.97
	c-1.493-0.746-2.793-1.741-3.953-2.867l-9.2,10.24c-10.866,12.094-28.647,12.093-39.513,0l-9.201-10.241
	c-1.161,1.126-2.461,2.121-3.952,2.867l-25.943,12.971c-8.146,4.073-13.292,12.4-13.292,21.508v55.39h144.29L151.79,380.973
	L151.79,380.973z"/>
<path style="fill:#F0C087;" d="M79.645,324.135L79.645,324.135c-18.371,0-34.337-10.3-42.437-25.44
	c-5.506-10.292-1.916-23.203,7.627-29.924c1.831-1.29,3.723-2.761,5.584-4.422c5.732-5.115,9.089-10.509,10.981-14.462
	c1.621-3.386,5.356-5.298,8.994-4.371c28.303,7.212,47.551,21.953,54.487,27.924c1.843,1.587,2.904,3.923,2.717,6.348
	C125.685,304.599,104.947,324.135,79.645,324.135z"/>
<path style="fill:#E6AF78;" d="M124.872,273.432c-6.941-5.975-26.174-20.697-54.447-27.909c-3.656-0.933-7.407,0.991-9.038,4.393
	c-1.435,2.991-3.806,6.803-7.325,10.693c-0.001,0.009-0.003,0.018-0.004,0.027c-1.092,1.238-2.255,2.478-3.638,3.713
	c-1.785,1.592-3.581,3.033-5.357,4.261c-11.313,7.826-13.012,22.181-6.079,33.085c7.294,11.471,19.342,19.62,33.369,21.765
	c-9.597-6.529-16.756-15.381-16.756-31.388v-6.194c1.821-1.344,3.654-2.685,5.497-4.329c4.455-3.976,8.345-8.574,11.464-13.525
	c21.592,6.738,36.23,17.96,41.779,22.732c1.519,1.332,3.649,3.214,8.06,7.352c2.829-4.464,4.804-13.155,5.201-18.33
	C127.785,277.355,126.712,275.016,124.872,273.432z"/>
<g>
	<path style="fill:#C7CFE2;" d="M12.387,366.522c-3.088,4.097-4.887,9.126-4.887,14.45v55.388h32.065v-40.391
		c0-4.87-2.214-9.477-6.017-12.519L12.387,366.522z"/>
	<path style="fill:#C7CFE2;" d="M146.904,366.522c3.088,4.097,4.887,9.126,4.887,14.45v55.388h-32.065v-40.391
		c0-4.87,2.214-9.477,6.017-12.519L146.904,366.522z"/>
</g>
<path style="fill:#5A4146;" d="M368.226,227.942v5.626c0,6.893,1.111,13.74,3.291,20.279l12.741,38.224h24.048v-88.177h-16.032
	C378.993,203.893,368.226,214.66,368.226,227.942z"/>
<path style="fill:#694B4B;" d="M478.601,242.435l-14.182,49.636l-64.129-56.113c-8.854,0-16.032-7.178-16.032-16.032l0,0
	c0-13.282,10.767-24.048,24.048-24.048h72.145v33.344C480.452,233.69,479.829,238.138,478.601,242.435z"/>
<rect x="400.29" y="316.118" style="fill:#E6AF78;" width="48.1" height="48.1"/>
<path style="fill:#D5DCED;" d="M487.058,346.614l-38.673-11.049l-24.046,28.65l-24.048-28.65l-38.671,11.049
	c-10.324,2.95-17.442,12.386-17.442,23.123v66.623H504.5v-66.622C504.5,359,497.382,349.564,487.058,346.614z"/>
<path style="fill:#F0C087;" d="M424.339,324.135L424.339,324.135c-26.563,0-48.097-21.534-48.097-48.097l0,0
	c0-10.265,4.078-20.11,11.336-27.369l7.895-7.895c3.078-3.078,7.287-4.848,11.637-4.711c25.625,0.808,48.307,6.298,60.706,18.407
	c3.035,2.964,4.619,7.111,4.619,11.353v10.214C472.436,302.601,450.902,324.135,424.339,324.135z"/>
<path style="fill:#E6AF78;" d="M400.29,276.038c0-9.247,7.766-16.597,16.994-16.009c16.183,1.032,40.196,3.737,54.928,10.824
	c-0.481-3.382-1.934-13.977-4.397-16.383c-12.398-12.109-35.08-17.599-60.705-18.407h-0.001l0,0
	c-4.35-0.137-8.559,1.634-11.637,4.711l-7.895,7.895c-7.259,7.259-11.336,17.103-11.336,27.369l0,0
	c0,21.934,14.697,40.402,34.77,46.185c-6.681-8.244-10.722-18.707-10.722-30.153v-16.032H400.29z"/>
<path style="fill:#C7CFE2;" d="M472.435,393.623c0-6.378,2.534-12.495,7.044-17.005l20.635-20.635
	c2.758,3.942,4.386,8.688,4.386,13.754v66.623h-32.065V393.623z"/>
<path style="fill:#FF507D;" d="M371.167,348.524l-67.07-24.389L256,340.167l-48.097-16.032l-67.07,24.389
	c-12.672,4.608-21.107,16.651-21.107,30.134v57.702h272.548v-57.702C392.274,365.175,383.839,353.132,371.167,348.524z"/>
<path style="fill:#D23C69;" d="M383.646,356.812c5.413,5.81,8.628,13.547,8.628,21.847v57.703h-48.097v-26.799
	c0-8.504,3.378-16.66,9.391-22.673L383.646,356.812z"/>
<path style="fill:#5A4146;" d="M344.177,158.82V91.667c0-8.854-7.178-16.032-16.032-16.032h-96.194
	c-35.417,0-64.129,28.712-64.129,64.129v19.056c0,8.616,1.389,17.175,4.114,25.349l2.668,8.005c0.817,2.452,1.234,5.02,1.234,7.605
	v4.114h160.323v-4.114c0-2.585,0.417-5.153,1.234-7.605l2.668-8.005C342.788,175.996,344.177,167.436,344.177,158.82z"/>
<path style="fill:#694B4B;" d="M207.903,108.201c0,17.985,14.58,32.566,32.566,32.566h4.509l2.177,63.127h89.007v-4.114
	c0-2.585,0.417-5.152,1.234-7.605l2.668-8.005c2.725-8.174,4.114-16.733,4.114-25.349V91.667c0-8.855-7.178-16.032-16.032-16.032
	H240.47C222.483,75.635,207.903,90.215,207.903,108.201z"/>
<rect x="207.9" y="268.018" style="fill:#E6AF78;" width="96.19" height="72.14"/>
<path style="fill:#D29B6E;" d="M207.903,304.301c14.398,7.511,30.734,11.818,48.097,11.818s33.699-4.307,48.097-11.818v-36.279
	h-96.194L207.903,304.301L207.903,304.301z"/>
<g>
	<path style="fill:#D23C69;" d="M256,340.167l-25.566,25.566c-3.436,3.436-9.116,3.049-12.054-0.822l-26.509-34.929l6.934-14.612
		c2.046-4.312,7.383-5.892,11.447-3.388L256,340.167z"/>
	<path style="fill:#D23C69;" d="M256,340.167l25.566,25.566c3.436,3.436,9.116,3.049,12.054-0.822l26.509-34.929l-6.934-14.612
		c-2.046-4.312-7.383-5.892-11.447-3.388L256,340.167z"/>
</g>
<path style="fill:#F0C087;" d="M256,292.071L256,292.071c-44.272,0-80.161-35.889-80.161-80.161v-8.016l13.34-8.893
	c6.69-4.46,10.709-11.969,10.709-20.01v-27.21c0,0,64.13-24.049,112.226,16.033c0,0,0,5.458,0,11.173
	c0,8.041,4.018,15.553,10.709,20.014l13.339,8.893v8.016C336.161,256.181,300.272,292.071,256,292.071z"/>
<path style="fill:#D23C69;" d="M128.354,356.812c-5.413,5.81-8.628,13.547-8.628,21.847v57.703h48.097v-26.799
	c0-8.504-3.378-16.66-9.391-22.673L128.354,356.812z"/>
<path style="fill:#E6AF78;" d="M238.036,167.048c17.431-2.186,47.943-3.441,74.077,7.938c0-3.214,0-11.173,0-11.173
	c-48.097-40.082-112.226-16.033-112.226-16.033v27.21c0,8.041-4.018,15.549-10.709,20.01l-13.339,8.893v8.016
	c0,40.986,30.779,74.728,70.474,79.52h0.002c-13.833-14.404-22.379-33.924-22.379-55.471v-52.986
	C223.935,174.848,229.976,168.059,238.036,167.048z"/>
<path d="M445.012,250.677c1.077,0.539,2.221,0.793,3.348,0.793c2.751,0,5.4-1.52,6.714-4.147c1.853-3.705,0.351-8.21-3.354-10.063
	c-17.422-8.71-50.087-8.811-51.469-8.811c-4.142,0-7.5,3.358-7.5,7.5s3.358,7.5,7.5,7.5
	C408.68,243.45,433.153,244.748,445.012,250.677z"/>
<path d="M489.112,344.041l-30.975-8.85c-1.337-0.382-2.271-1.62-2.271-3.011v-10.339c2.52-1.746,4.924-3.7,7.171-5.881
	c10.89-10.568,16.887-24.743,16.887-39.915v-14.267l2.995-5.989c3.287-6.575,5.024-13.936,5.024-21.286v-38.65
	c0-4.142-3.358-7.5-7.5-7.5H408.27c-26.244,0-47.596,21.352-47.596,47.596v0.447c0,6.112,1.445,12.233,4.178,17.699l3.841,7.682
	v12.25c0,19.414,9.567,36.833,24.058,47.315l0.002,10.836c0,1.671,0,2.363-6.193,4.133l-15.114,4.318l-43.721-15.898
	c0.157-2.063-0.539-4.161-2.044-5.742l-13.971-14.678v-24.64c1.477-1.217,2.933-2.467,4.344-3.789
	c17.625-16.52,27.733-39.844,27.733-63.991v-19.678c5.322-11.581,8.019-23.836,8.019-36.457v-80.19c0-4.142-3.358-7.5-7.5-7.5
	H232.037c-39.51,0-71.653,32.144-71.653,71.653v16.039c0,12.621,2.697,24.876,8.019,36.457v16.931
	c0,28.036,12.466,53.294,32.077,69.946v25.22l-13.971,14.678c-1.505,1.581-2.201,3.679-2.044,5.742l-46.145,16.779
	c-3.344,1.216-6.451,2.863-9.272,4.858l-7.246-3.623c21.57-9.389,28.403-22.594,28.731-23.25c1.056-2.111,1.056-4.597,0-6.708
	c-5.407-10.814-6.062-30.635-6.588-46.561c-0.175-5.302-0.341-10.311-0.658-14.771c-2.557-35.974-29.905-63.103-63.615-63.103
	s-61.059,27.128-63.615,63.103c-0.317,4.461-0.483,9.47-0.658,14.773c-0.526,15.925-1.182,35.744-6.588,46.558
	c-1.056,2.111-1.056,4.597,0,6.708c0.328,0.656,7.147,13.834,28.76,23.234l-20.127,10.063C6.684,358.175,0,368.99,0,381.02v55.409
	c0,4.142,3.358,7.5,7.5,7.5s7.5-3.358,7.5-7.5V381.02c0-6.312,3.507-11.987,9.152-14.81l25.063-12.531l8.718,8.285
	c6.096,5.793,13.916,8.688,21.739,8.688c7.821,0,15.645-2.897,21.739-8.688l8.717-8.284l8.172,4.086
	c-3.848,6.157-6.032,13.377-6.032,20.94v57.725c0,4.142,3.358,7.5,7.5,7.5s7.5-3.358,7.5-7.5v-57.725
	c0-10.296,6.501-19.578,16.178-23.097l48.652-17.691l20.253,30.381c2.589,3.884,6.738,6.375,11.383,6.835
	c0.518,0.051,1.033,0.076,1.547,0.076c4.098,0,8.023-1.613,10.957-4.546l12.356-12.356v78.124c0,4.142,3.358,7.5,7.5,7.5
	s7.5-3.358,7.5-7.5v-78.124l12.356,12.356c2.933,2.934,6.858,4.547,10.957,4.547c0.513,0,1.029-0.025,1.546-0.076
	c4.646-0.46,8.795-2.951,11.384-6.835l20.254-30.38l48.651,17.691c9.676,3.519,16.178,12.801,16.178,23.097v57.725
	c0,4.142,3.358,7.5,7.5,7.5s7.5-3.358,7.5-7.5v-57.725c0-10.428-4.143-20.208-11.093-27.441l1.853-0.529
	c1.869-0.534,4.419-1.265,6.979-2.52l19.149,19.149v69.066c0,4.142,3.358,7.5,7.5,7.5s7.5-3.358,7.5-7.5v-69.066l19.016-19.016
	c1.011,0.514,2.073,0.948,3.191,1.267l30.976,8.85c7.07,2.02,12.009,8.567,12.009,15.921v62.044c0,4.142,3.358,7.5,7.5,7.5
	s7.5-3.358,7.5-7.5v-62.044C512,360.37,502.588,347.892,489.112,344.041z M111.229,330.819l0.001-8.945
	c8.725-6.007,15.662-14.457,19.801-24.449c0.899,6.458,2.226,12.576,4.27,17.918C132.314,318.982,125.244,325.773,111.229,330.819z
	 M31.02,252.52c0.958-13.476,6.343-25.894,15.163-34.968c8.899-9.156,20.793-14.198,33.491-14.198s24.591,5.042,33.491,14.198
	c8.82,9.074,14.205,21.492,15.163,34.968c0.296,4.177,0.458,9.047,0.628,14.203c0.015,0.443,0.03,0.892,0.045,1.338
	c-8.16-12.572-20.762-21.837-37.045-27.069c-15.043-4.833-27.981-4.534-28.527-4.52c-1.964,0.055-3.828,0.877-5.191,2.291
	l-13.532,14.034c-2.875,2.982-2.789,7.73,0.193,10.605c2.982,2.875,7.73,2.788,10.605-0.193l11.26-11.677
	c9.697,0.474,40.894,4.102,53.027,30.819c-3.053,19.689-19.975,34.31-40.115,34.31c-22.396,0-40.615-18.22-40.615-40.615
	c0-4.142-3.358-7.5-7.5-7.5c-0.42,0-0.83,0.043-1.231,0.11c0.022-0.645,0.043-1.291,0.065-1.93
	C30.562,261.569,30.723,256.698,31.02,252.52z M24.045,315.341c2.048-5.354,3.376-11.486,4.275-17.959
	c4.136,9.917,11.063,18.383,19.795,24.423v8.989C34.086,325.746,27.049,319.016,24.045,315.341z M68.267,351.091l-6.975-6.628
	c1.177-2.205,1.824-4.705,1.824-7.324v-7.994c5.232,1.635,10.794,2.517,16.558,2.517c5.757,0,11.316-0.886,16.557-2.512
	l-0.001,7.988c0,2.62,0.646,5.121,1.824,7.327l-6.974,6.627C84.683,357.17,74.662,357.169,68.267,351.091z M183.403,209.145v-18.608
	c0-1.129-0.255-2.244-0.746-3.261c-4.826-9.994-7.273-20.598-7.273-31.518v-16.039c0-31.239,25.415-56.653,56.653-56.653h104.769
	v72.692c0,10.92-2.447,21.524-7.273,31.518c-0.491,1.017-0.746,2.132-0.746,3.261v21.355c0,20.311-8.165,39.15-22.991,53.047
	c-1.851,1.734-3.772,3.36-5.758,4.875c-0.044,0.03-0.086,0.063-0.129,0.094c-13.889,10.545-30.901,15.67-48.667,14.519
	C213.201,281.964,183.403,248.896,183.403,209.145z M250.271,299.395c1.977,0.128,3.942,0.191,5.901,0.191
	c14.341,0,28.143-3.428,40.538-9.935v13.7l-40.615,27.762l-40.615-27.762v-14C225.989,295.032,237.756,298.585,250.271,299.395z
	 M225.632,360.056c-0.052,0.052-0.173,0.175-0.418,0.149c-0.244-0.024-0.34-0.167-0.381-0.229l-23.325-34.988l7.506-7.887
	l35.385,24.187L225.632,360.056z M287.357,359.977c-0.041,0.062-0.137,0.205-0.381,0.229c-0.245,0.031-0.365-0.098-0.418-0.149
	l-18.767-18.767l35.385-24.188l7.507,7.887L287.357,359.977z M383.693,274.029v-14.021c0-1.165-0.271-2.313-0.792-3.354
	l-4.633-9.266c-1.697-3.395-2.594-7.195-2.594-10.991v-0.447c0-17.974,14.623-32.596,32.596-32.596h64.673v31.15
	c0,5.034-1.19,10.075-3.441,14.578l-3.786,7.572c-0.521,1.042-0.792,2.189-0.792,3.354v16.038c0,11.08-4.38,21.432-12.333,29.15
	c-7.949,7.714-18.45,11.788-29.537,11.446C401.35,315.991,383.693,296.874,383.693,274.029z M422.603,331.635
	c0.578,0.018,1.151,0.026,1.727,0.026c5.692,0,11.248-0.86,16.536-2.501v3.02c0,1.496,0.188,2.962,0.542,4.371l-17.1,17.099
	l-17.02-17.019c0.297-1.349,0.465-2.826,0.464-4.455l-0.001-3.165C412.474,330.561,417.452,331.481,422.603,331.635z"/>
<path d="M472.423,380.814c-4.142,0-7.5,3.358-7.5,7.5v48.115c0,4.142,3.358,7.5,7.5,7.5s7.5-3.358,7.5-7.5v-48.115
	C479.923,384.172,476.565,380.814,472.423,380.814z"/>
<path d="M39.577,390.728c-4.142,0-7.5,3.358-7.5,7.5v38.201c0,4.142,3.358,7.5,7.5,7.5s7.5-3.358,7.5-7.5v-38.201
	C47.077,394.086,43.719,390.728,39.577,390.728z"/>
<path d="M207.46,154.518c0-0.255,0.168-0.473,0.392-0.507c9.667-1.457,28.85-3.705,48.725-2.38
	c23.388,1.557,40.328,7.428,50.349,17.45c2.929,2.929,7.678,2.929,10.606,0c2.929-2.929,2.929-7.678,0-10.606
	c-28.366-28.366-87.715-22.943-111.917-19.295c-7.623,1.149-13.155,7.6-13.155,15.339v17.278c0,4.142,3.358,7.5,7.5,7.5
	s7.5-3.358,7.5-7.5L207.46,154.518L207.46,154.518z"/>
<path d="M167.884,396.853c-4.142,0-7.5,3.358-7.5,7.5v32.077c0,4.142,3.358,7.5,7.5,7.5s7.5-3.358,7.5-7.5v-32.077
	C175.384,400.211,172.026,396.853,167.884,396.853z"/>
<path d="M344.306,396.853c-4.142,0-7.5,3.358-7.5,7.5v32.077c0,4.142,3.358,7.5,7.5,7.5s7.5-3.358,7.5-7.5v-32.077
	C351.806,400.211,348.448,396.853,344.306,396.853z"/>
<g>
</g>
<g>
</g>
<g>
</g>
<g>
</g>
<g>
</g>
<g>
</g>
<g>
</g>
<g>
</g>
<g>
</g>
<g>
</g>
<g>
</g>
<g>
</g>
<g>
</g>
<g>
</g>
<g>
</g>
</svg>
