<?xml version="1.0" encoding="utf-8"?>
<!-- Generator: Adobe Illustrator 24.3.0, SVG Export Plug-In . SVG Version: 6.00 Build 0)  -->
<svg version="1.1" id="b411f001-b16f-4358-a5a6-150c98662c8c"
	 xmlns="http://www.w3.org/2000/svg" xmlns:xlink="http://www.w3.org/1999/xlink" x="0px" y="0px" viewBox="0 0 987.6 787.4"
	 style="enable-background:new 0 0 987.6 787.4;" xml:space="preserve">
<style type="text/css">
	.st0{fill:#FD8181;}
	.st1{opacity:0.1;fill:#FD8181;enable-background:new    ;}
	.st2{opacity:0.9;fill:#47C7F0;enable-background:new    ;}
	.st3{opacity:0.1;enable-background:new    ;}
	.st4{opacity:0.3;fill:#FD8181;enable-background:new    ;}
	.st5{opacity:0.2;fill:#FFFFFF;enable-background:new    ;}
	.st6{fill:url(#SVGID_1_);}
	.st7{fill:#1D2366;}
	.st8{fill:#FFB0B1;}
	.st9{fill:#C7DAF5;}
	.st10{fill:#FFFFFF;}
	.st11{opacity:3.000000e-02;enable-background:new    ;}
	.st12{fill:#DCE7FF;}
	.st13{fill:#591D4B;}
	.st14{fill:#BE8B87;}
	.st15{opacity:0.1;fill:#FFFFFF;enable-background:new    ;}
	.st16{fill:#EFC8C4;}
	.st17{fill:#727A9C;}
</style>
<path class="st0" d="M59,745.1c0,0-42.3-2.5-37.3,27.1c0,0-1,5.2,3.8,7.6c0,0,0.1-2.2,4.3-1.5c1.5,0.3,3.1,0.3,4.6,0.2
	c2.1-0.1,4-1,5.6-2.3l0,0c0,0,11.9-4.9,16.5-24.3c0,0,3.4-4.2,3.3-5.3l-7.1,3c0,0,2.4,5.2,0.5,9.4c0,0-0.2-9.2-1.6-9
	c-0.3,0-3.7,1.8-3.7,1.8s4.2,9,1,15.5c0,0,1.2-11-2.3-14.8l-5,2.9c0,0,4.9,9.3,1.6,16.8c0,0,0.9-11.6-2.6-16.1l-4.6,3.5
	c0,0,4.6,9.1,1.8,15.4c0,0-0.4-13.5-2.8-14.5c0,0-4,3.5-4.6,5c0,0,3.2,6.6,1.2,10.1c0,0-1.2-9-2.2-9c0,0-4,6-4.4,10
	c0,0,0.2-6.1,3.4-10.6c-2.3,0.4-4.4,1.5-6.1,3.1c0,0,0.6-4.2,7.1-4.6c0,0,3.3-4.5,4.2-4.8c0,0-6.4-0.5-10.3,1.2c0,0,3.4-4,11.4-2.2
	l4.5-3.7c0,0-8.4-1.2-12,0.1c0,0,4.1-3.5,13.2-1l4.9-2.9c0,0-7.2-1.5-11.5-1c0,0,4.5-2.4,12.9,0.2l3.5-1.6c0,0-5.3-1-6.8-1.2
	s-1.6-0.6-1.6-0.6c3.3-0.6,6.8-0.2,9.9,1.1C51.7,748.3,59.2,745.5,59,745.1z"/>
<ellipse class="st1" cx="29.9" cy="782.3" rx="29.9" ry="5.1"/>
<path class="st0" d="M987.2,677.8c0,0-23.8-1.4-21,15.3c-0.3,1.7,0.6,3.5,2.1,4.3c0,0,0-1.2,2.4-0.8c0.9,0.1,1.7,0.2,2.6,0.1
	c1.2-0.1,2.3-0.5,3.2-1.3l0,0c0,0,6.7-2.8,9.3-13.7c0,0,1.9-2.4,1.8-3l-4,1.7c0,0,1.4,2.9,0.3,5.3c0,0-0.1-5.2-0.9-5.1
	c-0.2,0-2.1,1-2.1,1s2.4,5,0.6,8.7c0,0,0.7-6.2-1.3-8.4l-2.8,1.7c0,0,2.8,5.2,0.9,9.5c0,0,0.5-6.5-1.5-9.1l-2.6,2c0,0,2.6,5.1,1,8.7
	c0,0-0.2-7.6-1.6-8.2c-1,0.8-1.8,1.8-2.6,2.8c0,0,1.8,3.7,0.7,5.7c0,0-0.7-5.1-1.2-5.1c0,0-2.2,3.3-2.5,5.7c0.1-2.1,0.8-4.2,1.9-6
	c-1.3,0.2-2.5,0.9-3.4,1.8c0,0,0.3-2.4,4-2.6c0,0,1.8-2.5,2.3-2.7c0,0-3.6-0.3-5.8,0.7c0,0,1.9-2.2,6.5-1.2l2.5-2.1
	c0,0-4.8-0.7-6.8,0.1c0,0,2.3-2,7.4-0.5l2.8-1.7c-2.1-0.5-4.3-0.6-6.5-0.5c0,0,2.5-1.4,7.3,0.1l2-0.9c0,0-3-0.6-3.8-0.7
	s-0.9-0.3-0.9-0.3c1.9-0.3,3.8-0.1,5.6,0.6C983.2,679.6,987.2,678,987.2,677.8z"/>
<ellipse class="st1" cx="970.8" cy="698.8" rx="16.9" ry="2.8"/>
<path class="st0" d="M938.1,723.2c0,0-28.8-1.7-25.3,18.5c-0.4,2.1,0.7,4.2,2.6,5.2c0,0,0-1.5,3-1c1,0.2,2.1,0.2,3.1,0.2
	c1.4-0.1,2.8-0.7,3.8-1.6l0,0c0,0,8.1-3.3,11.2-16.6c0,0,2.3-2.9,2.2-3.6l-4.9,2.1c0,0,1.7,3.5,0.4,6.4c0,0-0.2-6.3-1.1-6.1
	c-0.2,0-2.5,1.2-2.5,1.2s2.9,6.1,0.7,10.5c0,0,0.8-7.5-1.6-10.1l-3.4,2c0,0,3.3,6.3,1.1,11.5c0,0,0.6-7.9-1.8-11l-3.1,2.4
	c0,0,3.1,6.2,1.2,10.5c0,0-0.2-9.2-1.9-9.9c0,0-2.7,2.4-3.1,3.4c0,0,2.2,4.5,0.8,6.9c0,0-0.8-6.1-1.5-6.2c0,0-2.7,4-3,6.8
	c0.1-2.6,0.9-5.1,2.3-7.2c-1.6,0.3-3,1-4.1,2.1c0,0,0.4-2.9,4.8-3.1c0,0,2.2-3.1,2.8-3.3c0,0-4.4-0.4-7,0.8c0,0,2.3-2.7,7.8-1.5
	l3.1-2.5c0,0-5.7-0.8-8.2,0.1c0,0,2.8-2.4,9-0.7l3.3-2c0,0-4.9-1-7.8-0.7c0,0,3.1-1.7,8.8,0.1l2.4-1.1c0,0-3.6-0.7-4.6-0.8
	s-1.1-0.4-1.1-0.4c2.3-0.4,4.6-0.1,6.7,0.8C933.3,725.4,938.2,723.6,938.1,723.2z"/>
<ellipse class="st1" cx="918.3" cy="748.6" rx="20.4" ry="3.4"/>
<ellipse class="st1" cx="805.5" cy="726.4" rx="92.3" ry="14.4"/>
<ellipse class="st1" cx="513.3" cy="767.9" rx="103.8" ry="10.4"/>
<ellipse class="st1" cx="199" cy="763.1" rx="78.7" ry="4.9"/>
<path class="st1" d="M338.8,34.3C368,8.3,413.9,2.9,455.6,5C586.7,11.5,705,74.8,807.4,146.4c37.1,25.9,73.5,53.8,97.6,89.5
	c49,72.6,34.4,173.3-33.6,233.1c-23.2,20.4-51.2,36-80.1,49.8c-51.3,24.6-106.6,44.4-164.7,50c-41.5,4-83.5,0.8-124.7-4.8
	c-115.2-15.6-228.3-50.2-323.1-109.3c-41.6-26-80.8-58.2-97.9-100.1s-6.2-95.1,36.3-119.9c17.6-10.3,38.6-14.9,59.1-19.3
	c30.3-6.4,61-12.7,88.3-25.8c28.2-13.5,61.6-39.5,56-69.3C314.5,88.3,309.6,60.3,338.8,34.3z"/>
<path class="st2" d="M580.9,391.8V200.8h26v-57H420.6v57h26v190.9c-73.5,27.9-122.1,98.4-122.1,177c0,104.5,84.8,189.3,189.3,189.3
	S703,673.3,703,568.8C703,490.1,654.4,419.7,580.9,391.8z"/>
<rect x="446.5" y="200.2" class="st3" width="134.3" height="2.6"/>
<path class="st0" d="M407.8,563.7c0,0,114-2,171-30.5s89.6-3.1,86.5,14.2s-19.3,50.9-84.5,55S407.8,563.7,407.8,563.7z"/>
<path class="st3" d="M407.8,563.7c0,0,114-2,171-30.5s89.6-3.1,86.5,14.2s-19.3,50.9-84.5,55S407.8,563.7,407.8,563.7z"/>
<path class="st0" d="M359,545.4c0,0-12.2,169,147.6,172s158.8-170,158.8-170s-59,64.1-198.5,11.2C466.9,558.6,394.6,539.3,359,545.4
	z"/>
<path class="st3" d="M664.8,548c-3.2,38.9-23.9,160.8-158.2,158.2C375,703.7,360,588.6,358.9,548.1c-0.7,21.7-0.1,166.5,147.7,169.3
	c159.8,3,158.8-170,158.8-170S665.2,547.6,664.8,548z"/>
<circle class="st4" cx="507.5" cy="472.5" r="20.7"/>
<ellipse transform="matrix(0.1602 -0.9871 0.9871 0.1602 51.6365 839.8315)" class="st4" cx="519.4" cy="389.6" rx="12.8" ry="12.8"/>
<circle class="st4" cx="490.7" cy="315.5" r="12.8"/>
<path class="st5" d="M380.8,488.5c-1.1,8.7-0.9,19.7,6.9,23.8c-6.5-3.4,20.3-42.2,16.5-50.1C396.1,445.2,381.8,480.4,380.8,488.5z"
	/>
<circle class="st4" cx="480.4" cy="85" r="20.7"/>
<circle class="st4" cx="542.6" cy="49.5" r="15.4"/>
<circle class="st4" cx="498.1" cy="8" r="8"/>
<path class="st2" d="M283.8,263.2H116.3v49.7h25.5v387.7c-0.4,32.2,25.3,58.6,57.5,59c32.2,0.4,58.6-25.3,59-57.5c0-0.5,0-1,0-1.5
	V312.9h25.5V263.2z"/>
<path class="st0" d="M180.6,400.7c0,0,41.5-14.8,53-4.3c0,0-16.8,24.7-32.2,23.7S180.6,400.7,180.6,400.7z"/>
<path class="st3" d="M180.6,400.7c0,0,41.5-14.8,53-4.3c0,0-16.8,24.7-32.2,23.7S180.6,400.7,180.6,400.7z"/>
<path class="st0" d="M233.6,396.5v281.4c0,19.6-15.9,35.5-35.5,35.5l0,0c-19.6,0-35.5-15.9-35.5-35.5V396.5c0,0,17.1-4.6,33.2,5.3
	S233.6,396.5,233.6,396.5z"/>
<rect x="141.8" y="312.6" class="st3" width="116.5" height="2.3"/>
<path class="st3" d="M198.1,696.2L198.1,696.2c-19.6,0-35.5-15.9-35.5-35.5c0,0,0,0,0,0v17.8c0,19.6,15.9,35.5,35.5,35.5l0,0
	c19.6,0,35.5-15.9,35.5-35.5v-17.8C233.6,680.3,217.7,696.2,198.1,696.2C198.1,696.2,198.1,696.2,198.1,696.2z"/>
<circle class="st4" cx="198.1" cy="361.6" r="7.2"/>
<circle class="st4" cx="221.8" cy="335.9" r="4.6"/>
<circle class="st4" cx="189.5" cy="326.7" r="4.6"/>
<path class="st5" d="M150.8,453.9c-1.1,8.7-0.9,19.7,6.9,23.8c-6.6-3.4,20.3-42.2,16.5-50.1C166.1,410.7,151.8,445.8,150.8,453.9z"
	/>
<circle class="st4" cx="213.1" cy="214.5" r="17.6"/>
<circle class="st4" cx="160.3" cy="184.3" r="13.1"/>
<circle class="st4" cx="198" cy="149.2" r="6.8"/>
<linearGradient id="SVGID_1_" gradientUnits="userSpaceOnUse" x1="903.355" y1="7.7936" x2="903.355" y2="530.1993" gradientTransform="matrix(1 0 0 -1 -106.19 733.7)">
	<stop  offset="0" style="stop-color:#808080;stop-opacity:0.25"/>
	<stop  offset="0.54" style="stop-color:#808080;stop-opacity:0.12"/>
	<stop  offset="1" style="stop-color:#808080;stop-opacity:0.1"/>
</linearGradient>
<path class="st6" d="M895.9,451.3c0,0-15.3-76.3-9.5-85.8c0,0,0.2-8.8-0.1-20.1c0-0.4,0-0.9,0-1.3c1,0.7,2.1,1.3,3.2,1.9
	c5.4,2.8,11.6,3.6,17.6,2.3l-4.7-5.2c-1.1-1.2-2.3-2.6-2.5-4.2c-0.1-1.6,0.3-3.1,1-4.5c4.4-11.1,4.7-25.2-3.9-33.7
	c-7.2-7.2-8.9-16.4-16.7-22.9c-5.7-4.8-8.8-11.8-11.8-18.6c-2.5-5.7-5-11.5-6.5-17.6c-1.1-4.8-1.6-9.7-3.1-14.3s-4.4-9.1-8.9-11.2
	c-1.7-0.6-3.3-1.3-4.8-2.1c-1.9-1.3-3.1-3.4-4.5-5.2c-7-9.3-30.6-3.8-41.8,0c-3,1-5.8,2.5-8.2,4.6l0.1-0.2l0.3-0.4
	c-1.2,1-2.3,2.2-3.1,3.5c-1.6,2.6-2.3,5.6-3.7,8.3c-1.6,3.3-10.7,12.5-6.8,16.2c0.3,0.2,0.6,0.5,0.9,0.6c1.5,0.6,3.1,0.8,4.6,0.5
	c-0.1,0.1-0.1,0.3-0.2,0.4c-1.3,3.3-2,6.8-2,10.3c0.1,15.4,12.7,27.8,28.1,27.7c2.9,0,5.8-0.4,8.6-1.3c0.1,0.4,0.1,0.7,0.2,1
	c0,0.1,0,0.3,0.1,0.4l0,0l-0.5,0.7l-0.1-0.1l-14.6,20.4c-2.2,1.6-15.1,10.9-15.8,17.8c-0.8,7.6-1.5,16.6-1.5,16.6l-0.1,1.9
	c-1.3,1.1-3,1.5-4.6,1.3c-4.5-0.8-4.5,16.8-4.5,16.8s-3,2.8-5.1,0.4s-7.6,5.8-7.6,5.8l-34.5,1.5l0,0h-0.8l-1.9-5.8
	c-0.4-1.2-1.7-1.9-3-1.5c-0.1,0-0.3,0.1-0.4,0.2l-0.1,0.1c-0.1,0-0.2,0.1-0.2,0.2c0,0-0.1,0.1-0.1,0.1c-0.1,0.1-0.1,0.1-0.2,0.2
	c0,0-0.1,0.1-0.1,0.1l-0.1,0.1l0,0c-0.4,0.6-0.6,1.4-0.3,2.1l1.6,4.9c-6.7,1.3-13.5,5.1-7.9,15.5l-28.1-5.2l9.1,7.6l47,9.7
	c-0.6,1.1-0.2,2.7,1.7,5c8.3,9.8,23.6,12.5,29.7,13.2c1.6,3.6,3.6,7,6,10.2l-0.5,9.8c0,0-15.5,74.6-18.4,78.4
	c1.4-1.6,2.7-3.4,3.9-5.2c-4.5,15.3-10.8,36.3-12.5,39.5c-2.7,5-5.1,25.3-2.1,26.6c1,0.4,3.6,0.2,7.4-0.1v1.7l-0.2,63.8
	c0,0,0.8,39.1-1.3,42.8s-2.7,11.5-2.7,11.5s-8.4,15.4-15,21.6l-0.2,0.1l-0.2-1.5c0,0-8,10.1-25.6,9.5c0,0-10.6,6.9,5.1,7.3
	s35.8-0.6,35.8-0.6s14-21.4,25.8-18.6v16.2h3.6v-16.3c3.4-2.2,5.7-5.7,6.4-9.7c0.6-4.1-1-8.3-4.2-10.9c-1.4-1.3-2.3-3.2-2.3-5.1
	l-0.1,0.1c0-0.3-0.1-0.7-0.1-1c-1-8.4-2.3-25.6,2.2-38.4c6.2-17.5,8.2-41.9,3.6-56.4c-1.5-4.6-2.7-9.4-3.6-14.1
	c-0.1-0.6-0.2-1.2-0.3-1.7c3.1,0.4,6.2,1.1,9.2,1.9c10.6,2.9,33.6,3.4,53.3,3.3c0,0.5,0.1,1.1,0.2,1.7c0.4,3.9,1.1,7.8,2.2,11.6
	c2.5,7.5,3.6,40.2,3.6,40.2s3.2,27,1.5,37.9c-1,6.1-1.8,12.2-2.4,18.4v0.1c0,0-5.2,14.9-9,23c-0.1,0.2-0.2,0.4-0.3,0.6
	c-1,0.1-2,0.3-3,0.7c0,0-5.1,10.2-10.2,11.9s-3.4,7.3,8.2,5.2s29-3.7,29-3.7l0.8-10.4l3.5-4.4l-0.9,10.4l3.8-0.7l-0.5-12.7l5.8-7.3
	c0,0,7-6.2-3.4-18.5v0.3c-0.1-0.2-0.2-0.4-0.3-0.5v-0.1c-1.7-2.7-3.1-7.7-0.6-16.5c4.5-16,7.2-30.5,7.2-30.5s10.2-38.9-2.1-57.3h0.5
	c-1.3-2.6-2.1-5.3-2.6-8.2c-0.1-0.3-0.1-0.7-0.2-1c9-0.5,17.9-2.2,25.2-5.7C903.8,558.4,899.5,466,895.9,451.3z M781,386.9v0.2
	l-1.9,0.1L781,386.9z M774.7,387.8c-0.3,0.1-0.6,0.2-0.8,0.4c-0.8,1.1-1.3,2.4-1.5,3.8l-2.9-0.7c0,0-2-0.4-5-0.9l-1.4-1.4
	C766.9,388.7,770.9,388.3,774.7,387.8z"/>
<polygon class="st7" points="870.6,704 869.5,717.1 873.2,716.4 872.7,702.1 "/>
<path class="st8" d="M786,641.4c-4.5,12.7-3.2,29.9-2.2,38.3c0.4,3.1,0.7,5,0.7,5s-6.7,15.2-7.2,15.8s-19.7,12.2-19.7,12.2
	l-13.4,7.8c0,0-13.5-5.9-7-8c1.3-0.5,2.5-1.3,3.5-2.4c6.5-6.2,14.7-21.5,14.7-21.5s0.5-7.8,2.6-11.5s1.3-42.7,1.3-42.7l0.2-63.5
	v-8.3l25.4,0.2c0.2,2.8,0.5,5.6,1.1,8.4c0.9,4.8,2.1,9.5,3.5,14.1C794,599.7,792.1,624,786,641.4z"/>
<path class="st3" d="M784.5,684.7c0,0-6.7,15.2-7.2,15.8s-19.7,12.2-19.7,12.2l-13.4,7.8c0,0-13.5-5.9-7-8c1.3-0.5,2.5-1.3,3.5-2.4
	l0.6,4.1l4.5-0.2l38-34.3C784.2,682.8,784.5,684.7,784.5,684.7z"/>
<path class="st7" d="M784,680.6l-38.3,34.5l-4.5,0.2l-0.9-6.5c0,0-7.8,10-25.1,9.5c0,0-10.4,6.9,5,7.2s35.1-0.6,35.1-0.6
	s13.7-21.3,25.2-18.5v16.1h3.5v-16.3c3.3-2.2,5.6-5.7,6.3-9.7c0.6-4.1-0.9-8.2-4.1-10.9C784.9,684.3,784.1,682.5,784,680.6z"/>
<path class="st8" d="M874.1,661.3c-2.5,8.8-1.1,13.8,0.6,16.5v0.1c2.2,3.3,3.7,7,4.5,10.9l0.2,0.8L861.9,715l-9.5,3.7
	c0,0-15.2-5.2-12.4-6.7c0.7-0.4,1.8-2.3,3-5c3.7-8,8.8-22.9,8.8-22.9V684c0.5-6.1,1.4-12.2,2.3-18.3c1.7-10.9-1.4-37.8-1.4-37.8
	s-1.1-32.7-3.5-40.1c-1.1-3.8-1.8-7.6-2.2-11.6c-0.5-4.7-0.6-8.5-0.6-8.5s10-13.9,28.4,1.1c1.5,1.2,2.8,2.6,3.8,4.2
	c12.7,18,2.5,57.8,2.5,57.8S878.6,645.3,874.1,661.3z"/>
<path class="st3" d="M879.3,689.5l-17.4,25.4l-9.5,3.7c0,0-15.2-5.2-12.4-6.7c0.7-0.4,1.8-2.3,3-5c6.4,0,9.8,6.1,9.8,6.1l8.2-1.3
	c0,0,10.8-21.2,13.2-22.5s0.4-9.7,0.4-9.7v-2.1l0.2,0.2v0.1c2.2,3.3,3.7,7,4.5,10.9L879.3,689.5z"/>
<path class="st7" d="M853.3,713.6c0,0-4.6-8.5-13.5-5.4c0,0-5,10.2-10,11.9s-3.3,7.2,8,5.2s28.4-3.7,28.4-3.7l0.7-10.4l11.5-14.7
	c0,0,6.9-6.2-3.3-18.5v2.1c0,0,2,8.3-0.4,9.7s-13.2,22.5-13.2,22.5L853.3,713.6z"/>
<path class="st3" d="M784.9,562.8c0.2,2.8,0.5,5.6,1.1,8.4c-10.5-1.5-20.2-0.8-26.5-0.3v-8.3L784.9,562.8z"/>
<path class="st3" d="M879.7,575.4c0,0-14.9,0.7-32.6,0.9c-0.5-4.7-0.6-8.5-0.6-8.5s10-13.9,28.4,1.1c1.5,1.2,2.8,2.6,3.8,4.2
	C879,573.8,879.3,574.6,879.7,575.4z"/>
<path class="st7" d="M879.7,573.7c0,0-65.1,3.2-85-2.4s-39.5-0.8-42.5-2s-0.5-21.5,2-26.5s16.9-55.7,16.9-55.7l13.7-71.6l14.5-4
	l1-0.3l25.2-7L844,399c0,0,36.7,143.4,33.6,154c-1.1,4.1-1.3,8.3-0.5,12.5C877.6,568.3,878.4,571.1,879.7,573.7z"/>
<path class="st9" d="M737,366.4c0,0-13,13.9-3.2,21.7s16.3,0.8,16.3,0.8L737,366.4z"/>
<path class="st3" d="M737,366.4c0,0-13,13.9-3.2,21.7s16.3,0.8,16.3,0.8L737,366.4z"/>
<path class="st8" d="M842.1,274.8c0,0-1.5,1.4-3.8,3.6c-3.3,3-8.1,7.5-12.4,11.3c-6,5.2-10.8,9-9.1,5.7s1.4-8.9,0.5-14.2l-0.2-1
	c-0.7-3.9-1.7-7.7-2.9-11.5c0,0,9.6-12.4,14.9-17.3c2-1.8,3.4-2.6,3.4-1.3c0.1,1.7,1.4,5.5,3,9.7c0.1,0.1,0.1,0.2,0.2,0.4
	c1.1,2.8,2.3,5.7,3.4,8.1C840.8,271.9,842.1,274.8,842.1,274.8z"/>
<path class="st3" d="M835.8,260c-1.8,9.9-8.9,18-18.5,21.2c-0.7-4.2-1.8-8.4-3.1-12.5c0,0,18.1-23.4,18.4-18.7
	C832.8,251.8,834.2,255.8,835.8,260z"/>
<path class="st3" d="M815.5,287.4l2.3-3.3c0,0,1.5,9.5,7.3,5.3s6,31.4,6,31.4l-6.1,91.6l-44.3-2.6l1.2-44.2l5-22.3l12.4-32.4
	l7.4-10.7L815.5,287.4z"/>
<path class="st7" d="M831.1,321.4l-5.5,82.8l-0.6,8.8l-24.7-1.5l-1-0.1l-18.6-1.1L782,366l5-22.3l12.4-32.4l7.4-10.7l8.8-12.7
	l2.3-3.3c0,0,1.5,9.5,7.3,5.3l0.1-0.1l0,0C830.9,286.3,831.1,321.4,831.1,321.4z"/>
<path class="st10" d="M787.7,336c0,0-2.2,4.6-6.7,3.9s-4.5,16.7-4.5,16.7s-3,2.8-5,0.4s-7.4,5.8-7.4,5.8l-33.8,1.5
	c0,0,15,6.9,12.1,27.6c0,0,51-3.2,52.7-8S787.7,336,787.7,336z"/>
<path class="st11" d="M787.7,336c0,0-2.2,4.6-6.7,3.9s-4.5,16.7-4.5,16.7s-3,2.8-5,0.4s-7.4,5.8-7.4,5.8l-33.8,1.5
	c0,0,15,6.9,12.1,27.6c0,0,51-3.2,52.7-8S787.7,336,787.7,336z"/>
<polygon class="st10" points="689.5,375.1 698.4,382.8 771.7,398.1 762.6,388.9 "/>
<path class="st10" d="M815.7,290.3c-1.2,1.8-4.7,11.4-7.6,19.7c-2.4,6.9-4.5,13-4.5,13s-4.7,30.8-7.1,36.4s-1.1,27.3-1.1,27.3
	l-9,53.6c0,0-4.1,27.7-10.4,44.2c-6.2,16.2-13.2,23.8-13.4,24.1c2.8-3.8,18-78.1,18-78.1l5-93.7c0,0,0.7-8.9,1.5-16.5
	s15.8-18,15.8-18l14.5-20.6C818.9,283.6,817.9,287,815.7,290.3z"/>
<path class="st8" d="M777.8,410.8c0,0-21.3-0.9-31.7-13.4s23.9-5,23.9-5l8.9,2L777.8,410.8z"/>
<path class="st3" d="M877.7,553.1c-1.1,4.1-1.3,8.3-0.5,12.5c-23.3,1.7-48.3-4.7-48.3-4.7c-4.6,4.3-16.9,10.6-16.9,10.6l-6.7-82.8
	c-4.3-11.1-5.9-69.6-5.9-69.6s0.4-3.1,1-7.6c0-0.1,0-0.2,0-0.3c1.7-12.8,5-36.8,6.6-40.1c2.2-4.5-6.9-16.3-6.9-16.3l4.1-35.3
	l0.5-4.2c8.7-3.9,15.4-16.3,15.4-16.3l5.1-9l0,0c5.6-3.6,5.9,31.5,5.9,31.5l-5.5,82.8l18.5-5.1C844.1,399.1,880.8,542.5,877.7,553.1
	z"/>
<path class="st10" d="M901.6,558.9c-25.4,12.6-71.6,0.9-71.6,0.9c-4.6,4.3-16.9,10.6-16.9,10.6l-6.7-82.8
	c-4.3-11.1-5.9-69.6-5.9-69.6s5.4-43.6,7.6-48.1c0.7-1.3,0.3-3.2-0.4-5.3c-3.8-9.9-5.2-20.6-4.1-31.1l1.8-15.1l0.5-4.2
	c8.7-3.9,15.4-16.3,15.4-16.3l4.7-8.1l8.6-15l4-7.1l0.7,0.6l5.3,4.8c0,0,2.2,1.8,5.6,4.7c7.3,6.1,19.9,16.9,26.3,23.5
	c5.7,5.8,7.5,28.5,8,45.5c0.3,11.2,0.1,20,0.1,20c-5.8,9.5,9.3,85.6,9.3,85.6C897.3,466.8,901.6,558.9,901.6,558.9z"/>
<path class="st11" d="M852.8,297.6c0,0-17.5,33.2-15.4,45.8s7.8,26.9,5,30.2c-1.9,2.6-5,4.1-8.2,4.1c-2.8,0.2-10.2,5.4-10.2,5.9
	s-6.9,0.6-13,3.2s-15.2,4.1-15.2,4.1s-17.6-0.6-19.3,1.1s-3.3,11.7,0.2,19.7s7.4,13.9,10.4,15s21.7-5.2,36.9-6.7
	s31.8-13.5,31.8-13.5s18.2-6.5,21.3-17.5s-3.9-71.1-3.9-71.1S867.8,290,852.8,297.6z"/>
<path class="st11" d="M850.6,294.8c0,0-17.4,33.2-15.4,45.8s7.8,26.9,5,30.2c-1.9,2.6-5,4.1-8.2,4.1c-2.8,0.2-10.2,5.4-10.2,5.9
	s-6.9,0.5-13,3.1s-15.2,4.1-15.2,4.1s-17.6-0.5-19.3,1.1s-3.3,11.7,0.2,19.7s7.4,13.9,10.4,15s21.7-5.2,36.9-6.7
	s31.7-13.5,31.7-13.5s18.2-6.5,21.3-17.4s-3.9-71.1-3.9-71.1S865.6,287.2,850.6,294.8z"/>
<path class="st10" d="M852.2,295.9c0,0-17.4,33.2-15.4,45.8s7.8,26.9,5,30.2c-1.9,2.6-5,4.1-8.2,4.1c-2.8,0.2-10.2,5.4-10.2,5.9
	s-6.9,0.6-13,3.2s-15.2,4.1-15.2,4.1s-17.6-0.6-19.3,1.1s-3.3,11.7,0.2,19.7s7.4,13.9,10.4,15s21.7-5.2,36.9-6.7
	s31.7-13.5,31.7-13.5s18.2-6.5,21.3-17.5s-3.9-71.1-3.9-71.1S867.3,288.3,852.2,295.9z"/>
<path class="st3" d="M851.9,385c0,0-13.9-2.8-9.1,1.9s4.8,8.7,10.8,8.5S851.9,385,851.9,385z"/>
<path class="st3" d="M875.4,485c0,0-6.3,4.3,5.8,14.1S875.4,485,875.4,485z"/>
<path class="st3" d="M863.4,520.1c0,0.6-2.2,20.4,6.1,25.4S863.4,520.1,863.4,520.1z"/>
<path class="st8" d="M730.9,364.2c-6.7,0.2-21.3,2.3-13.7,16.4c6.7,12.4,17.9,4.1,24.1-2.2C739.8,372.5,736,367.4,730.9,364.2z"/>
<path class="st8" d="M742,377.6L742,377.6z"/>
<path class="st8" d="M741.4,378.2c0.1-0.1,0.2-0.2,0.3-0.3C741.6,378,741.5,378.1,741.4,378.2z"/>
<path class="st3" d="M850,278.1c-7.1,4.9-13.1,9-14.3,9.9c-3.2,2.4-9.3,16.3-13.2,23.4c-3.1,5.7-13.3,7.2-17.2,7.5l0.5-4.2
	c8.7-3.9,15.4-16.3,15.4-16.3l17.3-30.2l5.9,5.4C844.4,273.5,846.7,275.3,850,278.1z"/>
<path class="st12" d="M850,277.6c-7.1,4.9-13.1,9-14.3,9.9c-3.2,2.4-9.3,16.3-13.2,23.4c-3.1,5.7-13.3,7.2-17.2,7.5l0.5-4.2
	c8.7-3.9,15.4-16.3,15.4-16.3l17.3-30.2l5.9,5.4C844.5,272.9,846.7,274.7,850,277.6z"/>
<path class="st8" d="M836.3,253.9c0,1.9-0.2,3.9-0.6,5.8c-0.7,3.5-2.2,6.9-4.2,9.9c-8.6,12.5-25.8,15.7-38.3,7.1
	c-12.5-8.6-15.7-25.8-7.1-38.3s25.8-15.7,38.3-7.1C831.8,236.3,836.3,244.8,836.3,253.9z"/>
<path class="st3" d="M884.4,346.6c-3.8-2.3-6.8-5.6-8.9-9.6c-1.5-3.1-2.6-6.6-5.2-8.8c-2.4-1.9-5.6-2.4-8.5-3.3
	c-9.8-2.9-18-11.8-18.3-22c-0.1-4.8,1.3-9.6,0.7-14.3c-0.4-2.7-1.5-5.2-3.1-7.4c-0.8-1-1.7-2-2.7-2.9c-1.3-1.2-2.7-2.4-3.8-3.7
	c-0.8-0.8-1.4-1.7-2-2.6c-0.4-0.8-0.8-1.6-1.1-2.5c-1.8-5.7-0.2-12.4-2.2-18.2c0-0.1-0.1-0.2-0.1-0.3c-0.8-2-2.3-4.1-4.5-4.2
	s-4.1,1.6-6.1,2.5c-4.4,1.7-9.1-1.2-12.7-4.1s-7.7-6.3-12.4-5.6c-3,0.4-5.5,2.5-8.3,3.6c-0.7,0.2-1.3,0.4-2,0.6
	c5.7-14.1,21.7-21,35.9-15.3c10.4,4.2,17.3,14.3,17.3,25.6c0,1.9-0.2,3.9-0.6,5.8c0.1,0.1,0.1,0.2,0.2,0.4c1.1,2.8,2.3,5.7,3.4,8.1
	l5.3,4.8c0,0,2.2,1.8,5.6,4.7c7.3,6.1,19.9,16.9,26.3,23.5C882.1,306.9,883.9,329.6,884.4,346.6z"/>
<path class="st13" d="M784.8,226.1c1.3-2.7,2-5.7,3.6-8.3c2.3-3.8,6.4-6.1,10.6-7.5c10.9-3.8,34-9.2,40.9,0c1.4,1.8,2.5,3.9,4.4,5.2
	c1.5,0.8,3.1,1.5,4.7,2.1c4.4,2.1,7.2,6.6,8.7,11.2s1.9,9.5,3,14.3c1.4,6.1,3.9,11.8,6.3,17.5c2.9,6.8,6,13.7,11.5,18.5
	c7.6,6.5,9.3,15.7,16.3,22.9c8.4,8.5,8.1,22.5,3.8,33.6c-0.7,1.4-1.1,3-1,4.5c0.4,1.6,1.3,3.1,2.5,4.2l4.6,5.2
	c-11.2,2.4-22.7-2.9-28.1-13c-1.6-3.1-2.6-6.6-5.2-8.8c-2.4-2-5.6-2.4-8.5-3.3c-9.8-2.9-18-11.8-18.3-22c-0.1-4.8,1.3-9.6,0.7-14.3
	c-0.4-2.7-1.5-5.2-3.1-7.3c-2.6-3.3-6.4-5.6-8.5-9.3c-3.5-6.2-0.8-14.3-3.4-21c-0.8-2-2.3-4.1-4.5-4.2s-4.1,1.7-6.1,2.5
	c-4.4,1.7-9.1-1.2-12.7-4.1s-7.7-6.3-12.4-5.6c-3.1,0.4-5.5,2.5-8.3,3.6c-2.1,0.8-6.3,1.5-8.1-0.2
	C774.3,238.6,783.2,229.4,784.8,226.1z"/>
<path class="st3" d="M879.2,333.3c-1.5-3.1-2.6-6.6-5.2-8.8c-2.4-2-5.6-2.4-8.5-3.3c-9.8-2.9-18-11.8-18.3-22
	c-0.2-4.8,1.3-9.6,0.7-14.3c-0.4-2.7-1.5-5.2-3.1-7.4c-2.6-3.3-6.4-5.6-8.5-9.3c-3.5-6.2-0.8-14.3-3.4-21c-0.8-2-2.3-4.1-4.5-4.2
	s-4.1,1.6-6.1,2.5c-4.4,1.7-9.1-1.2-12.7-4.1s-7.7-6.3-12.4-5.6c-3,0.4-5.5,2.5-8.3,3.6c-2.1,0.8-6.3,1.5-8.1-0.2
	c-3.8-3.7,5.1-12.9,6.7-16.2c1.3-2.7,2-5.7,3.6-8.3l0.3-0.4c-1.2,1-2.2,2.2-3,3.5c-1.6,2.6-2.3,5.6-3.6,8.3
	c-1.6,3.3-10.5,12.5-6.7,16.2c1.8,1.8,6,1,8.1,0.2c2.8-1.1,5.2-3.2,8.3-3.6c4.6-0.6,8.7,2.7,12.4,5.6s8.3,5.8,12.7,4.1
	c2.1-0.8,3.9-2.6,6.1-2.5s3.8,2.2,4.5,4.2c2.5,6.7-0.1,14.8,3.4,21c2.1,3.6,5.9,5.9,8.5,9.3c1.7,2.2,2.7,4.7,3.1,7.4
	c0.7,4.7-0.8,9.5-0.7,14.3c0.3,10.2,8.5,19.1,18.3,22c3,0.9,6.2,1.3,8.5,3.3c2.7,2.2,3.7,5.7,5.2,8.8c5.4,10.1,16.9,15.4,28.1,13
	l-2.2-2.4C893,347.1,883.5,341.8,879.2,333.3z"/>
<path class="st3" d="M815.1,290.9c-1.2,1.8-4.7,11.4-7.6,19.7c-2.7-1-5.2-7.8-5.2-7.8l14.5-20.6
	C818.3,284.2,817.3,287.6,815.1,290.9z"/>
<path class="st12" d="M815.7,290.3c-1.2,1.8-4.7,11.4-7.6,19.7c-2.7-1-5.2-7.8-5.2-7.8l14.5-20.6C818.9,283.6,817.9,287,815.7,290.3
	z"/>
<path class="st14" d="M731.3,385.3l-8-25.4c-0.4-1.3,0.3-2.6,1.5-3c0,0,0,0,0,0l0,0c1.2-0.4,2.6,0.3,3,1.5c0,0,0,0,0,0l8,25.4
	l-0.8,5.3L731.3,385.3z"/>
<path class="st15" d="M724,357.7L724,357.7c1.3-0.4,2.6,0.3,3,1.5c0,0,0,0,0,0l8,25.4l-0.6,4l0.6,0.6l0.8-5.3l-8-25.4
	c-0.4-1.2-1.7-1.9-3-1.6c0,0,0,0,0,0l0,0c-0.5,0.2-0.9,0.5-1.2,0.9C723.7,357.8,723.8,357.8,724,357.7z"/>
<polygon class="st16" points="731.3,385.3 735.8,383.9 735.1,388.2 735,389.2 733.7,387.8 "/>
<path class="st17" d="M733.7,387.8c0.1-0.1,0.2-0.2,0.3-0.2c0.1-0.1,0.3-0.1,0.4,0c0.1,0.1,0.1,0.2,0.2,0.2c0.1,0.2,0.3,0.4,0.6,0.4
	l-0.1,1L733.7,387.8z"/>
<path class="st8" d="M723.2,368.9c0,0,16.2-0.1,12.3,6.8s-9.7,7.7-9.7,7.7L723.2,368.9z"/>
</svg>
