<svg id="Community_driven_science_gateways" data-name="Community driven science gateways" xmlns="http://www.w3.org/2000/svg" viewBox="0 0 1045 917"><defs><style>.cls-1{fill:#f9cd74;}.cls-2{fill:#f9b659;}.cls-3{fill:#eb9850;}.cls-4{fill:#294f61;}.cls-17,.cls-5,.cls-6{fill:none;}.cls-5{stroke:#294f61;stroke-linecap:round;stroke-linejoin:round;stroke-width:3.68px;}.cls-17,.cls-6{stroke:#000;}.cls-12,.cls-17,.cls-6{stroke-miterlimit:10;}.cls-7{fill:#fcbd5e;}.cls-8{font-size:21px;font-family:ArialMT, Arial;}.cls-9{font-family:Arial-BoldMT, Arial;font-weight:700;}.cls-10{letter-spacing:-0.04em;}.cls-11{letter-spacing:-0.07em;}.cls-12{fill:#4086f4;stroke:#282828;stroke-width:3px;}.cls-13{fill:#4175df;}.cls-14{fill:#4254b6;}.cls-15{fill:#fff5f5;}.cls-16{fill:#e3e7ea;}.cls-17{stroke-width:1.22px;}.cls-18{fill:#415a6b;}.cls-19{fill:#ced6e0;}.cls-20{fill:#06c3ef;}.cls-21{fill:#ffd15c;}.cls-22{fill:#f7b64c;}.cls-23{fill:#f05540;}.cls-24{fill:#f3705a;}.cls-25{fill:#f3f3f3;}.cls-26{fill:#2ddefc;}.cls-27{fill:#adb3ba;}.cls-28{fill:#e8eae9;}.cls-29{fill:#55c0eb;}.cls-30{fill:#344a5e;}.cls-31{fill:#8ad7f8;}.cls-32{fill:#4fb0e0;}.cls-33{fill:#2d4354;}.cls-34{fill:#05b2ce;}.cls-35{fill:#44e2fc;}.cls-36{fill:#445c71;}.cls-37{fill:#668892;}.cls-38{fill:#74e1c5;}.cls-39{fill:#394f63;}.cls-40{fill:#4f6f7f;}.cls-41{fill:#dbdbdb;}.cls-42{fill:#e5e5e5;}.cls-43{fill:#d1d1d1;}.cls-44{fill:#4398d1;}.cls-45{fill:#3e8cc7;}</style></defs><polygon class="cls-1" points="498.82 63.1 536.93 85.62 536.93 130.66 498.82 153.18 460.71 130.66 460.71 85.62 498.82 63.1"/><polygon class="cls-2" points="536.93 85.62 498.82 108.14 460.71 85.62 498.82 63.1 536.93 85.62"/><polygon class="cls-3" points="498.82 108.14 498.82 153.18 536.93 130.66 536.93 85.62 498.82 108.14"/><path class="cls-3" d="M467.64,128.93a1.73,1.73,0,0,1-1.73-1.73v-6.93a1.73,1.73,0,0,1,3.46,0v6.93A1.73,1.73,0,0,1,467.64,128.93Z"/><path class="cls-3" d="M474.57,132.39a1.72,1.72,0,0,1-1.73-1.73v-6.93a1.73,1.73,0,0,1,3.46,0v6.93A1.72,1.72,0,0,1,474.57,132.39Z"/><path class="cls-4" d="M498.82,109.87a1.71,1.71,0,0,1-.88-.24l-32.25-19a1.74,1.74,0,1,1,1.77-3l31.36,18.54,37.23-22a1.73,1.73,0,1,1,1.77,3h0L499.7,109.63A1.69,1.69,0,0,1,498.82,109.87Z"/><path class="cls-4" d="M498.82,139.32a1.73,1.73,0,0,1-1.73-1.73V108.14a1.74,1.74,0,0,1,3.47,0v29.45A1.73,1.73,0,0,1,498.82,139.32Z"/><path class="cls-4" d="M498.82,154.92c-.95,0-1.73-1.19-1.73-2.64v-13.2c0-1.45.78-2.64,1.73-2.64s1.74,1.19,1.74,2.64v13.2C500.56,153.73,499.78,154.92,498.82,154.92Z"/><path class="cls-4" d="M498.82,154.92a1.72,1.72,0,0,1-.88-.25l-38.11-22.52a1.72,1.72,0,0,1-.85-1.49v-45a1.72,1.72,0,0,1,.85-1.49l38.11-22.52a1.73,1.73,0,0,1,1.76,0l38.12,22.52a1.75,1.75,0,0,1,.85,1.49v45a1.75,1.75,0,0,1-.85,1.49L499.7,154.67A1.7,1.7,0,0,1,498.82,154.92Zm-36.38-25.25,36.38,21.5,36.38-21.5V86.61l-36.38-21.5-36.38,21.5Z"/><line class="cls-5" x1="467.42" y1="101.86" x2="498.61" y2="121.33"/><line class="cls-5" x1="529.79" y1="101.86" x2="498.61" y2="121.33"/><line class="cls-5" x1="529.79" y1="112.26" x2="498.61" y2="131.74"/><line class="cls-5" x1="531.74" y1="122" x2="500.56" y2="141.47"/><line class="cls-5" x1="467.42" y1="112.26" x2="498.61" y2="131.74"/><polygon class="cls-1" points="546.82 93.1 584.93 115.62 584.93 160.66 546.82 183.18 508.71 160.66 508.71 115.62 546.82 93.1"/><polygon class="cls-2" points="584.93 115.62 546.82 138.14 508.71 115.62 546.82 93.1 584.93 115.62"/><polygon class="cls-3" points="546.82 138.14 546.82 183.18 584.93 160.66 584.93 115.62 546.82 138.14"/><path class="cls-3" d="M515.64,158.93a1.73,1.73,0,0,1-1.73-1.73v-6.93a1.73,1.73,0,1,1,3.46,0v6.93A1.73,1.73,0,0,1,515.64,158.93Z"/><path class="cls-3" d="M522.57,162.39a1.72,1.72,0,0,1-1.73-1.73v-6.93a1.73,1.73,0,1,1,3.46,0v6.93A1.72,1.72,0,0,1,522.57,162.39Z"/><path class="cls-4" d="M546.82,139.87a1.71,1.71,0,0,1-.88-.24l-32.25-19a1.74,1.74,0,1,1,1.77-3l31.36,18.54,37.23-22a1.73,1.73,0,1,1,1.77,3h0L547.7,139.63A1.69,1.69,0,0,1,546.82,139.87Z"/><path class="cls-4" d="M546.82,169.32a1.73,1.73,0,0,1-1.73-1.73V138.14a1.74,1.74,0,0,1,3.47,0v29.45A1.73,1.73,0,0,1,546.82,169.32Z"/><path class="cls-4" d="M546.82,184.92c-1,0-1.73-1.19-1.73-2.64v-13.2c0-1.45.78-2.64,1.73-2.64s1.74,1.19,1.74,2.64v13.2C548.56,183.73,547.78,184.92,546.82,184.92Z"/><path class="cls-4" d="M546.82,184.92a1.72,1.72,0,0,1-.88-.25l-38.11-22.52a1.72,1.72,0,0,1-.85-1.49v-45a1.72,1.72,0,0,1,.85-1.49l38.11-22.52a1.73,1.73,0,0,1,1.76,0l38.12,22.52a1.75,1.75,0,0,1,.85,1.49v45a1.75,1.75,0,0,1-.85,1.49L547.7,184.67A1.7,1.7,0,0,1,546.82,184.92Zm-36.38-25.25,36.38,21.5,36.38-21.5V116.61l-36.38-21.5-36.38,21.5Z"/><line class="cls-5" x1="515.42" y1="131.86" x2="546.61" y2="151.33"/><line class="cls-5" x1="577.79" y1="131.86" x2="546.61" y2="151.33"/><line class="cls-5" x1="577.79" y1="142.26" x2="546.61" y2="161.74"/><line class="cls-5" x1="579.74" y1="152" x2="548.56" y2="171.47"/><line class="cls-5" x1="515.42" y1="142.26" x2="546.61" y2="161.74"/><polygon class="cls-1" points="452.82 94.1 490.94 116.62 490.94 161.66 452.82 184.18 414.71 161.66 414.71 116.62 452.82 94.1"/><polygon class="cls-2" points="490.94 116.62 452.82 139.14 414.71 116.62 452.82 94.1 490.94 116.62"/><polygon class="cls-3" points="452.82 139.14 452.82 184.18 490.94 161.66 490.94 116.62 452.82 139.14"/><path class="cls-3" d="M421.64,159.93a1.73,1.73,0,0,1-1.73-1.73v-6.93a1.73,1.73,0,1,1,3.46,0v6.93A1.73,1.73,0,0,1,421.64,159.93Z"/><path class="cls-3" d="M428.57,163.39a1.72,1.72,0,0,1-1.73-1.73v-6.93a1.73,1.73,0,0,1,3.46,0v6.93A1.72,1.72,0,0,1,428.57,163.39Z"/><path class="cls-4" d="M452.82,140.87a1.71,1.71,0,0,1-.88-.24l-32.25-19a1.74,1.74,0,1,1,1.77-3l31.36,18.54,37.23-22a1.73,1.73,0,1,1,1.77,3h0L453.7,140.63A1.69,1.69,0,0,1,452.82,140.87Z"/><path class="cls-4" d="M452.82,170.32a1.73,1.73,0,0,1-1.73-1.73V139.14a1.74,1.74,0,0,1,3.47,0v29.45A1.73,1.73,0,0,1,452.82,170.32Z"/><path class="cls-4" d="M452.82,185.92c-.95,0-1.73-1.19-1.73-2.64v-13.2c0-1.45.78-2.64,1.73-2.64s1.74,1.19,1.74,2.64v13.2C454.56,184.73,453.78,185.92,452.82,185.92Z"/><path class="cls-4" d="M452.82,185.92a1.72,1.72,0,0,1-.88-.25l-38.11-22.52a1.72,1.72,0,0,1-.85-1.49v-45a1.72,1.72,0,0,1,.85-1.49l38.11-22.52a1.73,1.73,0,0,1,1.76,0l38.12,22.52a1.75,1.75,0,0,1,.85,1.49v45a1.75,1.75,0,0,1-.85,1.49L453.7,185.67A1.7,1.7,0,0,1,452.82,185.92Zm-36.38-25.25,36.38,21.5,36.38-21.5V117.61l-36.38-21.5-36.38,21.5Z"/><line class="cls-5" x1="421.42" y1="132.86" x2="452.61" y2="152.33"/><line class="cls-5" x1="483.79" y1="132.86" x2="452.61" y2="152.33"/><line class="cls-5" x1="483.79" y1="143.26" x2="452.61" y2="162.74"/><line class="cls-5" x1="485.74" y1="153" x2="454.56" y2="172.47"/><line class="cls-5" x1="421.42" y1="143.26" x2="452.61" y2="162.74"/><polygon class="cls-1" points="605.82 210.1 643.93 232.62 643.93 277.66 605.82 300.18 567.71 277.66 567.71 232.62 605.82 210.1"/><polygon class="cls-2" points="643.93 232.62 605.82 255.14 567.71 232.62 605.82 210.1 643.93 232.62"/><polygon class="cls-3" points="605.82 255.14 605.82 300.18 643.93 277.66 643.93 232.62 605.82 255.14"/><path class="cls-3" d="M574.64,275.93a1.73,1.73,0,0,1-1.73-1.73v-6.93a1.73,1.73,0,0,1,3.46,0v6.93A1.73,1.73,0,0,1,574.64,275.93Z"/><path class="cls-3" d="M581.57,279.39a1.72,1.72,0,0,1-1.73-1.73v-6.93a1.73,1.73,0,0,1,3.46,0v6.93A1.72,1.72,0,0,1,581.57,279.39Z"/><path class="cls-4" d="M605.82,256.87a1.71,1.71,0,0,1-.88-.24l-32.25-19a1.74,1.74,0,1,1,1.77-3l31.36,18.54,37.23-22a1.73,1.73,0,1,1,1.77,3h0L606.7,256.63A1.69,1.69,0,0,1,605.82,256.87Z"/><path class="cls-4" d="M605.82,286.32a1.73,1.73,0,0,1-1.73-1.73V255.14a1.74,1.74,0,0,1,3.47,0v29.45A1.73,1.73,0,0,1,605.82,286.32Z"/><path class="cls-4" d="M605.82,301.92c-1,0-1.73-1.19-1.73-2.64v-13.2c0-1.45.78-2.64,1.73-2.64s1.74,1.19,1.74,2.64v13.2C607.56,300.73,606.78,301.92,605.82,301.92Z"/><path class="cls-4" d="M605.82,301.92a1.72,1.72,0,0,1-.88-.25l-38.11-22.52a1.72,1.72,0,0,1-.85-1.49v-45a1.72,1.72,0,0,1,.85-1.49l38.11-22.52a1.73,1.73,0,0,1,1.76,0l38.12,22.52a1.75,1.75,0,0,1,.85,1.49v45a1.75,1.75,0,0,1-.85,1.49L606.7,301.67A1.7,1.7,0,0,1,605.82,301.92Zm-36.38-25.25,36.38,21.5,36.38-21.5V233.61l-36.38-21.5-36.38,21.5Z"/><line class="cls-5" x1="574.42" y1="248.86" x2="605.61" y2="268.33"/><line class="cls-5" x1="636.79" y1="248.86" x2="605.61" y2="268.33"/><line class="cls-5" x1="636.79" y1="259.26" x2="605.61" y2="278.74"/><line class="cls-5" x1="638.74" y1="269" x2="607.56" y2="288.47"/><line class="cls-5" x1="574.42" y1="259.26" x2="605.61" y2="278.74"/><polygon class="cls-1" points="653.82 239.1 691.93 261.62 691.93 306.66 653.82 329.18 615.71 306.66 615.71 261.62 653.82 239.1"/><polygon class="cls-2" points="691.93 261.62 653.82 284.14 615.71 261.62 653.82 239.1 691.93 261.62"/><polygon class="cls-3" points="653.82 284.14 653.82 329.18 691.93 306.66 691.93 261.62 653.82 284.14"/><path class="cls-3" d="M622.64,304.93a1.73,1.73,0,0,1-1.73-1.73v-6.93a1.73,1.73,0,0,1,3.46,0v6.93A1.73,1.73,0,0,1,622.64,304.93Z"/><path class="cls-3" d="M629.57,308.39a1.72,1.72,0,0,1-1.73-1.73v-6.93a1.73,1.73,0,0,1,3.46,0v6.93A1.72,1.72,0,0,1,629.57,308.39Z"/><path class="cls-4" d="M653.82,285.87a1.71,1.71,0,0,1-.88-.24l-32.25-19.05a1.74,1.74,0,0,1,1.77-3l31.36,18.54,37.23-22a1.73,1.73,0,1,1,1.77,3h0L654.7,285.63A1.69,1.69,0,0,1,653.82,285.87Z"/><path class="cls-4" d="M653.82,315.32a1.73,1.73,0,0,1-1.73-1.73V284.14a1.74,1.74,0,0,1,3.47,0v29.45A1.73,1.73,0,0,1,653.82,315.32Z"/><path class="cls-4" d="M653.82,330.92c-1,0-1.73-1.19-1.73-2.64v-13.2c0-1.45.78-2.64,1.73-2.64s1.74,1.19,1.74,2.64v13.2C655.56,329.73,654.78,330.92,653.82,330.92Z"/><path class="cls-4" d="M653.82,330.92a1.72,1.72,0,0,1-.88-.25l-38.11-22.52a1.72,1.72,0,0,1-.85-1.49v-45a1.72,1.72,0,0,1,.85-1.49l38.11-22.52a1.73,1.73,0,0,1,1.76,0l38.12,22.52a1.75,1.75,0,0,1,.85,1.49v45a1.75,1.75,0,0,1-.85,1.49L654.7,330.67A1.7,1.7,0,0,1,653.82,330.92Zm-36.38-25.25,36.38,21.5,36.38-21.5V262.61l-36.38-21.5-36.38,21.5Z"/><line class="cls-5" x1="622.42" y1="277.86" x2="653.61" y2="297.33"/><line class="cls-5" x1="684.79" y1="277.86" x2="653.61" y2="297.33"/><line class="cls-5" x1="684.79" y1="288.26" x2="653.61" y2="307.74"/><line class="cls-5" x1="686.74" y1="298" x2="655.56" y2="317.47"/><line class="cls-5" x1="622.42" y1="288.26" x2="653.61" y2="307.74"/><polygon class="cls-1" points="984.82 408.1 1022.93 430.62 1022.93 475.66 984.82 498.18 946.71 475.66 946.71 430.62 984.82 408.1"/><polygon class="cls-2" points="1022.93 430.62 984.82 453.14 946.71 430.62 984.82 408.1 1022.93 430.62"/><polygon class="cls-3" points="984.82 453.14 984.82 498.18 1022.93 475.66 1022.93 430.62 984.82 453.14"/><path class="cls-3" d="M953.64,473.93a1.73,1.73,0,0,1-1.73-1.73v-6.93a1.73,1.73,0,0,1,3.46,0v6.93A1.73,1.73,0,0,1,953.64,473.93Z"/><path class="cls-3" d="M960.57,477.39a1.72,1.72,0,0,1-1.73-1.73v-6.93a1.73,1.73,0,1,1,3.46,0v6.93A1.72,1.72,0,0,1,960.57,477.39Z"/><path class="cls-4" d="M984.82,454.87a1.71,1.71,0,0,1-.88-.24l-32.25-19.05a1.74,1.74,0,0,1,1.77-3l31.36,18.54,37.23-22a1.73,1.73,0,1,1,1.77,3h0L985.7,454.63A1.69,1.69,0,0,1,984.82,454.87Z"/><path class="cls-4" d="M984.82,484.32a1.73,1.73,0,0,1-1.73-1.73V453.14a1.74,1.74,0,0,1,3.47,0v29.45A1.73,1.73,0,0,1,984.82,484.32Z"/><path class="cls-4" d="M984.82,499.92c-1,0-1.73-1.19-1.73-2.64v-13.2c0-1.45.78-2.64,1.73-2.64s1.74,1.19,1.74,2.64v13.2C986.56,498.73,985.78,499.92,984.82,499.92Z"/><path class="cls-4" d="M984.82,499.92a1.72,1.72,0,0,1-.88-.25l-38.11-22.52a1.72,1.72,0,0,1-.85-1.49v-45a1.72,1.72,0,0,1,.85-1.49l38.11-22.52a1.73,1.73,0,0,1,1.76,0l38.12,22.52a1.75,1.75,0,0,1,.85,1.49v45a1.75,1.75,0,0,1-.85,1.49L985.7,499.67A1.7,1.7,0,0,1,984.82,499.92Zm-36.38-25.25,36.38,21.5,36.38-21.5V431.61l-36.38-21.5-36.38,21.5Z"/><line class="cls-5" x1="953.42" y1="446.86" x2="984.61" y2="466.33"/><line class="cls-5" x1="1015.79" y1="446.86" x2="984.61" y2="466.33"/><line class="cls-5" x1="1015.79" y1="457.26" x2="984.61" y2="476.74"/><line class="cls-5" x1="1017.74" y1="467" x2="986.56" y2="486.47"/><line class="cls-5" x1="953.42" y1="457.26" x2="984.61" y2="476.74"/><polygon class="cls-1" points="890.82 409.1 928.93 431.62 928.93 476.66 890.82 499.18 852.71 476.66 852.71 431.62 890.82 409.1"/><polygon class="cls-2" points="928.93 431.62 890.82 454.14 852.71 431.62 890.82 409.1 928.93 431.62"/><polygon class="cls-3" points="890.82 454.14 890.82 499.18 928.93 476.66 928.93 431.62 890.82 454.14"/><path class="cls-3" d="M859.64,474.93a1.73,1.73,0,0,1-1.73-1.73v-6.93a1.73,1.73,0,0,1,3.46,0v6.93A1.73,1.73,0,0,1,859.64,474.93Z"/><path class="cls-3" d="M866.57,478.39a1.72,1.72,0,0,1-1.73-1.73v-6.93a1.73,1.73,0,1,1,3.46,0v6.93A1.72,1.72,0,0,1,866.57,478.39Z"/><path class="cls-4" d="M890.82,455.87a1.71,1.71,0,0,1-.88-.24l-32.25-19.05a1.74,1.74,0,0,1,1.77-3l31.36,18.54,37.23-22a1.73,1.73,0,1,1,1.77,3h0L891.7,455.63A1.69,1.69,0,0,1,890.82,455.87Z"/><path class="cls-4" d="M890.82,485.32a1.73,1.73,0,0,1-1.73-1.73V454.14a1.74,1.74,0,0,1,3.47,0v29.45A1.73,1.73,0,0,1,890.82,485.32Z"/><path class="cls-4" d="M890.82,500.92c-1,0-1.73-1.19-1.73-2.64v-13.2c0-1.45.78-2.64,1.73-2.64s1.74,1.19,1.74,2.64v13.2C892.56,499.73,891.78,500.92,890.82,500.92Z"/><path class="cls-4" d="M890.82,500.92a1.72,1.72,0,0,1-.88-.25l-38.11-22.52a1.72,1.72,0,0,1-.85-1.49v-45a1.72,1.72,0,0,1,.85-1.49l38.11-22.52a1.73,1.73,0,0,1,1.76,0l38.12,22.52a1.75,1.75,0,0,1,.85,1.49v45a1.75,1.75,0,0,1-.85,1.49L891.7,500.67A1.7,1.7,0,0,1,890.82,500.92Zm-36.38-25.25,36.38,21.5,36.38-21.5V432.61l-36.38-21.5-36.38,21.5Z"/><line class="cls-5" x1="859.42" y1="447.86" x2="890.61" y2="467.33"/><line class="cls-5" x1="921.79" y1="447.86" x2="890.61" y2="467.33"/><line class="cls-5" x1="921.79" y1="458.26" x2="890.61" y2="477.74"/><line class="cls-5" x1="923.74" y1="468" x2="892.56" y2="487.47"/><line class="cls-5" x1="859.42" y1="458.26" x2="890.61" y2="477.74"/><polygon class="cls-1" points="938.82 438.1 976.93 460.62 976.93 505.66 938.82 528.18 900.71 505.66 900.71 460.62 938.82 438.1"/><polygon class="cls-2" points="976.93 460.62 938.82 483.14 900.71 460.62 938.82 438.1 976.93 460.62"/><polygon class="cls-3" points="938.82 483.14 938.82 528.18 976.93 505.66 976.93 460.62 938.82 483.14"/><path class="cls-3" d="M907.64,503.93a1.73,1.73,0,0,1-1.73-1.73v-6.93a1.73,1.73,0,0,1,3.46,0v6.93A1.73,1.73,0,0,1,907.64,503.93Z"/><path class="cls-3" d="M914.57,507.39a1.72,1.72,0,0,1-1.73-1.73v-6.93a1.73,1.73,0,1,1,3.46,0v6.93A1.72,1.72,0,0,1,914.57,507.39Z"/><path class="cls-4" d="M938.82,484.87a1.71,1.71,0,0,1-.88-.24l-32.25-19.05a1.74,1.74,0,0,1,1.77-3l31.36,18.54,37.23-22a1.73,1.73,0,1,1,1.77,3h0L939.7,484.63A1.69,1.69,0,0,1,938.82,484.87Z"/><path class="cls-4" d="M938.82,514.32a1.73,1.73,0,0,1-1.73-1.73V483.14a1.74,1.74,0,0,1,3.47,0v29.45A1.73,1.73,0,0,1,938.82,514.32Z"/><path class="cls-4" d="M938.82,529.92c-1,0-1.73-1.19-1.73-2.64v-13.2c0-1.45.78-2.64,1.73-2.64s1.74,1.19,1.74,2.64v13.2C940.56,528.73,939.78,529.92,938.82,529.92Z"/><path class="cls-4" d="M938.82,529.92a1.72,1.72,0,0,1-.88-.25l-38.11-22.52a1.72,1.72,0,0,1-.85-1.49v-45a1.72,1.72,0,0,1,.85-1.49l38.11-22.52a1.73,1.73,0,0,1,1.76,0l38.12,22.52a1.75,1.75,0,0,1,.85,1.49v45a1.75,1.75,0,0,1-.85,1.49L939.7,529.67A1.7,1.7,0,0,1,938.82,529.92Zm-36.38-25.25,36.38,21.5,36.38-21.5V461.61l-36.38-21.5-36.38,21.5Z"/><line class="cls-5" x1="907.42" y1="476.86" x2="938.61" y2="496.33"/><line class="cls-5" x1="969.79" y1="476.86" x2="938.61" y2="496.33"/><line class="cls-5" x1="969.79" y1="487.26" x2="938.61" y2="506.74"/><line class="cls-5" x1="971.74" y1="497" x2="940.56" y2="516.47"/><line class="cls-5" x1="907.42" y1="487.26" x2="938.61" y2="506.74"/><polygon class="cls-1" points="827.82 295.1 865.93 317.62 865.93 362.66 827.82 385.18 789.71 362.66 789.71 317.62 827.82 295.1"/><polygon class="cls-2" points="865.93 317.62 827.82 340.14 789.71 317.62 827.82 295.1 865.93 317.62"/><polygon class="cls-3" points="827.82 340.14 827.82 385.18 865.93 362.66 865.93 317.62 827.82 340.14"/><path class="cls-3" d="M796.64,360.93a1.73,1.73,0,0,1-1.73-1.73v-6.93a1.73,1.73,0,0,1,3.46,0v6.93A1.73,1.73,0,0,1,796.64,360.93Z"/><path class="cls-3" d="M803.57,364.39a1.72,1.72,0,0,1-1.73-1.73v-6.93a1.73,1.73,0,1,1,3.46,0v6.93A1.72,1.72,0,0,1,803.57,364.39Z"/><path class="cls-4" d="M827.82,341.87a1.71,1.71,0,0,1-.88-.24l-32.25-19.05a1.74,1.74,0,0,1,1.77-3l31.36,18.54,37.23-22a1.73,1.73,0,1,1,1.77,3h0L828.7,341.63A1.69,1.69,0,0,1,827.82,341.87Z"/><path class="cls-4" d="M827.82,371.32a1.73,1.73,0,0,1-1.73-1.73V340.14a1.74,1.74,0,0,1,3.47,0v29.45A1.73,1.73,0,0,1,827.82,371.32Z"/><path class="cls-4" d="M827.82,386.92c-1,0-1.73-1.19-1.73-2.64v-13.2c0-1.45.78-2.64,1.73-2.64s1.74,1.19,1.74,2.64v13.2C829.56,385.73,828.78,386.92,827.82,386.92Z"/><path class="cls-4" d="M827.82,386.92a1.72,1.72,0,0,1-.88-.25l-38.11-22.52a1.72,1.72,0,0,1-.85-1.49v-45a1.72,1.72,0,0,1,.85-1.49l38.11-22.52a1.73,1.73,0,0,1,1.76,0l38.12,22.52a1.75,1.75,0,0,1,.85,1.49v45a1.75,1.75,0,0,1-.85,1.49L828.7,386.67A1.7,1.7,0,0,1,827.82,386.92Zm-36.38-25.25,36.38,21.5,36.38-21.5V318.61l-36.38-21.5-36.38,21.5Z"/><line class="cls-5" x1="796.42" y1="333.86" x2="827.61" y2="353.33"/><line class="cls-5" x1="858.79" y1="333.86" x2="827.61" y2="353.33"/><line class="cls-5" x1="858.79" y1="344.26" x2="827.61" y2="363.74"/><line class="cls-5" x1="860.74" y1="354" x2="829.56" y2="373.47"/><line class="cls-5" x1="796.42" y1="344.26" x2="827.61" y2="363.74"/><polygon class="cls-1" points="764.82 314.1 802.93 336.62 802.93 381.66 764.82 404.18 726.71 381.66 726.71 336.62 764.82 314.1"/><polygon class="cls-2" points="802.93 336.62 764.82 359.14 726.71 336.62 764.82 314.1 802.93 336.62"/><polygon class="cls-3" points="764.82 359.14 764.82 404.18 802.93 381.66 802.93 336.62 764.82 359.14"/><path class="cls-3" d="M733.64,379.93a1.73,1.73,0,0,1-1.73-1.73v-6.93a1.73,1.73,0,0,1,3.46,0v6.93A1.73,1.73,0,0,1,733.64,379.93Z"/><path class="cls-3" d="M740.57,383.39a1.72,1.72,0,0,1-1.73-1.73v-6.93a1.73,1.73,0,1,1,3.46,0v6.93A1.72,1.72,0,0,1,740.57,383.39Z"/><path class="cls-4" d="M764.82,360.87a1.71,1.71,0,0,1-.88-.24l-32.25-19.05a1.74,1.74,0,0,1,1.77-3l31.36,18.54,37.23-22a1.73,1.73,0,1,1,1.77,3h0L765.7,360.63A1.69,1.69,0,0,1,764.82,360.87Z"/><path class="cls-4" d="M764.82,390.32a1.73,1.73,0,0,1-1.73-1.73V359.14a1.74,1.74,0,0,1,3.47,0v29.45A1.73,1.73,0,0,1,764.82,390.32Z"/><path class="cls-4" d="M764.82,405.92c-1,0-1.73-1.19-1.73-2.64v-13.2c0-1.45.78-2.64,1.73-2.64s1.74,1.19,1.74,2.64v13.2C766.56,404.73,765.78,405.92,764.82,405.92Z"/><path class="cls-4" d="M764.82,405.92a1.72,1.72,0,0,1-.88-.25l-38.11-22.52a1.72,1.72,0,0,1-.85-1.49v-45a1.72,1.72,0,0,1,.85-1.49l38.11-22.52a1.73,1.73,0,0,1,1.76,0l38.12,22.52a1.75,1.75,0,0,1,.85,1.49v45a1.75,1.75,0,0,1-.85,1.49L765.7,405.67A1.7,1.7,0,0,1,764.82,405.92Zm-36.38-25.25,36.38,21.5,36.38-21.5V337.61l-36.38-21.5-36.38,21.5Z"/><line class="cls-5" x1="733.42" y1="352.86" x2="764.61" y2="372.33"/><line class="cls-5" x1="795.79" y1="352.86" x2="764.61" y2="372.33"/><line class="cls-5" x1="795.79" y1="363.26" x2="764.61" y2="382.74"/><line class="cls-5" x1="797.74" y1="373" x2="766.56" y2="392.47"/><line class="cls-5" x1="733.42" y1="363.26" x2="764.61" y2="382.74"/><polyline class="cls-6" points="402 186 306 249 812 579 889 526"/><line class="cls-6" x1="556.5" y1="303.5" x2="474.1" y2="359.2"/><line class="cls-6" x1="730.5" y1="411.5" x2="645.67" y2="471.88"/><polygon class="cls-7" points="328 315 716 562 573 666 182 397 328 315"/><text class="cls-8" transform="matrix(0.84, 0.54, -0.54, 0.84, 382.18, 426.23)">Science Gateway<tspan class="cls-9"><tspan class="cls-10" x="28.44" y="25.2"> </tspan><tspan x="33.49" y="25.2">AIR</tspan><tspan class="cls-11" x="69.66" y="25.2">AVAT</tspan><tspan class="cls-10" x="120.59" y="25.2">A</tspan></tspan></text><g id="Account"><path class="cls-12" d="M305.87,438.25l-28.72-16a2.23,2.23,0,0,0-.66-.25,1.69,1.69,0,0,0-.67-.08L247.1,423.6a1.64,1.64,0,0,0-1.54,1.73v22.39c0,32.21,30,49.27,30.26,49.43a5.12,5.12,0,0,0,.67.26,3.7,3.7,0,0,0,.66.07c.31,0,30.27-2.13,30.27-34.34V440.76A3,3,0,0,0,305.87,438.25Z"/></g><path class="cls-13" d="M307,441.26v21.79c0,31.36-29.16,33.42-29.46,33.43a3.48,3.48,0,0,1-.64-.07V423a2.12,2.12,0,0,1,.64.25l28,15.57A3,3,0,0,1,307,441.26Z"/><path class="cls-13" d="M288.83,477.49a3,3,0,0,1-1.3-2.34V472.5c0-1.84-5.93-4.75-11-6s-11.05-1.33-11.05.51v2.65a1.63,1.63,0,0,1-1.3,1.69,2.63,2.63,0,0,1-2.37-.94,28.2,28.2,0,0,1-7.37-18.26c0-12.18,9.91-19.62,22.09-16.58s22.09,15.42,22.09,27.6c0,6.3-2.69,11.62-7.38,14.58A2.18,2.18,0,0,1,288.83,477.49Z"/><path class="cls-14" d="M287.53,472.5v2.65a3,3,0,0,0,1.3,2.34,2.18,2.18,0,0,0,2.37.24c4.69-3,7.38-8.28,7.38-14.58,0-12.18-9.91-24.56-22.09-27.6v30.93C281.6,467.75,287.53,470.66,287.53,472.5Z"/><path class="cls-15" d="M276.49,462.06c-4.88-1.22-8.84-6.17-8.84-11s4-7.85,8.84-6.63,8.83,6.16,8.83,11S281.36,463.27,276.49,462.06Z"/><path class="cls-15" d="M276.49,479.73a29.07,29.07,0,0,1-14.75-9.33,2.83,2.83,0,0,1-.72-1.81v-2.7c0-7.47,13.88-4.23,15.47-3.83S292,466.13,292,473.6v2.7a1.68,1.68,0,0,1-.72,1.45C287.23,480.4,282,481.11,276.49,479.73Zm13.25-4h0Z"/><path class="cls-16" d="M291.23,477.75a1.68,1.68,0,0,0,.72-1.45v-2.7c0-7.47-13.88-11.15-15.46-11.54v17.67c5.5,1.38,10.74.67,14.74-2Z"/><path class="cls-16" d="M285.32,455.43c0-4.88-4-9.83-8.83-11v17.67C281.36,463.27,285.32,460.3,285.32,455.43Z"/><g id="Account-2" data-name="Account"><path class="cls-12" d="M408.87,513.25l-28.72-16a2.23,2.23,0,0,0-.66-.25,1.69,1.69,0,0,0-.67-.08L350.1,498.6a1.64,1.64,0,0,0-1.54,1.73v22.39c0,32.21,30,49.27,30.26,49.43a5.12,5.12,0,0,0,.67.26,3.7,3.7,0,0,0,.66.07c.31,0,30.27-2.13,30.27-34.34V515.76A3,3,0,0,0,408.87,513.25Z"/></g><path class="cls-13" d="M410,516.26v21.79c0,31.36-29.16,33.42-29.46,33.43a3.48,3.48,0,0,1-.64-.07V498a2.12,2.12,0,0,1,.64.25l28,15.57A3,3,0,0,1,410,516.26Z"/><path class="cls-13" d="M391.83,552.49a3,3,0,0,1-1.3-2.34V547.5c0-1.84-5.93-4.75-11-6s-11.05-1.33-11.05.51v2.65a1.63,1.63,0,0,1-1.3,1.69,2.63,2.63,0,0,1-2.37-.94,28.2,28.2,0,0,1-7.37-18.26c0-12.18,9.91-19.62,22.09-16.58s22.09,15.42,22.09,27.6c0,6.3-2.69,11.62-7.38,14.58A2.18,2.18,0,0,1,391.83,552.49Z"/><path class="cls-14" d="M390.53,547.5v2.65a3,3,0,0,0,1.3,2.34,2.18,2.18,0,0,0,2.37.24c4.69-3,7.38-8.28,7.38-14.58,0-12.18-9.91-24.56-22.09-27.6v30.93C384.6,542.75,390.53,545.66,390.53,547.5Z"/><path class="cls-15" d="M379.49,537.06c-4.88-1.22-8.84-6.17-8.84-11s4-7.85,8.84-6.63,8.83,6.16,8.83,11S384.36,538.27,379.49,537.06Z"/><path class="cls-15" d="M379.49,554.73a29.07,29.07,0,0,1-14.75-9.33,2.83,2.83,0,0,1-.72-1.81v-2.7c0-7.47,13.88-4.23,15.47-3.83S395,541.13,395,548.6v2.7a1.68,1.68,0,0,1-.72,1.45C390.23,555.4,385,556.11,379.49,554.73Zm13.25-4h0Z"/><path class="cls-16" d="M394.23,552.75a1.68,1.68,0,0,0,.72-1.45v-2.7c0-7.47-13.88-11.15-15.46-11.54v17.67c5.5,1.38,10.74.67,14.74-2Z"/><path class="cls-16" d="M388.32,530.43c0-4.88-4-9.83-8.83-11v17.67C384.36,538.27,388.32,535.3,388.32,530.43Z"/><g id="Account-3" data-name="Account"><path class="cls-12" d="M508.87,586.25l-28.72-16a2.23,2.23,0,0,0-.66-.25,1.69,1.69,0,0,0-.67-.08L450.1,571.6a1.64,1.64,0,0,0-1.54,1.73v22.39c0,32.21,30,49.27,30.26,49.43a5.12,5.12,0,0,0,.67.26,3.7,3.7,0,0,0,.66.07c.31,0,30.27-2.13,30.27-34.34V588.76A3,3,0,0,0,508.87,586.25Z"/></g><path class="cls-13" d="M510,589.26v21.79c0,31.36-29.16,33.42-29.46,33.43a3.48,3.48,0,0,1-.64-.07V571a2.12,2.12,0,0,1,.64.25l28,15.57A3,3,0,0,1,510,589.26Z"/><path class="cls-13" d="M491.83,625.49a3,3,0,0,1-1.3-2.34V620.5c0-1.84-5.93-4.75-11-6s-11.05-1.33-11.05.51v2.65a1.63,1.63,0,0,1-1.3,1.69,2.63,2.63,0,0,1-2.37-.94,28.2,28.2,0,0,1-7.37-18.26c0-12.18,9.91-19.62,22.09-16.58s22.09,15.42,22.09,27.6c0,6.3-2.69,11.62-7.38,14.58A2.18,2.18,0,0,1,491.83,625.49Z"/><path class="cls-14" d="M490.53,620.5v2.65a3,3,0,0,0,1.3,2.34,2.18,2.18,0,0,0,2.37.24c4.69-3,7.38-8.28,7.38-14.58,0-12.18-9.91-24.56-22.09-27.6v30.93C484.6,615.75,490.53,618.66,490.53,620.5Z"/><path class="cls-15" d="M479.49,610.06c-4.88-1.22-8.84-6.17-8.84-11s4-7.85,8.84-6.63,8.83,6.16,8.83,11S484.36,611.27,479.49,610.06Z"/><path class="cls-15" d="M479.49,627.73a29.07,29.07,0,0,1-14.75-9.33,2.83,2.83,0,0,1-.72-1.81v-2.7c0-7.47,13.88-4.23,15.47-3.83S495,614.13,495,621.6v2.7a1.68,1.68,0,0,1-.72,1.45C490.23,628.4,485,629.11,479.49,627.73Zm13.25-4h0Z"/><path class="cls-16" d="M494.23,625.75a1.68,1.68,0,0,0,.72-1.45v-2.7c0-7.47-13.88-11.15-15.46-11.54v17.67c5.5,1.38,10.74.67,14.74-2Z"/><path class="cls-16" d="M488.32,603.43c0-4.88-4-9.83-8.83-11v17.67C484.36,611.27,488.32,608.3,488.32,603.43Z"/><line class="cls-17" x1="353" y1="551" x2="256" y2="591"/><polyline class="cls-6" points="250.07 475.86 166.5 498.5 136.52 475.86"/><polyline class="cls-6" points="456.37 628.42 370.5 666.5 474.5 754.5"/><line class="cls-17" x1="513.54" y1="431.05" x2="553.16" y2="413.18"/><line class="cls-6" x1="175" y1="309" x2="249" y2="358"/><line class="cls-6" x1="622.42" y1="633.45" x2="701.5" y2="686.5"/><path class="cls-18" d="M108,413.18a27.78,27.78,0,0,1,7.61,7.32c3.22,4.69,5.27,7.33,7.91,7.91,0,0-1.47,4.4-7.62,1.17s-8.2-6.15-8.78-9.08S108,413.18,108,413.18Z"/><polygon class="cls-19" points="105.97 434.27 108.03 460.92 96.89 460.34 88.11 445.11 91.92 433.68 105.97 434.27"/><path class="cls-20" d="M110.66,423.14l12.89,4.39s-2.64,9.67-1.76,13.77c.88,4.39.88,24.89.88,24.89H101.58s4.39-9.95,5-16.11C107.44,443.64,110.66,423.14,110.66,423.14Z"/><path class="cls-20" d="M110.37,419.63h0c.58,1.46,2.93,7.61,3.22,10.54l.29,3.22L111,435.73l2.93,2.35s-7,13.18-8.49,18.16c-1.76,5,5.86,10.25,5.86,10.25s-8.79-4.4-8.79-10,2.93-18.45,2.93-18.45,3.81-12.89,2.93-14.94-.59-2.05-.59-2.05l2.64-1.46"/><path class="cls-21" d="M99.82,449.21a23.34,23.34,0,0,1,0-4.69c.3-1.76,4.69-3.81,4.69-3.81l4.1-15.23-1.76-2.93L92.5,423.73s-.58,13.47.59,16.69S99.82,449.21,99.82,449.21Z"/><path class="cls-18" d="M44.18,424s-2.35,14.35-2,24v14l40.12-.88s7.91-31,7.32-38.95L89,414.35Z"/><path class="cls-21" d="M39.78,431.05a17.39,17.39,0,0,1-.87,2.05,35.51,35.51,0,0,0-2,3.51c-.59,1.17-2.35,5.27-2.35,5.27s.88.88,2.35-.29L38,440.42a3.73,3.73,0,0,0,2-1.76c.88-1.46,1.75-1.46,2.34-2.05A22.62,22.62,0,0,1,45.06,434c.87-.59,1.46,0,2-.3a2.19,2.19,0,0,1,.87,1.47c.3,1.17,1.76,4.68,4.4,2.34L51.5,436a3.09,3.09,0,0,1-.29-1.18,6.67,6.67,0,0,1-.59-2.34,7.91,7.91,0,0,0-1.46-3.81A7.82,7.82,0,0,0,46.81,427S42.42,424.6,39.78,431.05Z"/><ellipse class="cls-21" cx="78.43" cy="362.48" rx="3.22" ry="1.17" transform="translate(-290.45 324.05) rotate(-71.84)"/><path class="cls-21" d="M63.51,359.59c0,1.75-.59,3.51-1.17,3.51-.88,0-1.47-1.46-1.47-3.22s.59-3.52,1.17-3.52C62.92,356.36,63.51,357.83,63.51,359.59Z"/><path class="cls-21" d="M71.12,382.72l2-9.66c2.64-2.05,5-10.25,5-10.25l.59-5s.88-3.52-6.45-5.57-9.37,3.23-10,8.2a21,21,0,0,0-.3,6.45l-4.68,7.91Z"/><path class="cls-22" d="M68.49,375.11c-3.23-.59-5.86-6.45-6.15-7.91a16.76,16.76,0,0,0,1.75,6.74c1.17,2.63,4.69,5.27,7.62,7.32l1.76-8.2C73.17,373.06,71.71,375.4,68.49,375.11Z"/><path class="cls-19" d="M73.76,373.94a8.67,8.67,0,0,0,3.51,2.34c2.35.88,10.84,7.32,10.84,7.32s-1.76,9.67-3.81,13.77S82,411.13,82.54,417.28,84,425.19,84,425.19a52.88,52.88,0,0,1-19.33,2.34c-10-.88-18.45-1.46-18.45-1.46s-1.17-18.75,0-23.14a26.19,26.19,0,0,1,2.05-5.86s1.17-24-6.74-20.2a11.47,11.47,0,0,1,5.57-3.52c3.8-1.17,12.59-3.22,12.59-3.22l8.2,5.27h1.47C69.37,375.69,72.88,375.11,73.76,373.94Z"/><path class="cls-23" d="M67.61,378.92l-.3,2.05a23.24,23.24,0,0,0-1.75,5.27c-.59,2.93-.3,30.75-.3,30.75l6.45,5.27,4.1-5.27s-.59-15.82-1.47-22.84-3.8-12.89-3.8-13.77v-1.76H67.61v.3Z"/><path class="cls-24" d="M65.85,375.69h3.52l3.22.88a11,11,0,0,0-1.76,4.1s-2.64-.29-3.22.59c0,0-2.64-3.52-3.81-4.1l-.88-.59Z"/><path class="cls-18" d="M62.34,360.46l.29.3a3.73,3.73,0,0,1,.88-2.35c.88-.87,1.75.3,2.05-1.46.29-1.46,0-3.22,1.17-3.51.88-.3,5.86,3.8,9.08,2.92,3.22-1.17,2,2.05,2,2.93s.58,1.17.58,1.47v1.75h0a15.52,15.52,0,0,1,1.76-3.8c1.17-1.76,3.22-8.5-1.76-12.89a11.36,11.36,0,0,0-12.88-1.46c-2.05,1.17-3.81,5.27-3.81,9.08C62,357.54,62.92,357.54,62.34,360.46Z"/><path class="cls-25" d="M69.37,375.69a11.88,11.88,0,0,1,3.51,3.52c.88,2.34,1.76,2.93,1.76,2.93s0-1.47-.3-4.69-.29-5.27-.29-5.27l-.88.58C73.17,373.06,72,374.82,69.37,375.69Z"/><path class="cls-25" d="M62,367.49A4.72,4.72,0,0,0,63.21,371a46.9,46.9,0,0,0,4.69,4.39,22.12,22.12,0,0,1-3.22,1.76c-1.47.58-2.34,1.76-3.52,1.76a55.06,55.06,0,0,0-1.75-5.86c-.59-1.17-.59-2.35,0-2.93C60,369.84,61.16,367.49,62,367.49Z"/><path class="cls-25" d="M48.28,426.07a16.93,16.93,0,0,0,1.17,2.34c-.59-.58-1.46-.58-3.52-.58-2.63-.3-5,3.22-5.85,3.22s-1.17-4.1-1.17-4.1a6.57,6.57,0,0,1-2.64-2.64c-1.17-1.76-.88-6.15,0-10s.88-17,1.17-22.26,2.34-13.17,4.39-14.93c8.21-3.81,6.74,20.21,6.74,20.21s0,9.08-.29,10.54c-.3,1.76,0,5.27-.59,6.44s-.29,3.23-.29,5.86c.29,2.34-.29,2.34,0,3.81A7.51,7.51,0,0,0,48.28,426.07Z"/><path class="cls-25" d="M84,424.9s-.88-1.76-1.47-7.91-.29-15.82,1.76-19.92,3.81-13.76,3.81-13.76S89.57,390,89.57,393s2.64,34.56,2.64,34.56Z"/><path class="cls-20" d="M85.18,443.93c-5,.59-3.81-17.28-1.17-18.74L91.33,424s0,25.19,1.47,28.11,7.9,3.23,10.25,6.45c2,3.22,3.22,10,3.22,10l-16.7-4.4,2.64-8.49C92.21,455.36,86.35,451.55,85.18,443.93Z"/><polygon class="cls-24" points="134.38 458.87 142.88 472.34 30.41 472.34 31.58 459.75 134.38 458.87"/><rect class="cls-23" x="30.41" y="472.34" width="112.47" height="3.51"/><path class="cls-21" d="M59.41,459.75s-5,1.17-8.5.59-2.93,0-5-.3a21.74,21.74,0,0,1-4.68-1.46l-2.64-.29s.3,1.75-.88,2-2.34-8.21-2.34-8.21l2.93-.58a7.49,7.49,0,0,1,3.22.29s.29-.58,1.47-.29,3.51,2.05,5.85,2.64,5.57-.59,5.57-.59S63.21,453.6,59.41,459.75Z"/><path class="cls-25" d="M90.45,439.25s-2.63-1.47-4.68-2.93-2.93-2.05-2.93-2.05l10.54-6.15,1.47,1.46Z"/><path class="cls-26" d="M84,425.19a30.78,30.78,0,0,0-3.81,6.44c-1.46,3.52-2.34,3.52-3.51,6.15-1.47,2.64-1.76,3.81-3.22,5.57s-3.81,2.64-4.69,4.39-3.81,2.93-5,3.81-11.42,2.64-11.42,2.64,3.51-.59,5.27,2.34.59,5-.88,5.56a20.4,20.4,0,0,0,4.39-.58c2.05-.59,5-.88,8.79-2.64s9.37-5.86,11.72-8.78a26,26,0,0,0,3.51-5.86s-2.93-5.57-2.64-10.25A29.23,29.23,0,0,1,84,425.19Z"/><path class="cls-25" d="M94,429.29l-5.86,9.08a.41.41,0,0,0,0,.59l1.17,1.17a.55.55,0,0,0,.88,0h0s2.93,6.73,6.44,8.49a19.62,19.62,0,0,1,4.4,2.64,20.15,20.15,0,0,0-2.93-5c-1.47-1.17-3.52-3.81-3.52-6.45-.29-2.63,1.17-7.32,1.17-9.08C95.72,428.7,94,429.29,94,429.29Z"/><path id="SVGCleanerId_0" data-name="SVGCleanerId 0" class="cls-21" d="M88.7,406.74s-1.47,0-2.35,2.05-1.46,6.74-1.17,7.61,1.17,1.76,1.17,2.64a14.06,14.06,0,0,0,1.47,6.44,13.83,13.83,0,0,1,2.05,5.28c.29,1.17,3.8,2.05,5.56,0l2.34,14.35,8.5-17,.88-4.39a7.22,7.22,0,0,0-.88-2.05s1.76-11.72-.59-13.77S88.7,406.74,88.7,406.74Z"/><path id="SVGCleanerId_0-2" data-name="SVGCleanerId 0" class="cls-21" d="M88.7,406.74s-1.47,0-2.35,2.05-1.46,6.74-1.17,7.61,1.17,1.76,1.17,2.64a14.06,14.06,0,0,0,1.47,6.44,13.83,13.83,0,0,1,2.05,5.28c.29,1.17,3.8,2.05,5.56,0l2.34,14.35,8.5-17,.88-4.39a7.22,7.22,0,0,0-.88-2.05s1.76-11.72-.59-13.77S88.7,406.74,88.7,406.74Z"/><path class="cls-22" d="M103.05,422.55c-.59,2.35-2.64,10-8.2,14.36.29-2.35.87-5.28.87-6.45C95.72,430.75,101,427.83,103.05,422.55Z"/><path class="cls-25" d="M106.27,422a5.12,5.12,0,0,1,1.17,3.51c0,2.35-4.39,12.6-4.69,12.89s-2,3.51-2.93,5c-.87,1.76-.29,4.68.59,6.15,0,0-.88-3.22,0-5.27.59-2.05,4.39-2.64,4.39-2.64l.3-1.17,7.61,2.64s0-10-1.17-12.89a26.07,26.07,0,0,1-1.46-4.69C109.78,423.73,106.27,419.33,106.27,422Z"/><path class="cls-18" d="M86.06,410.55s.88-2.64,2.34-2.64,2.93.59,5.27.59c2.64-.3,3.52,1.75,2.93,2.92s-.58,4.11,1.17,5a3.45,3.45,0,0,1,1.76,2.93h.88a3.24,3.24,0,0,1,2.64-3.51c2.63-.88,3.51,6.44,3.51,6.44s3.22-1.76,2.93-11.42-12.89-10-16.69-7.91C89.28,404.69,85.47,406.74,86.06,410.55Z"/><ellipse class="cls-21" cx="103.35" cy="417.89" rx="3.22" ry="1.76" transform="translate(-326.07 448.09) rotate(-80.13)"/><path class="cls-27" d="M85.47,466.19l4.69-2.63-27.24-5-30.75,2.34,21.38,6.45C53.55,467.66,70,470.88,85.47,466.19Z"/><path class="cls-18" d="M64.09,468.24l-7.61-37.78A1.35,1.35,0,0,0,55,429.29l-27.82-1.76c-.88,0-.29.59-.29,1.76l6.44,32.51Z"/><path class="cls-19" d="M58.82,468.83a37.74,37.74,0,0,1,4.1-1.17c.59,0,27.24-4.4,27.24-4.4a2.06,2.06,0,0,1-.59,2.35c-1.17.58-26.65,5.56-26.65,5.56A5.23,5.23,0,0,1,60.58,470c-.88-.88-1.47-1.17-1.76-1.17"/><path class="cls-28" d="M32.17,460.92l30.75,6.45c-1.17,0-1.17,3.51,0,3.51l-28.7-6.44a2.5,2.5,0,0,1-2-2.35v-1.17Z"/><path class="cls-27" d="M62.92,467.66l-7.61-36.91a1.35,1.35,0,0,0-1.47-1.17l-26.65-2.05a1.46,1.46,0,0,0-1.46,1.76l6.44,31.63Z"/><path class="cls-18" d="M106.27,422c1.17,2.63,1.17,2.93.58,5.86-.29,2.63-1.17,5.27-1.46,7.9s.29,5.57,2.34,7.33a8.59,8.59,0,0,1,0-4.69,27.74,27.74,0,0,1,1.76-4.39,32,32,0,0,0,0,5.27,10.21,10.21,0,0,0,1.76,5,8.25,8.25,0,0,0,6.15,2.93,5.43,5.43,0,0,1-2.05-3.52,11.07,11.07,0,0,1,.29-4.39,50,50,0,0,0,.88-11.42c-.59-3.81-2-7.62-5-10-1.17-1.17-2.64-1.76-3.81-2.93s-2-2.93-1.46-4.39"/><path class="cls-21" d="M111.83,464.73a3.24,3.24,0,0,1-2,1.17c-1.46.29-4.68.29-6.44.88s-5,2.64-7.32,2.34a14.18,14.18,0,0,1-4.4,1.17c-1.75,0-2.05,0-2.34-.29,0,0-2.64,1.47-4.69.59,0,0-2,.58-2.92-.3,0,0-.59-.29-.3-1.17l1.47-1.46a1.48,1.48,0,0,1-.3-1.47l1.47-.58a5.85,5.85,0,0,1,1.76-.59c.58,0,1.75-.88,2.34-1.17s7.61-1.76,9.37-2.34,7-2.35,10.25-2.35H111Z"/><path class="cls-22" d="M85.18,470.29a2.24,2.24,0,0,1,.29-1.17h0c.3-.29.88-.29,1.18-.58.29,0,.29-.3.58-.3s.29-.29.59-.29.29-.29.58-.29.3-.3.59-.3l.88-.87c.29,0,.29-.3.58-.3l.59-.29a1.77,1.77,0,0,1,1.17-.29l.88-.3c.29-.29.88-.29,1.17-.58a2.23,2.23,0,0,1-1.17.58c-.3.3-.88.3-1.17.59s-.88.29-1.18.59h-.58c-.29,0-.29.29-.59.29l-.88.88-.58.58c-.29,0-.29.3-.59.3-.29.29-.88.29-1.17.58-.29,0-.88.29-1.17.29h0c0,.3,0,.3-.29.59A.28.28,0,0,1,85.18,470.29Z"/><path class="cls-22" d="M82.25,470h0v-.29a.93.93,0,0,1,.29-.59c0-.29.3-.29.3-.58.29-.3.29-.3.58-.3a.29.29,0,0,0,.3-.29.28.28,0,0,0,.29-.29,6.8,6.8,0,0,0,1.46-.88l.3-.29.29-.3c.29-.29.59-.29.88-.58.58-.3.88-.59,1.46-.59a12.64,12.64,0,0,0,1.47-.58,12.64,12.64,0,0,1-1.47.58,2.25,2.25,0,0,1-1.46.59c-.29,0-.59.29-.88.58l-.29.3-.3.29a6.08,6.08,0,0,0-1.46.88.28.28,0,0,0-.29.29.29.29,0,0,0-.3.29c-.29,0-.29.3-.58.3s-.3.29-.59.29a.28.28,0,0,1-.29.29Z"/><path class="cls-22" d="M83.42,467.37h0c.3-.3.3-.59.59-.88s.58-.59.88-.59c.29-.29.58-.29,1.17-.58.29-.3.88-.3,1.17-.59a1.09,1.09,0,0,1,.88-.29,1,1,0,0,0,.59-.3.28.28,0,0,0,.29-.29l-.29.29c-.3,0-.3.3-.59.3a15.66,15.66,0,0,1-2,.88c-.29.29-.59.29-1.17.58-.3.29-.59.29-.88.59,0,.29-.29.58-.59.88Z"/><path class="cls-22" d="M89.87,470v-.58l.29-.3.29-.29a1.1,1.1,0,0,1,.88-.29h0L92.5,468c.3-.29.59-.29,1.17-.58.3,0,.3-.3.59-.3s.29,0,.59-.29a2.21,2.21,0,0,0,1.17-.59c-.3,0-.3.3-.59.3s-.29.29-.58.29-.3.29-.59.29-.29.3-.59.3c-.29.29-.58.29-1.17.58l-1.17.59h0c-.29,0-.58.29-.88.29h-.29l-.29.29Z"/><path class="cls-26" d="M135.26,457.7c-.29,2.34-2.34,5.86-3.51,6.15-.59,0-4.69.59-9.08,1.17-3.22.3-6.74.88-9.08.88a15.08,15.08,0,0,1-2.64.29v-.29c0-1.17,0-5-4.68-7.61a35.58,35.58,0,0,1,6.15-1.76c3.51-.59,10-2,10-2v-4.4c0-1.75-.59-7.9-.88-9.66h0v-.59h0c-.3-4.68,2-12.59,2-12.59s4.1,0,4.39,3.22a30.59,30.59,0,0,0,.88,6.45,10.46,10.46,0,0,1,.88,3.22c0,.88,1.46,2.05,1.46,3.8.3,1.76,2.35,5.86,3.22,7.91A12.85,12.85,0,0,1,135.26,457.7Z"/><polygon class="cls-28" points="254.07 667.09 124.57 663.9 115 681.43 254.07 681.43 254.07 667.09"/><path class="cls-29" d="M160,604.93s-4,1.19-8.77,2.79-12.75,4.78-14.34,5.57-2,5.18-2.39,7.58-1.2,6.77-1.2,6.77l3.19,35.07,26.7,2s-.8-35.07-1.59-43.83S160,604.93,160,604.93Z"/><path class="cls-21" d="M160.43,593.77s0,16.73,5.58,21.52l3.59,9.56,11.55-6.38s.4-8.36.8-11.15a46.33,46.33,0,0,0,1.19-5.58l3.19-16.34C186.33,585.8,162,580.62,160.43,593.77Z"/><path class="cls-30" d="M181.55,602.14l1.59-.4a23.56,23.56,0,0,1,2-4.78,2,2,0,0,1,2.79-.4s3.58-6.78,2.39-13.95-11.16-12.35-17.14-11.56a18,18,0,0,0-13.55,10c-2.39,4.78,0,10.36.4,11.15a4,4,0,0,1,.4,1.6,3.09,3.09,0,0,1,.8-2s6.37,1.59,12-.4l5.58-2s-1.19,4,1.59,6A3.88,3.88,0,0,1,182,599Z"/><ellipse class="cls-21" cx="185.08" cy="599.29" rx="4.78" ry="2.39" transform="translate(-437.1 519.94) rotate(-65.57)"/><path class="cls-22" d="M182,606.92c-2,3.19-7.57,7.57-11.16,9.16-3.19,1.2-4.78-.4-4.78-.4l2,5.58a21.82,21.82,0,0,0,6-4.38,47,47,0,0,0,8-10Z"/><polygon class="cls-19" points="163.22 665.89 179.96 669.08 184.74 620.07 173.98 619.67 172.38 619.67 161.63 620.07 163.22 665.89"/><path class="cls-24" d="M179.16,622.06s-3.59,6-4,8.37c-.79-.8-2-.4-3.58,0,0,0-1.6-7.57-6.38-10l7.17-1.2H174Z"/><path class="cls-24" d="M174,624.05l.8,6.38s3.18,13.15,4,18.33c1.2,5.18,1.2,20.72,1.2,20.72l-12.76-1.19s-.39-19.93.8-24.71c.8-4.78,3.19-13.15,3.19-13.15Z"/><path class="cls-25" d="M182,606.92s-1.6,8-8.37,12.75l9.56,6,.4-15.94Z"/><path class="cls-25" d="M166,615.29l6,4.38-10.36,6L160,606.52C160.43,606.92,164,613.69,166,615.29Z"/><path class="cls-31" d="M163.22,670.68s-1.2-28.3-2.79-36.27-3.19-19.52-3.19-19.52l1.6-1.6-2-.79s2-6.38,4.39-9.57a28.76,28.76,0,0,0,3.18,10.36c0,8.77,0,22.72,1.6,28.3C167.2,647.56,165.21,665.1,163.22,670.68Z"/><path class="cls-29" d="M184.74,604.13a69.77,69.77,0,0,1,11.16,2.79c4,1.59,6.77,2.39,6.77,2.39s1.2,0,2.39,3.19,3.59,17.93,4.38,20.72,4.39,22.31,4.39,23.91c-.4,1.59-3.59,8.76-19.93,12.75a12.31,12.31,0,0,0-5.18-6.38c-4.38-2.39-6.77-1.19-6.77-1.19l-2.79.79Z"/><path class="cls-31" d="M191.51,618.47s-6.37,20.73-8.37,26.3c-2,6-5.57,24.31-5.57,24.31a42.82,42.82,0,0,0,0-8.37A218.89,218.89,0,0,1,178,637.2c.4-3.18,3.19-18.73,3.59-22.71a22.93,22.93,0,0,0,0-8h0a14.78,14.78,0,0,0,.8-3.59l.4.4c.79.4,1.59,0,2.39-.79,1.59,2.78,3.58,10,3.58,10l-1.59,2.79Z"/><path class="cls-32" d="M180,661.51h0c.39-.8.79-.8,1.19-1.19a8.87,8.87,0,0,1,2-1.2,19.83,19.83,0,0,1,2.79-1.2c1.2-.39,2-.39,3.19-.79.4,0,1.2-.4,1.6-.4.39-.4,1.19-.4,1.59-.8a9.17,9.17,0,0,0,2.79-2.79,3,3,0,0,0,.4-2v-2.39a58.66,58.66,0,0,1-.4-8.37,13.47,13.47,0,0,1,.4-4c.4-1.2.79-2,1.19-3.19,1.6-4,2.39-6.38,2.39-6.38a7.07,7.07,0,0,1-.39,2c-.4,1.2-.8,2.79-1.6,4.79,0,.4-.4,1.19-.4,1.59s-.4,1.2-.4,1.59a11.31,11.31,0,0,0-.39,3.59v4c0,1.19.39,2.79.39,4v2.39a17,17,0,0,1-.39,2,9.17,9.17,0,0,1-2.79,2.79,3,3,0,0,1-1.6.8,3.56,3.56,0,0,1-2,.4c-1.2.4-2.39.4-3.19.8a28.75,28.75,0,0,0-2.79.79c-.79.4-1.19.8-2,1.2A4.45,4.45,0,0,1,180,661.51Z"/><path class="cls-21" d="M168,663.11s.4,2.78,4,4.38,13.55,1.19,13.55,1.19-3.59-6.37-6-7.57a19.56,19.56,0,0,0-5.18-1.59Z"/><path class="cls-22" d="M174.78,663.9l-.4.4h0v.4c-.4.4-.4.8-.8,1.19l-.4.4h-.4l-.4-.4v-.39c0-.4.4-.8.4-1.2h0v-1.59l.4-.8-.4.8a8.86,8.86,0,0,1-1.59,2c-.4.4-.4.8-.8,1.19v.4h0v-.4c.4-.39.4-.79.8-1.19l1.19-1.2h0c-.39.4-.39.8-.39,1.6v.79h1.19c.4,0,.4-.39.8-.39.4-.4.8-.8.8-1.2v-.4h0c0,.4.39.4,0,0a5.1,5.1,0,0,0,2.39-1.59h2.39a.39.39,0,0,1-.4.4v1.19c-.4.8-.4,1.2-.8,2h2.79l.8-.79c0-.4.4-.4.4-.8v4l.4.4.39.39.4.4h0l-.4-.4-.39-.39-.4-.4V663.5l-.4.4c0,.4-.4.8-.8,1.2s-.4.79-.8.79h-2c.4-.79.8-1.19.8-2v-1.19a.39.39,0,0,1,.4-.4v-.8h-3.19l-.8.8A2.08,2.08,0,0,1,174.78,663.9Z"/><path class="cls-30" d="M214.62,669.48l-3.18,2s-5.58-4.78-4.39-9.16S216.62,663.11,214.62,669.48Z"/><path class="cls-18" d="M249.69,653.14s-8,5.58-8.37,7.18c-.4,2-.4,2.39-2,3.58a16.69,16.69,0,0,1-4.78,2s.4,1.2-2,2-20.72,3.18-20.72,3.18,3.58-3.18,2.39-5.18c-1.2-2.39-10.76-5.18-10.76-5.18a18.55,18.55,0,0,1,7.17-2.39c4-.79,6-2,7.17-2s3.59-2.79,5.18-4.38a40,40,0,0,0,4.78-5.18l12.36-20.33Z"/><path class="cls-33" d="M244.51,639.2a111.44,111.44,0,0,0-11.55-.4l-4.79,8.37a40.79,40.79,0,0,1-4.78,5.18l-.8.79A45.41,45.41,0,0,0,237.34,652c1.19-.4,2.79-.8,4,0a4.28,4.28,0,0,1,1.2,2.79c0,1.19.4,2.39.4,3.58a58.83,58.83,0,0,1,6.37-5.18Z"/><path class="cls-21" d="M221,586.2l-.8,4s-.4,3.19,0,4,2.39,2,2.39,2.79-1.59,6-1.59,6-.4,2,2.39,2c0,0-.8,3.18.8,2.79a1.1,1.1,0,0,0,0,1.59c.8.8,1.19,3.19,1.19,4.38-.39,1.2,2.79,2,5.58,1.2a30.55,30.55,0,0,0,5.58-2s4.78,5.57,8.77,6.77l4.38.8,10.36-14s-4.38-6.38-5.18-11.16C254.87,591,225.78,584.2,221,586.2Z"/><path class="cls-22" d="M236.94,613.29a28.75,28.75,0,0,0,4.78,4.39c2.39-5.18,3.59-13.15,3.59-13.15A43.35,43.35,0,0,1,236.94,613.29Z"/><path class="cls-30" d="M300.3,687.41H249.69s3.19-18.73-4.78-33.87c-4.78-10.36-5.18-23.11-4-27.49,1.2-4.79,18.73-24.71,18.73-24.71,0,.4,3.19,2,3.19,2s3.19-.4,8.37,2.79,14.74,14.75,16.34,21.52c1.59,6.38,2.79,20.72,3.58,26.7s2,8.77,2.39,11.55c0,2.79,0,3.59,1.2,4.79C295.52,671.47,300.7,681.44,300.3,687.41Z"/><path class="cls-18" d="M242.12,645.17s-1.59-15.14,1.59-21.12c3.19-5.58,13.55-19.12,17.14-21.91l-4-4s-3.18,3.19-5.57,6a41.61,41.61,0,0,0-7.18,11.16c-2.39,5.18-4.38,8-4.78,13.94C238.93,634.81,242.12,645.17,242.12,645.17Z"/><path class="cls-21" d="M195.9,647.17s-7.18-2-9.57-2.4-3.19-.39-4.38.4c-1.6.8-3.19,1.2-8,1.2a39.55,39.55,0,0,1-6.78-.4s-2.39.8-3.18,1.2l-1.2,1.59s.8,2.39-1.19,2l-.8-1.19s-.8-.8-.4-1.6.8-2.79,1.2-3.19a23.9,23.9,0,0,1,3.18-1.59l-.39-.4a31,31,0,0,1-3.59.4l-.4.4a1.48,1.48,0,0,1,.8,1.19,10.27,10.27,0,0,1-.8,2s-1.59-.4-2-1.2-2-9.56-2-9.56a6.25,6.25,0,0,1,3.18-1.2c1.6-.4,3.59-.4,4.79-.79a12.7,12.7,0,0,1,5.57-.4c1.6.4,7.58,2,8.37,2s13.95.4,13.95.4Z"/><path class="cls-22" d="M156.45,640.39h0a1.44,1.44,0,0,1,1.19-.4c.4,0,.8-.4,1.2-.4a3.08,3.08,0,0,0,1.59-.39,6.76,6.76,0,0,0,2.79-.4h.8c-.4,0-.4,0-.8.4a1.49,1.49,0,0,0-1.2.39h-1.59c-.8,0-2,.4-2.79.4A1.71,1.71,0,0,0,156.45,640.39Z"/><path class="cls-22" d="M164.42,635.21h0c-.4,0-.8.4-1.2.4s-.8.4-1.2.4h-3.18a1.47,1.47,0,0,0-1.2.4,3.09,3.09,0,0,1-1.19.4h.39c.4,0,.4-.4.8-.4s.8-.4,1.2-.4h4.38c.4-.4.8-.4,1.2-.8Z"/><path class="cls-18" d="M191.11,634.41s4.79,17.14,3.19,18.73a4.76,4.76,0,0,0,2.79,0A117.58,117.58,0,0,1,209.44,652c2.4,0,21.12-1.6,28.3-2.79s22.71-7.57,25.1-8.77c2-.8,12.36-2.39,14.35-8,2-5.18,1.19-16.34-2-21.52s-10.76-8.76-14.35-6.77a19.77,19.77,0,0,0-10.36,16.74,3.1,3.1,0,0,1-1.2,2.39c-1.19.79-9.16,4-11.55,6s-4,3.19-5.18,2.79a14.85,14.85,0,0,0-5.58-.79c-4,.39-11.56,1.59-16.74,2.39C204.26,634.41,191.11,634.41,191.11,634.41Z"/><path class="cls-19" d="M192.31,669.48l-38.26-4.38-3.18,7.17C147.68,672.67,190.72,671.07,192.31,669.48Z"/><path id="SVGCleanerId_0-3" data-name="SVGCleanerId 0" class="cls-18" d="M161.63,672.27l1.59-1.2,29.09-1.19a2.89,2.89,0,0,1-2,3.19c-2.39.79-27.5,3.18-27.5,3.18Z"/><path id="SVGCleanerId_1" data-name="SVGCleanerId 1" class="cls-30" d="M117.39,665.89l45.43,4.79-.4,4.78-43-4.78c-.4,0-.8-.4-1.2-.8Z"/><path id="SVGCleanerId_2" data-name="SVGCleanerId 2" class="cls-30" d="M109,626.05s.79-1.6,3.58-1.6c2.39,0,43,3.19,43,3.19s1.59,0,2,2.39c.8,3.19,6.38,39.05,6.38,40.25s-1.2,1.19-2.39,1.59-43.44-4.78-43.44-4.78c-.8-.4-1.2,0-2-2.79C115,659.52,109,626.05,109,626.05Z"/><path id="SVGCleanerId_3" data-name="SVGCleanerId 3" class="cls-18" d="M109,626.44s0-1.59,2.39-1.59S154.05,628,154.05,628s1.6,0,2,2.39c.79,3.19,7.57,38.65,7.57,39.85s-1.2,1.19-2.39,1.19c-1.2.4-43-4.78-43-4.78-.8-.4-1.2,0-2-2.79C114.6,659.92,109,626.44,109,626.44Z"/><path class="cls-18" d="M239.73,600.14h2.39a6.23,6.23,0,0,1,2-5.18c2-2,4-1.59,5.18-.4.4.8,2,2.79,2.79,4a1.39,1.39,0,0,0,2,.4l2.39-1.2a31.22,31.22,0,0,1,0-6.37c.39-2.39.39-14.75-9.17-19.53-9.56-5.18-21.52,2-25.1,3.59S217,579,217,583.81c0,3.18,3.58,6.37,4,6.37a21.39,21.39,0,0,0,8.77.4c5.18-.8,7.17-1.2,8.37,2A19.89,19.89,0,0,1,239.73,600.14Z"/><path class="cls-30" d="M192.31,669.48l-38.26-4.38-3.18,7.17C147.68,672.67,190.72,671.07,192.31,669.48Z"/><path id="SVGCleanerId_0-4" data-name="SVGCleanerId 0" class="cls-18" d="M161.63,672.27l1.59-1.2,29.09-1.19a2.89,2.89,0,0,1-2,3.19c-2.39.79-27.5,3.18-27.5,3.18Z"/><path id="SVGCleanerId_1-2" data-name="SVGCleanerId 1" class="cls-30" d="M117.39,665.89l45.43,4.79-.4,4.78-43-4.78c-.4,0-.8-.4-1.2-.8Z"/><path id="SVGCleanerId_2-2" data-name="SVGCleanerId 2" class="cls-30" d="M109,626.05s.79-1.6,3.58-1.6c2.39,0,43,3.19,43,3.19s1.59,0,2,2.39c.8,3.19,6.38,39.05,6.38,40.25s-1.2,1.19-2.39,1.59-43.44-4.78-43.44-4.78c-.8-.4-1.2,0-2-2.79C115,659.52,109,626.05,109,626.05Z"/><path id="SVGCleanerId_3-2" data-name="SVGCleanerId 3" class="cls-18" d="M109,626.44s0-1.59,2.39-1.59S154.05,628,154.05,628s1.6,0,2,2.39c.79,3.19,7.57,38.65,7.57,39.85s-1.2,1.19-2.39,1.19c-1.2.4-43-4.78-43-4.78-.8-.4-1.2,0-2-2.79C114.6,659.92,109,626.44,109,626.44Z"/><ellipse class="cls-21" cx="246.15" cy="596.95" rx="4.78" ry="2.79" transform="translate(-393.53 684.98) rotate(-75.43)"/><path class="cls-21" d="M213.83,668.68h0c-2,.8-4,2-4.39,2-.79.39-.39.39-2,1.19-1.19.8-5.18,0-5.18,0-.4.4-2.79,0-3.19-.4-.39,0-.79-.4-1.19-.79s-2.39-2.79-2.39-3.59.4-2,.4-2.79v-2c0-.4,1.19-1.2,1.19-1.6s-.4-1.19,0-2a2.13,2.13,0,0,1,1.6-1.19,1.39,1.39,0,0,0,.79-.4c0-.4,0-.4.4-1.2s2.39-.79,3.59,0a34,34,0,0,0,4,2h.8a3,3,0,0,1,1.59.4c1.2.4,1.2,1.2,1.6,2.79,0,1.6.79,2,.79,2h0a1.4,1.4,0,0,0,.8.4h0q1.2.6,1.2,1.2C214.62,667.09,214.23,667.89,213.83,668.68Z"/><path class="cls-22" d="M206.65,659.12h-1.59c-.8,0-.8,1.2-.8,1.59a2.66,2.66,0,0,0,1.6,2c.4.4.79.4,2,.79l1.2.4a10.31,10.31,0,0,1-2.79-.79,6.91,6.91,0,0,1-1.6-1.2,2.21,2.21,0,0,1-.79-2,2.4,2.4,0,0,0-.4-1.6c-.4-.79,0-.79.4-.4s.39.4.39.8v-1.19a2.93,2.93,0,0,1,1.2,1.19C205.06,659.12,206.26,658.72,206.65,659.12Z"/><path class="cls-22" d="M206.26,663.11a3.09,3.09,0,0,1,1.59,1.59,1.87,1.87,0,0,1-.4,2.39v-.4a1.74,1.74,0,0,1-.4,2,3,3,0,0,1-1.59.8h0a2.18,2.18,0,0,1-2.39,1.59h0c0,.4-.4.8-.8,1.2.4-.4.8-.8.8-1.2h0c.8,0,2-.79,2-1.59h0a3,3,0,0,0,1.59-.8,2.37,2.37,0,0,0,.4-1.59h0a3,3,0,0,0,.4-2A3.38,3.38,0,0,0,206.26,663.11Z"/><path class="cls-22" d="M207.45,666.69a1.1,1.1,0,0,1-1.59,0,6.18,6.18,0,0,1-3.19-2.39c-.4-.4-.8-1.19-1.2-1.59s-.79-1.2-1.19-1.6a2.75,2.75,0,0,1,0-2,3.92,3.92,0,0,0,.4,1.59c0,.4.79.8,1.19,1.6.4.4.8,1.19,1.2,1.59a6.18,6.18,0,0,0,3.19,2.39C206.65,667.49,207.45,667.09,207.45,666.69Z"/><path class="cls-22" d="M205.46,669.08h-1.59a11.84,11.84,0,0,1-2.79-2c-.4-.4-1.2-.8-1.2-1.2a3,3,0,0,1-.8-1.59l-.79-1.59a4.83,4.83,0,0,1,.79,1.19c.4.4.4.8.8,1.6l1.2,1.19c1.19.8,2,1.6,2.79,2C205.06,669.48,205.46,669.08,205.46,669.08Z"/><path class="cls-22" d="M203.47,670.68h-1.2a2.92,2.92,0,0,1-2.39-.8,8.28,8.28,0,0,1-1.59-2.39,3.1,3.1,0,0,1-.4-1.2l.79.8c.4.4.8,1.59,1.6,2a2.92,2.92,0,0,0,2.39.8C203.07,670.68,203.47,670.68,203.47,670.68Z"/><path class="cls-21" d="M192.31,666.69c-2.79,2.79-6.77,3.19-8.77,2.39-2-1.19-2-4.78-2-4.78a15.6,15.6,0,0,1-1.59,2c-.8.8-2,0-2,0l1.2-2.39a2.07,2.07,0,0,1,.8-1.59v-.4h-2.39l-2.79,2.79c-.4.4-1.6,2.79-2.79,2s0-2.39,0-2.79l.39-1.19s-2,2.79-2.79,3.58c-.39.8-1.59,2-2.78,1.2-.8-.8,0-2.39,0-2.39s-1.2,2-2,.79.4-3.18.8-3.58,2.39-3.19,2.79-3.59.4-.8,1.19-.8a22.31,22.31,0,0,1,2.79.4h.8a14,14,0,0,1,2.39.4,1.48,1.48,0,0,1,1.2-.8c.79,0,1.59,1.2,2,2a.39.39,0,0,0,.4.4,17.34,17.34,0,0,0,1.59,1.19c.4-.8.8-1.19,1.6-1.19s1.19,1.19,1.19,1.19a9.45,9.45,0,0,1,4.78,1.6A7.1,7.1,0,0,1,192.31,666.69Z"/><rect class="cls-19" x="115" y="681.44" width="185.3" height="42.64"/><polygon class="cls-28" points="242.52 666.69 242.52 681.43 300.3 681.43 300.3 667.09 242.52 666.69"/><rect class="cls-19" x="230.96" y="681.44" width="69.34" height="42.64"/><path class="cls-34" d="M375.29,902h0c-3-3.44-9.34-5.41-10.32-7.37s1.48-17.2,2-24.57,1-38.33-1-40.29l-3.93-2s-4.42-1.47-9.33,7.37c-5.41,8.85-4.92,16.22-6.88,22.12s-4.91,13.26-6.39,18.18-7.86,21.12-7.86,25.06a1.8,1.8,0,0,0,.49,1.47Z"/><path class="cls-34" d="M451.94,902c1-16.71,1.48-56.51,1.48-56.51l-25.06-11.3-1,6.88c-.49,5.41-7.37,41.27-10.81,60.44h35.38V902Z"/><path class="cls-34" d="M413.62,902h7.86a128.21,128.21,0,0,0,4.91-12.28c7.37-20.64,7.37-21.62,7.37-30.47s-6.39-27-6.39-27l-4.42-2s2.46,27-2,45.7C419.51,882.85,416.56,892.18,413.62,902Z"/><path class="cls-20" d="M365,868.6c-1.47,6.88-2.46,20.63-3.44,33.41h48.65c-2.46-20.64-8.85-75.18-18.18-81.57l-30,7.37S367.92,854.35,365,868.6Z"/><path class="cls-24" d="M441.62,802.26c-2.45-6.88-6.38-11.3-10.31-11.3-7.38,0-13.76,14.74-13.76,32.92s5.89,32.92,13.76,32.92c3.93,0,7.86-4.42,10.31-11.3Z"/><path class="cls-21" d="M409.69,902h8.84c5.9-14.74,11.3-45.7,4.91-52.08-1-1-2.94-24.08-2.94-24.08s6.38,2.95,10.81-6.39c3.44-7.37,8.84-16.71,8.84-16.71,4.91-26-16.21-27.51-16.21-27.51L402.32,790l-6.88,29.48,3.44,38.33Z"/><path class="cls-35" d="M400.35,867.61c1,2.46,3.93,19.66,6.39,34.4h6.88a165.6,165.6,0,0,0-3.93-35.38c-3.44-18.18-12.78-44.22-12.78-44.22l-15.23,9.33C392.49,842.06,398.38,863.68,400.35,867.61Z"/><path class="cls-22" d="M423,845.5c-1-6.88-2-19.65-2-19.65a30.56,30.56,0,0,1-18.67-14.74S407.23,835.68,423,845.5Z"/><path class="cls-20" d="M451.94,902c1-16.71,1.48-56.51,1.48-56.51l-25.06-11.3-1,6.88c-.49,5.41-7.37,41.27-10.81,60.44h35.38V902Z"/><path class="cls-35" d="M413.62,902h7.86a128.21,128.21,0,0,0,4.91-12.28c7.37-20.64,7.37-21.62,7.37-30.47s-6.39-27-6.39-27l-4.42-2s2.46,27-2,45.7C419.51,882.85,416.56,892.18,413.62,902Z"/><path class="cls-24" d="M393.47,772.29s-6.39,4.91-9.83,17.69-4.91,30.95-10.31,43.73S366,848.94,366,848.94s8.85,1,9.83,1,19.16,2.94,19.16-8.85-7.37-29-3.43-40.78S393.47,772.29,393.47,772.29Z"/><path class="cls-24" d="M406.74,852.38a1.52,1.52,0,0,1,.49-1C407.23,851.89,407.23,852.38,406.74,852.38Z"/><path class="cls-24" d="M446.05,843.05c-1.48,9.82-8.85,18.18-9.34,18.67,1.47-8.36,1.47-16.22-.49-22.61a51.63,51.63,0,0,1-1.48-17.68h0c.5-4.43,6.39-24.08,2.46-30-3.93-6.38-14.25-9.33-14.25-9.33-2.45,3-10.32,7.37-14.25,10.81-3.93,3-7.86,8.35,1,35.38,9.33,26.53,0,33.9,0,33.9,7.37-21.62-5.41-30.47-5.41-30.47,5.9,7.38,3.93,16.71,3,20.15.49-2.95.49-7.37-2-13.27a14.67,14.67,0,0,0-8.35-8.84s-.49,1.47,1,17.2-7.86,20.63-8.35,20.63c0,0,.49-.49,2.95-5.89,2-3.93.49-14.74-1-21.62a267.86,267.86,0,0,1-4.43-27.52c-1-10.81-1.47-20.64-.49-29a29.27,29.27,0,0,1,5.9-15.72c2.95-3.93,6.88-7.37,12.28-8.35,9.34-2,16.71-2,26,5.89,9.34,7.37,14.25,24.08,14.25,30.47,0,5.89-1,18.67-1,18.67s0,.49.49,4.42C445.06,822.41,447.52,833.22,446.05,843.05Z"/><path class="cls-24" d="M436.22,830.27h0a1.52,1.52,0,0,0-.49,1,17.09,17.09,0,0,0-1.48,3,14.61,14.61,0,0,0-1,4.91,24.06,24.06,0,0,0-.49,5.9v5.9a9.91,9.91,0,0,1-1.47,5.4c-.5.49-.5,1.48-1,2s-.49,1-1,1.47-.49.49-1,.49l-.49.5v-.5a1.71,1.71,0,0,0,.49-1c.49-.49.49-1,1-1.47s.49-1,1-2a15.17,15.17,0,0,0,.49-4.91c0-2-.49-3.93-.49-5.9s-.49-3.93-.49-5.9.49-3.93.49-5.4a15.28,15.28,0,0,0,1-3.93,1.71,1.71,0,0,1,.49-1v-.49Z"/><path class="cls-24" d="M421,825.85a30.25,30.25,0,0,0-4.43,22.6c1,5.9,3.94,11.3,5.41,17.2a33.83,33.83,0,0,1-1.47,19.65c5.4-5.89,11.3-12.28,15.72-19.16s7.86-14.74,8.35-23.09c.49-7.87-1.47-15.24-3.93-22.61C433.76,825.36,426.88,828.8,421,825.85Z"/><path class="cls-30" d="M456.36,902H476a75.17,75.17,0,0,0,4.91-31.94c-2.45-19.65-7.37-59.94-5.89-64.37s9.82-23.58,9.82-23.58S468.16,789,465.7,790c-2.46,1.47-2.46,1-3.93,3.44s-4.91,19.16-4.91,23.58,3.44,41.77,3.44,41.77Z"/><path class="cls-21" d="M524.17,784.08,493.22,805.7l-3.93-11.3s.49-9.33,0-11.79a99.62,99.62,0,0,1-14.25-29l-4.92-17.2s-3.93-9.34,12.78-13.27c16.21-3.44,21.13-3.44,24.08-.49l9.82,31s-.49,11.3-1,12.77a26.77,26.77,0,0,0,4.42,12.29Z"/><path class="cls-18" d="M475,754.11s-1-6.39-2-10.81-1-8.35,1-9.34,13.27-1,22.11-5.4S505,731,505,733.47c0,2.95,0,5.9,2.46,8.36a16,16,0,0,1,4.42,7.86l.49,2.45h1.47a77.57,77.57,0,0,0,1-8.35c0-2.95,3.44-7.37,3.44-7.37s1-24.08-21.62-25.06c0,0-6.39-4.91-19.17,3.93s-10.32,19.66-9.82,23.1C468.65,742.32,475,754.11,475,754.11Z"/><path class="cls-21" d="M521.72,747.23c-1,5.41-3.44,9.34-5.41,8.85s-3.44-4.92-2.46-10.32,3.44-9.34,5.41-8.85C521.22,736.91,522.21,741.83,521.72,747.23Z"/><path class="cls-22" d="M508.94,794.4c9.34-12.28,7.86-22.6,7.37-26h0a5.15,5.15,0,0,0-.49-2h0c-.49,8.36-8.84,19.66-15.72,21.13s-10.81-4.42-10.81-4.42c.49,2.46,0,11.79,0,11.79l3.93,11.3,15.23-10.81C508.45,794.89,508.45,794.89,508.94,794.4Z"/><path class="cls-19" d="M490.76,793.42l2.46,12.77,8.35-13.26,11.79,5.89-22.6,90.91-18.18-14.25,7.86-85.5S485.36,781.13,490.76,793.42Z"/><path class="cls-30" d="M544.32,902,535,848.94s0-1,4.42-18.18,17.2-33.41,17.2-33.41-10.32-4.91-18.18-9.34-10.32-4.42-10.32-4.42l-2.45,1.48s-37.84,72.72-43.73,96.3A69.18,69.18,0,0,0,480.44,902Z"/><path class="cls-18" d="M486.83,783.1a88.71,88.71,0,0,0-6.39,23.59c-2,12.77,0,63.87,0,63.87s-8.35-37.83-8.84-47.17,2-27,2-27l5.9-3.93-2-1.48,9.83-10.81Z"/><path class="cls-25" d="M517.29,772.29S508,788,501.57,792.93c0,0,5.41,14.74,5.9,15.23,0,.49,15.23-30,15.23-30Z"/><path class="cls-18" d="M518.77,774.26s-5.9,17.68-8.85,24.07c-3.44,6.39-15.72,35.38-22.11,59.46l-5.89,24.07S511.4,820,522.21,804.72l-3.93-4.42,7.37-2.46s0-6.39,1.47-9.83,1-4.42,1-4.42a15.7,15.7,0,0,0-4.42-4.42C520.73,776.71,520.73,774.75,518.77,774.26Z"/><path class="cls-18" d="M547.27,902a15.41,15.41,0,0,0,10.32-3.44h0c3.93-3,3.44-4.91,3.93-9.83.49-4.42,4.91-33.9,5.4-44.22s-1-29-2-38.82c-1.48-9.82-8.36-8.84-8.36-8.84s-13.26,15.72-17.2,33.41c-1,3.44-1.47,6.39-2,8.84h0c0,.5,1.47,16.22,1,28.5-.49,6.88-1,12.29-3.44,13.76-6.39,3.44-39.31,6.39-45.2,17.2-.49,1-1,2.46-1.48,3.44Z"/><path class="cls-25" d="M489.29,783.1a91.41,91.41,0,0,1,2.94,16.71s-3.93-6.39-5.89-8.85l-2.95-3,2.95-8.84C486.83,779.17,488.3,782.12,489.29,783.1Z"/><path class="cls-28" d="M540.39,903.48l-95.82,2.46a3.36,3.36,0,0,1-3.44-3.44l1-53.56a3.36,3.36,0,0,1,3.44-3.44H549.72c2,0,3.44,2,3.44,3.93l-9.33,51.11A3.59,3.59,0,0,1,540.39,903.48Z"/><ellipse class="cls-27" cx="497.13" cy="875.45" rx="9.83" ry="5.9" transform="translate(-68.53 42.63) rotate(-4.59)"/><polygon class="cls-36" points="196.31 294.74 192.58 296.9 185.34 301.08 179.81 304.27 156.36 317.8 152.84 319.84 149.1 317.69 141.61 313.39 108.46 294.37 99.2 289.04 87.98 282.6 87.92 262.53 87.87 242.47 87.82 222.41 131.27 197.31 196.15 234.55 196.26 274.68 196.31 294.74"/><polygon class="cls-37" points="152.79 299.77 87.92 262.53 87.87 242.47 152.73 279.71 152.79 299.77"/><ellipse class="cls-38" cx="97.92" cy="278.3" rx="3.05" ry="5.28" transform="matrix(0.86, -0.51, 0.51, 0.86, -127.14, 87.55)"/><ellipse class="cls-38" cx="97.86" cy="258.24" rx="3.05" ry="5.28" transform="matrix(0.86, -0.51, 0.51, 0.86, -117.02, 84.77)"/><path class="cls-36" d="M146.54,291.34a1.76,1.76,0,0,1-1.77-1.76l0-6.83a1.76,1.76,0,0,1,1.76-1.78h0a1.77,1.77,0,0,1,1.77,1.77l0,6.83a1.78,1.78,0,0,1-.51,1.25,1.81,1.81,0,0,1-1.25.52Z"/><path class="cls-36" d="M141.55,288.48a1.77,1.77,0,0,1-1.77-1.77l0-6.83a1.72,1.72,0,0,1,.51-1.25,1.77,1.77,0,0,1,1.25-.52h0a1.78,1.78,0,0,1,1.77,1.76l0,6.83a1.78,1.78,0,0,1-1.77,1.78Z"/><path class="cls-36" d="M136.56,285.61a1.76,1.76,0,0,1-1.77-1.76l0-6.83a1.72,1.72,0,0,1,.51-1.25,1.74,1.74,0,0,1,1.25-.53h0a1.78,1.78,0,0,1,1.77,1.77l0,6.83a1.73,1.73,0,0,1-.52,1.25,1.77,1.77,0,0,1-1.25.52Z"/><path class="cls-36" d="M131.57,282.75A1.77,1.77,0,0,1,129.8,281l0-6.82a1.78,1.78,0,0,1,1.77-1.78h0a1.78,1.78,0,0,1,1.77,1.77l0,6.82a1.81,1.81,0,0,1-.52,1.26,1.77,1.77,0,0,1-1.25.52Z"/><path class="cls-36" d="M126.58,279.88a1.76,1.76,0,0,1-1.77-1.76l0-6.83a1.77,1.77,0,0,1,.52-1.25,1.73,1.73,0,0,1,1.25-.52h0a1.76,1.76,0,0,1,1.77,1.76l0,6.83a1.77,1.77,0,0,1-1.77,1.77Z"/><path class="cls-36" d="M121.59,277a1.77,1.77,0,0,1-1.77-1.77l0-6.82a1.78,1.78,0,0,1,1.77-1.78h0a1.77,1.77,0,0,1,1.77,1.77l0,6.82a1.8,1.8,0,0,1-.52,1.26,1.77,1.77,0,0,1-1.25.52Z"/><polygon class="cls-39" points="196.21 254.62 152.73 279.71 152.68 259.65 87.82 222.41 131.27 197.31 196.15 234.55 196.21 254.62"/><polygon class="cls-40" points="196.26 274.68 152.79 299.77 152.73 279.71 196.21 254.62 196.26 274.68"/><polygon class="cls-39" points="196.31 294.74 192.58 296.9 185.34 301.08 179.81 304.27 156.36 317.8 152.84 319.84 152.79 299.77 196.26 274.68 196.31 294.74"/><polygon class="cls-39" points="196.31 254.44 192.58 256.6 185.34 260.77 179.81 263.96 156.36 277.49 152.84 279.53 152.79 259.46 196.26 234.37 196.31 254.44"/><ellipse class="cls-38" cx="97.82" cy="238.16" rx="3.05" ry="5.28" transform="translate(-106.88 82) rotate(-30.33)"/><path class="cls-37" d="M146.59,311.41a1.77,1.77,0,0,1-1.77-1.77l0-6.83a1.76,1.76,0,0,1,1.76-1.77h0a1.76,1.76,0,0,1,1.77,1.76l0,6.83a1.77,1.77,0,0,1-1.76,1.78Z"/><path class="cls-37" d="M141.6,308.54a1.77,1.77,0,0,1-1.77-1.76l0-6.83a1.77,1.77,0,0,1,1.76-1.78h0a1.77,1.77,0,0,1,1.77,1.77l0,6.83a1.77,1.77,0,0,1-1.76,1.77Z"/><path class="cls-37" d="M136.61,305.68a1.77,1.77,0,0,1-1.77-1.77l0-6.83a1.76,1.76,0,0,1,1.76-1.77h0a1.77,1.77,0,0,1,1.77,1.76l0,6.83a1.77,1.77,0,0,1-1.76,1.78Z"/><path class="cls-37" d="M131.62,302.82a1.77,1.77,0,0,1-1.77-1.77l0-6.83a1.77,1.77,0,0,1,1.76-1.78,1.81,1.81,0,0,1,1.78,1.77l0,6.83a1.78,1.78,0,0,1-1.77,1.78Z"/><path class="cls-37" d="M126.63,300a1.77,1.77,0,0,1-1.77-1.77l0-6.82a1.76,1.76,0,0,1,1.76-1.78h0a1.77,1.77,0,0,1,1.77,1.77l0,6.82a1.77,1.77,0,0,1-1.76,1.78Z"/><path class="cls-37" d="M121.64,297.09a1.77,1.77,0,0,1-1.77-1.77l0-6.83a1.75,1.75,0,0,1,1.76-1.77h0a1.76,1.76,0,0,1,1.77,1.76l0,6.83a1.78,1.78,0,0,1-1.77,1.78Z"/><path class="cls-37" d="M146.49,271.28a1.77,1.77,0,0,1-1.77-1.77l0-6.83a1.77,1.77,0,0,1,1.77-1.77h0a1.76,1.76,0,0,1,1.77,1.76l0,6.83a1.78,1.78,0,0,1-1.77,1.78Z"/><path class="cls-37" d="M141.5,268.41a1.78,1.78,0,0,1-1.78-1.76l0-6.83a1.78,1.78,0,0,1,1.77-1.78h0a1.77,1.77,0,0,1,1.77,1.77l0,6.83a1.77,1.77,0,0,1-1.77,1.77Z"/><path class="cls-37" d="M136.51,265.55a1.77,1.77,0,0,1-1.77-1.77l0-6.83a1.77,1.77,0,0,1,1.77-1.77h0a1.78,1.78,0,0,1,1.78,1.76l0,6.83a1.78,1.78,0,0,1-1.77,1.78Z"/><path class="cls-37" d="M131.52,262.68a1.77,1.77,0,0,1-1.78-1.76l0-6.83a1.78,1.78,0,0,1,1.77-1.78h0a1.77,1.77,0,0,1,1.77,1.77l0,6.83a1.77,1.77,0,0,1-1.77,1.77Z"/><path class="cls-37" d="M126.52,259.82a1.78,1.78,0,0,1-1.77-1.76l0-6.83a1.78,1.78,0,0,1,1.77-1.78h0a1.77,1.77,0,0,1,1.77,1.77l0,6.83a1.77,1.77,0,0,1-1.77,1.77Z"/><path class="cls-37" d="M121.53,257a1.78,1.78,0,0,1-1.77-1.77l0-6.83a1.77,1.77,0,0,1,1.77-1.77h0a1.76,1.76,0,0,1,1.77,1.76l0,6.83a1.77,1.77,0,0,1-1.76,1.78Z"/><polygon class="cls-36" points="196.31 234.74 192.58 236.9 185.34 241.08 179.81 244.27 156.36 257.8 152.84 259.84 149.1 257.69 141.61 253.39 108.46 234.37 99.2 229.04 87.98 222.6 87.92 202.53 87.87 182.47 87.82 162.41 131.27 137.31 196.15 174.55 196.26 214.68 196.31 234.74"/><polygon class="cls-37" points="152.79 239.77 87.92 202.53 87.87 182.47 152.73 219.71 152.79 239.77"/><ellipse class="cls-38" cx="97.92" cy="218.3" rx="3.05" ry="5.28" transform="matrix(0.86, -0.51, 0.51, 0.86, -96.84, 79.33)"/><ellipse class="cls-38" cx="97.86" cy="198.24" rx="3.05" ry="5.28" transform="matrix(0.86, -0.51, 0.51, 0.86, -86.72, 76.56)"/><path class="cls-36" d="M146.54,231.34a1.76,1.76,0,0,1-1.77-1.76l0-6.83a1.76,1.76,0,0,1,1.76-1.78h0a1.77,1.77,0,0,1,1.77,1.77l0,6.83a1.78,1.78,0,0,1-.51,1.25,1.81,1.81,0,0,1-1.25.52Z"/><path class="cls-36" d="M141.55,228.48a1.77,1.77,0,0,1-1.77-1.77l0-6.83a1.72,1.72,0,0,1,.51-1.25,1.77,1.77,0,0,1,1.25-.52h0a1.78,1.78,0,0,1,1.77,1.76l0,6.83a1.78,1.78,0,0,1-1.77,1.78Z"/><path class="cls-36" d="M136.56,225.61a1.76,1.76,0,0,1-1.77-1.76l0-6.83a1.72,1.72,0,0,1,.51-1.25,1.74,1.74,0,0,1,1.25-.53h0a1.78,1.78,0,0,1,1.77,1.77l0,6.83a1.73,1.73,0,0,1-.52,1.25,1.77,1.77,0,0,1-1.25.52Z"/><path class="cls-36" d="M131.57,222.75A1.77,1.77,0,0,1,129.8,221l0-6.82a1.78,1.78,0,0,1,1.77-1.78h0a1.78,1.78,0,0,1,1.77,1.77l0,6.82a1.81,1.81,0,0,1-.52,1.26,1.77,1.77,0,0,1-1.25.52Z"/><path class="cls-36" d="M126.58,219.88a1.76,1.76,0,0,1-1.77-1.76l0-6.83a1.77,1.77,0,0,1,.52-1.25,1.73,1.73,0,0,1,1.25-.52h0a1.76,1.76,0,0,1,1.77,1.76l0,6.83a1.77,1.77,0,0,1-1.77,1.77Z"/><path class="cls-36" d="M121.59,217a1.77,1.77,0,0,1-1.77-1.77l0-6.82a1.78,1.78,0,0,1,1.77-1.78h0a1.77,1.77,0,0,1,1.77,1.77l0,6.82a1.8,1.8,0,0,1-.52,1.26,1.77,1.77,0,0,1-1.25.52Z"/><polygon class="cls-39" points="196.21 194.62 152.73 219.71 152.68 199.65 87.82 162.41 131.27 137.31 196.15 174.55 196.21 194.62"/><polygon class="cls-40" points="196.26 214.68 152.79 239.77 152.73 219.71 196.21 194.62 196.26 214.68"/><polygon class="cls-39" points="196.31 234.74 192.58 236.9 185.34 241.08 179.81 244.27 156.36 257.8 152.84 259.84 152.79 239.77 196.26 214.68 196.31 234.74"/><polygon class="cls-39" points="196.31 194.44 192.58 196.59 185.34 200.77 179.81 203.96 156.36 217.49 152.84 219.53 152.79 199.46 196.26 174.37 196.31 194.44"/><ellipse class="cls-38" cx="97.82" cy="178.16" rx="3.05" ry="5.28" transform="translate(-76.58 73.79) rotate(-30.33)"/><path class="cls-37" d="M146.59,251.41a1.77,1.77,0,0,1-1.77-1.77l0-6.83a1.76,1.76,0,0,1,1.76-1.77h0a1.76,1.76,0,0,1,1.77,1.76l0,6.83a1.77,1.77,0,0,1-1.76,1.78Z"/><path class="cls-37" d="M141.6,248.54a1.77,1.77,0,0,1-1.77-1.76l0-6.83a1.77,1.77,0,0,1,1.76-1.78h0a1.77,1.77,0,0,1,1.77,1.77l0,6.83a1.77,1.77,0,0,1-1.76,1.77Z"/><path class="cls-37" d="M136.61,245.68a1.77,1.77,0,0,1-1.77-1.77l0-6.83a1.76,1.76,0,0,1,1.76-1.77h0a1.77,1.77,0,0,1,1.77,1.76l0,6.83a1.77,1.77,0,0,1-1.76,1.78Z"/><path class="cls-37" d="M131.62,242.82a1.77,1.77,0,0,1-1.77-1.77l0-6.83a1.77,1.77,0,0,1,1.76-1.78,1.81,1.81,0,0,1,1.78,1.77l0,6.83a1.78,1.78,0,0,1-1.77,1.78Z"/><path class="cls-37" d="M126.63,240a1.77,1.77,0,0,1-1.77-1.77l0-6.82a1.76,1.76,0,0,1,1.76-1.78h0a1.77,1.77,0,0,1,1.77,1.77l0,6.82a1.77,1.77,0,0,1-1.76,1.78Z"/><path class="cls-37" d="M121.64,237.09a1.77,1.77,0,0,1-1.77-1.77l0-6.83a1.75,1.75,0,0,1,1.76-1.77h0a1.76,1.76,0,0,1,1.77,1.76l0,6.83a1.78,1.78,0,0,1-1.77,1.78Z"/><path class="cls-37" d="M146.49,211.28a1.77,1.77,0,0,1-1.77-1.77l0-6.83a1.77,1.77,0,0,1,1.77-1.77h0a1.76,1.76,0,0,1,1.77,1.76l0,6.83a1.78,1.78,0,0,1-1.77,1.78Z"/><path class="cls-37" d="M141.5,208.41a1.78,1.78,0,0,1-1.78-1.76l0-6.83a1.78,1.78,0,0,1,1.77-1.78h0a1.77,1.77,0,0,1,1.77,1.77l0,6.83a1.77,1.77,0,0,1-1.77,1.77Z"/><path class="cls-37" d="M136.51,205.55a1.77,1.77,0,0,1-1.77-1.77l0-6.83a1.77,1.77,0,0,1,1.77-1.77h0a1.78,1.78,0,0,1,1.78,1.76l0,6.83a1.78,1.78,0,0,1-1.77,1.78Z"/><path class="cls-37" d="M131.52,202.68a1.77,1.77,0,0,1-1.78-1.76l0-6.83a1.78,1.78,0,0,1,1.77-1.78h0a1.77,1.77,0,0,1,1.77,1.77l0,6.83a1.77,1.77,0,0,1-1.77,1.77Z"/><path class="cls-37" d="M126.52,199.82a1.78,1.78,0,0,1-1.77-1.76l0-6.83a1.78,1.78,0,0,1,1.77-1.78h0a1.77,1.77,0,0,1,1.77,1.77l0,6.83a1.77,1.77,0,0,1-1.77,1.77Z"/><path class="cls-37" d="M121.53,197a1.78,1.78,0,0,1-1.77-1.77l0-6.83a1.77,1.77,0,0,1,1.77-1.77h0a1.76,1.76,0,0,1,1.77,1.76l0,6.83a1.77,1.77,0,0,1-1.76,1.78Z"/><path class="cls-41" d="M758.26,756.35c-31.33,0-56.74-11.51-56.74-25.74v21.06c0,14.22,25.41,25.73,56.74,25.73S815,765.89,815,751.67V730.61C815,744.84,789.59,756.35,758.26,756.35Z"/><ellipse class="cls-42" cx="758.26" cy="730.61" rx="56.74" ry="25.73"/><path class="cls-41" d="M758.26,735.29c-31.33,0-56.74-11.51-56.74-25.73v21.05c0,14.23,25.41,25.74,56.74,25.74S815,744.84,815,730.61V709.56C815,723.78,789.59,735.29,758.26,735.29Z"/><ellipse class="cls-42" cx="758.26" cy="709.56" rx="56.74" ry="25.73"/><path class="cls-43" d="M802.47,725.67c-16.8,18.53-48.14,25.13-71.92,27.4a114.28,114.28,0,0,0,27.71,3.28c31.33,0,56.74-11.51,56.74-25.74V709.56C815,715.66,810.31,721.25,802.47,725.67Z"/><path class="cls-41" d="M758.26,714.23c-31.33,0-56.74-11.51-56.74-25.73v21.06c0,14.22,25.41,25.73,56.74,25.73S815,723.78,815,709.56V688.5C815,702.72,789.59,714.23,758.26,714.23Z"/><ellipse class="cls-42" cx="758.26" cy="688.5" rx="56.74" ry="25.73"/><path class="cls-43" d="M802.47,704.62c-16.8,18.53-48.14,25.13-71.92,27.39a113.3,113.3,0,0,0,27.71,3.28c31.33,0,56.74-11.51,56.74-25.73V688.5C815,694.61,810.31,700.2,802.47,704.62Z"/><path class="cls-41" d="M758.26,693.18c-31.33,0-56.74-11.51-56.74-25.74V688.5c0,14.22,25.41,25.73,56.74,25.73S815,702.72,815,688.5V667.44C815,681.67,789.59,693.18,758.26,693.18Z"/><ellipse class="cls-42" cx="758.26" cy="667.44" rx="56.74" ry="25.73"/><path class="cls-43" d="M802.47,683.56c-16.8,18.53-48.14,25.13-71.92,27.4a113.78,113.78,0,0,0,27.71,3.27c31.33,0,56.74-11.51,56.74-25.73V667.44C815,673.55,810.31,679.14,802.47,683.56Z"/><path class="cls-44" d="M758.26,711.89c-31.33,0-56.74-11.51-56.74-25.73v4.68c0,14.22,25.41,25.73,56.74,25.73S815,705.06,815,690.84v-4.68C815,700.38,789.59,711.89,758.26,711.89Z"/><path class="cls-44" d="M758.26,733c-31.33,0-56.74-11.51-56.74-25.73v4.67c0,14.23,25.41,25.74,56.74,25.74S815,726.12,815,711.89v-4.67C815,721.44,789.59,733,758.26,733Z"/><path class="cls-44" d="M758.26,754c-31.33,0-56.74-11.51-56.74-25.74V733c0,14.22,25.41,25.74,56.74,25.74S815,747.17,815,733v-4.68C815,742.5,789.59,754,758.26,754Z"/><path class="cls-45" d="M815,690.84v-4.68c0,13.83-24.08,25.13-54.28,25.73v4.68C790.92,716,815,704.67,815,690.84Z"/><path class="cls-45" d="M815,711.89v-4.67c0,13.82-24.08,25.12-54.28,25.73v4.68C790.92,737,815,725.72,815,711.89Z"/><path class="cls-45" d="M815,733v-4.68c0,13.83-24.08,25.13-54.28,25.74v4.68C790.92,758.08,815,746.78,815,733Z"/></svg>