<svg id="Layer_1" data-name="Layer 1" xmlns="http://www.w3.org/2000/svg" viewBox="0 0 1137.72 984.5"><defs><style>.cls-1{fill:#00bcd4;}.cls-13,.cls-15,.cls-19,.cls-2,.cls-7{fill:none;}.cls-19,.cls-2{stroke:#639ad6;}.cls-13,.cls-15,.cls-2,.cls-22,.cls-7{stroke-miterlimit:10;}.cls-13,.cls-15,.cls-19,.cls-2,.cls-21,.cls-22,.cls-7{stroke-width:3px;}.cls-3{fill:#f9c543;}.cls-21,.cls-4{fill:#a57574;}.cls-22,.cls-5{fill:#fff;}.cls-6{fill:#a1cbe2;}.cls-15,.cls-7{stroke:#fff;}.cls-19,.cls-21,.cls-7{stroke-linecap:round;}.cls-8{fill:#242854;}.cls-9{fill:#4e577d;}.cls-10{fill:#383c4d;}.cls-11{fill:#6874a7;}.cls-12{fill:#41465a;}.cls-13{stroke:#e59e38;}.cls-14{fill:#4e2556;}.cls-16{fill:#fff4de;}.cls-17{fill:#d4d1f4;}.cls-18{fill:#ebf4f7;}.cls-19,.cls-21{stroke-linejoin:round;}.cls-20{fill:#d6eaf2;}.cls-21{stroke:#4e2556;}.cls-22{stroke:#f1b104;}.cls-23{fill:#f1b104;}</style></defs><g id="CHAIR"><path class="cls-1" d="M695.69,804.73v4.2a11.22,11.22,0,0,1-11.22,11.22H379.23A70.51,70.51,0,0,1,310.41,765L255.79,521a39.68,39.68,0,0,1,38.71-48.33H400.33a53,53,0,0,1,51.75,41.45l49.92,223a72.07,72.07,0,0,0,70.34,56.33H684.46A11.23,11.23,0,0,1,695.69,804.73Z" transform="translate(-62.05 -110.05)"/><path class="cls-2" d="M367.39,821.44H499.17a50.11,50.11,0,0,1,50.05,50.16v171.29a50.1,50.1,0,0,1-50,50.16H342.73" transform="translate(-62.05 -110.05)"/><path class="cls-2" d="M434.18,821.44H609.81a50.11,50.11,0,0,1,50,50.16v171.29a50.08,50.08,0,0,1-50,50.16H484.29" transform="translate(-62.05 -110.05)"/><line class="cls-2" x1="487.17" y1="887.16" x2="597.8" y2="887.16"/></g><g id="MAN"><g id="RIGHT_HAND" data-name="RIGHT HAND"><path id="HAND" class="cls-3" d="M576.24,390.83s51.09,3.41,76,50.17,56,110.56,56,110.56S796,549.1,860.93,589.63v29.14H674.28c-23.19,0-98-88.54-102.37-145.9S576.24,390.83,576.24,390.83Z" transform="translate(-62.05 -110.05)"/><path id="ARM" class="cls-4" d="M846.35,618.52c-3.75-.78-1-12.81,1.19-20.23,1.22-4.09,4.15-6.17,8-7.94,7.74-3.52,21.12-7.5,28.68-5.8,11.08,2.5,18.2,9.5,25.13,17.8,2,2.38,11.73,13.79,11.73,16.84Z" transform="translate(-62.05 -110.05)"/></g><path id="TORSO" class="cls-3" d="M480,371.63c-32.45.11-99.71,67.8-87.87,239.89,8.73,126.71,48.21,180,56.94,176.27s114.1-96.07,128.44-145.95,90.52-221.11-9.82-254C497.67,364.9,490.38,371.6,480,371.63Z" transform="translate(-62.05 -110.05)"/><g id="LEGS"><g id="RIGHT_LEG" data-name="RIGHT LEG"><g id="SHOES"><path class="cls-5" d="M807.8,1093.87H693.49c-.12-1.75-.16-3.41-.13-5H807.93A23.88,23.88,0,0,1,807.8,1093.87Z" transform="translate(-62.05 -110.05)"/><path class="cls-6" d="M705.13,1042.72c.41,12.47-11.64,20.37-11.64,46.14H807.8s1.66-21.62-21.2-26.6-43.65-11.64-45.73-19.54Z" transform="translate(-62.05 -110.05)"/><line class="cls-7" x1="679.63" y1="955.97" x2="690.06" y2="940.52"/><line class="cls-7" x1="687.77" y1="957.84" x2="697.58" y2="943.65"/><line class="cls-7" x1="698.42" y1="958.47" x2="706.35" y2="945.53"/></g><g id="PANT"><path class="cls-8" d="M582.2,651.09s174.47-10.91,216.87,39-39.91,227.78-48.22,335.85c0,0-41.75,4.16-58.7,0S660.44,837,703.15,786.3c0,0-162.38,37.35-225.68-9.76S555.86,652,582.2,651.09Z" transform="translate(-62.05 -110.05)"/><path class="cls-9" d="M692.55,1046.7c6,1.77,23.89,6.57,59.28.94,1.83-.29,3.18-3.12,3.18-5v-13.73a3.75,3.75,0,0,0-3.75-3.75,3.27,3.27,0,0,0-.54,0c-30.62,4.44-50.73,2-59.14.12a3.78,3.78,0,0,0-4.49,2.88,3.84,3.84,0,0,0-.06,1.22l2.86,14.07A3.77,3.77,0,0,0,692.55,1046.7Z" transform="translate(-62.05 -110.05)"/></g></g><g id="LEFT_LEG" data-name="LEFT LEG"><g id="SHOE"><path class="cls-5" d="M1066.12,920.81,975.44,990.4c-1.28-1.56-2.44-3.1-3.48-4.59l90.32-69.33A25.5,25.5,0,0,1,1066.12,920.81Z" transform="translate(-62.05 -110.05)"/><path class="cls-6" d="M952.83,942.33C960.75,952,956,965.58,971.68,986l90.68-69.6s-11.84-18.15-33-8.19-41.71,17.34-48.17,12.34Z" transform="translate(-62.05 -110.05)"/><line class="cls-7" x1="934.19" y1="827.41" x2="933.07" y2="809.4"/><line class="cls-7" x1="941.08" y1="823.02" x2="939.96" y2="806.9"/><line class="cls-7" x1="947.97" y1="818.64" x2="946.85" y2="804.39"/></g><g id="PANT-2"><path class="cls-8" d="M448.45,781.53c2.61,14.07,151.1,48.19,309.05-51.57,0,0,13.92,115.35,173.53,202.64,0,0,35.15-15,44.7-35.14,0,0-102-121.78-142.1-233.6C816.8,616.91,605,641.49,574,651.09S436.81,718.79,448.45,781.53Z" transform="translate(-62.05 -110.05)"/><path class="cls-10" d="M461,789.41c-7.7-2.72-12.07-5.58-12.5-7.89-10.45-56.3,74.07-108.88,113.88-126C523,678.44,455.8,737.42,461,789.41Z" transform="translate(-62.05 -110.05)"/><path class="cls-11" d="M942.6,949.66c5.85-2.26,22.19-10.33,46.84-36.34a3.76,3.76,0,0,0,.25-4.88l-8.36-10.89a3.76,3.76,0,0,0-5.26-.7,4.48,4.48,0,0,0-.4.36c-21.59,22.17-38.06,31.68-45.85,35.35a3.76,3.76,0,0,0-1.79,5,3.71,3.71,0,0,0,.68,1l9.85,10.19A3.73,3.73,0,0,0,942.6,949.66Z" transform="translate(-62.05 -110.05)"/></g></g></g><g id="LEFT_HAND" data-name="LEFT HAND"><path id="HAND-2" class="cls-3" d="M488.71,408.87c33.74,11.2,75.09,129.47,75.09,129.47s59.28,11.23,139.72,44.9c0,0,4.31,21.19-6.29,35.53,0,0-159.62,1.25-175.2,0s-88.84-61.53-106.92-128.21S447.5,395.18,488.71,408.87Z" transform="translate(-62.05 -110.05)"/><path id="PEN" class="cls-12" d="M716.56,530.73l33.87,83.87h5.82l-34.82-85.84a2.64,2.64,0,0,0-3.26-1.51h0a2.64,2.64,0,0,0-1.66,3.34S716.54,530.69,716.56,530.73Z" transform="translate(-62.05 -110.05)"/><g id="ARM-2"><path class="cls-4" d="M703.15,589.54s23.59-12.47,34.68-10S762.21,592,763.6,594.8s11.08,16.35,11.08,19.4-31.35,1.94-35.76,1.94-33.4.46-39-.7S703.15,589.54,703.15,589.54Z" transform="translate(-62.05 -110.05)"/><path class="cls-4" d="M738.92,616.14c4.41,0,35.76,1.11,35.76-1.94s-9.7-16.63-11.08-19.4-14.69-12.75-25.77-15.24c0,0,13.68,19,1.09,36.58" transform="translate(-62.05 -110.05)"/></g><path id="HAND-3" class="cls-13" d="M697.23,618.77s-159.62,1.25-175.2,0-88.84-61.53-106.92-128.21" transform="translate(-62.05 -110.05)"/><path id="HAND-4" class="cls-13" d="M488.71,408.87c33.74,11.2,75.09,129.47,75.09,129.47s39.79,7.54,98.41,28.78" transform="translate(-62.05 -110.05)"/></g><path id="TABLET" class="cls-6" d="M893.68,619v-5a10,10,0,0,0-10-10c-.23,0-.47,0-.7,0L700.49,615.38a3.67,3.67,0,0,0-3.4,3.66Z" transform="translate(-62.05 -110.05)"/><g id="HEAD"><path id="NECK" class="cls-4" d="M499.39,295.44s-4,50.47-34.26,82.44c0,0,33.89,26.87,70.7,6.82l4-89.07Z" transform="translate(-62.05 -110.05)"/><path id="FACE" class="cls-4" d="M587.88,284.46s-9,22-5.76,62.59-61.23,19.43-62.32-8.63,3.28-53.62,10.57-54S587.88,284.46,587.88,284.46Z" transform="translate(-62.05 -110.05)"/><g id="HAIR"><path class="cls-8" d="M489.64,328.39s9.73-23.08,2.89-48.8c-5-18.8,15.24-29.73,32.37-19.7,0,0,64.51-35.54,79.06,3.29,17.54,46.8-67.4,23.12-68.86,24.95s-6.31,38.25,2.8,50.64,19.19-.07,32.3-.92c13.58-.89,11.92,8.1,11.92,8.1s4.06,21.83,5.52,30.21-50.49,22.53-64.2,1.25c-12.44-19.3-4.5-58.33-9.59-61.58-10.56-6.73-19.12,5.17-13.26,9.91C500.59,325.74,494.16,329.63,489.64,328.39Z" transform="translate(-62.05 -110.05)"/><path class="cls-8" d="M599.87,292.21c-20,10.76-61.6-2.74-65.32-5.18" transform="translate(-62.05 -110.05)"/><path class="cls-14" d="M506.79,251.82c7-.55,14.6,2.2,18.11,8.7" transform="translate(-62.05 -110.05)"/><ellipse class="cls-8" cx="494.74" cy="205.82" rx="3.04" ry="3.81"/><ellipse class="cls-8" cx="516.36" cy="205.82" rx="2.31" ry="3.81"/></g><g id="GLASSES"><ellipse class="cls-15" cx="493.49" cy="205.28" rx="11.81" ry="12.73"/><ellipse class="cls-15" cx="520.97" cy="205.28" rx="9.97" ry="12.73"/><line class="cls-15" x1="505.3" y1="204.73" x2="510.99" y2="204.73"/><path class="cls-15" d="M543.11,314.15l-33.73-.47a15.62,15.62,0,0,0-11.42,5" transform="translate(-62.05 -110.05)"/></g></g></g><g id="TABLE"><polygon class="cls-16" points="1093.56 509.63 1093.56 983.84 1061.66 983.84 1061.66 540.95 31.9 540.95 31.9 983.84 0 983.84 0 509.63 1093.56 509.63"/></g><g id="COMPUTER"><path class="cls-5" d="M1119.28,546.5H782.64a16.12,16.12,0,0,1-16.12-16.14,16.31,16.31,0,0,1,.56-4.22l55.85-205.7c3-10.87,12.81-19.68,24.07-19.68h336.64c10.63,0,18.35,11.37,15.56,21.63l-55.85,205.7A24.94,24.94,0,0,1,1119.28,546.5Z" transform="translate(-62.05 -110.05)"/><path class="cls-17" d="M1119.29,546.5h-327a15.69,15.69,0,0,1-15.12-19.81L831.38,326.5a24.25,24.25,0,0,1,23.39-17.91h327a15.69,15.69,0,0,1,15.13,19.81l-54.26,200.19A24.26,24.26,0,0,1,1119.29,546.5Z" transform="translate(-62.05 -110.05)"/><path class="cls-18" d="M1119.29,546.5h-327a15.69,15.69,0,0,1-15.12-19.81L831.38,326.5a24.25,24.25,0,0,1,23.39-17.91h327a15.69,15.69,0,0,1,15.13,19.81l-54.26,200.19A24.26,24.26,0,0,1,1119.29,546.5Z" transform="translate(-62.05 -110.05)"/><path class="cls-19" d="M817.07,379.31l14.31-52.81a24.25,24.25,0,0,1,23.39-17.91h195.94" transform="translate(-62.05 -110.05)"/><path class="cls-19" d="M1142.68,528.59a24.25,24.25,0,0,1-23.39,17.91h-327a15.69,15.69,0,0,1-15.12-19.81l28.6-105.53" transform="translate(-62.05 -110.05)"/><path class="cls-20" d="M1045.5,601.5,1013,488.64H936.91l30.28,105.09c2.47,8.56-4.71,16.91-14.53,16.91h-21a2.42,2.42,0,0,0-2.54,2.28v4.39a2.42,2.42,0,0,0,2.54,2.28h98.72C1040.61,619.59,1048.06,610.38,1045.5,601.5Z" transform="translate(-62.05 -110.05)"/><path class="cls-5" d="M958.74,615.64H929.16v-2.72a2.42,2.42,0,0,1,2.54-2.28h20.95c9.83,0,17-8.35,14.54-16.91L936.91,488.64h5.44l30.9,108.14a15,15,0,0,1-14.51,18.86Z" transform="translate(-62.05 -110.05)"/><polygon class="cls-6" points="874.86 378.59 874.86 436.56 891.56 436.56 874.86 378.59"/><polygon class="cls-6" points="777.06 416.09 760.35 416.09 759.07 420.73 775.78 420.73 777.06 416.09"/><polygon class="cls-6" points="811.6 416.09 796.17 416.09 794.9 420.73 810.32 420.73 811.6 416.09"/><path class="cls-2" d="M1031.06,618c10.19,0,17.64-7.57,15.08-16.45l-32.53-112.86" transform="translate(-62.05 -110.05)"/><path class="cls-2" d="M865.3,528.46h8.16a5.11,5.11,0,0,1,5.11,5.11V687.44a13.87,13.87,0,0,0,13.87,13.87h0a13.87,13.87,0,0,0,13.86-13.87V618.67a5.1,5.1,0,0,0-5.1-5.1h-7.52" transform="translate(-62.05 -110.05)"/></g><g id="SMALL"><rect class="cls-3" x="108.19" y="449.44" width="59.28" height="59.28" rx="8.99"/><path class="cls-6" d="M196.85,559.49s-7.36-54.88,46.41-70.44c0,0-23.21,22.87-30.28,70.44Z" transform="translate(-62.05 -110.05)"/><path class="cls-6" d="M206.28,559.49s-6.4-48.09-49.34-51.31c0,0,27,11.31,27.31,51.31Z" transform="translate(-62.05 -110.05)"/><path class="cls-20" d="M191.75,559.49s-5.55-39.11,13-57.71c0,0-4.62,33.63,1.51,57.71Z" transform="translate(-62.05 -110.05)"/><path class="cls-20" d="M199.88,559.49s18.19-10.16,17-28.85c0,0,10.24,16.64,2.1,28.85Z" transform="translate(-62.05 -110.05)"/><path class="cls-20" d="M180.78,559.49s-5.16-14.69-17.89-19.22c0,0,23.2-.61,28.86,19.22Z" transform="translate(-62.05 -110.05)"/></g><polyline class="cls-21" points="510.15 207.01 518.36 223.01 511.4 227.53"/><g id="SHELF"><path id="SHADOW" class="cls-16" d="M87.66,278.83H421v30.52L87.6,281.18C86.71,281.09,86.77,278.83,87.66,278.83Z" transform="translate(-62.05 -110.05)"/><g id="BOOKS"><rect class="cls-22" x="303.83" y="17.83" width="24.32" height="125.15" rx="5.15"/><rect class="cls-23" x="275.53" y="28.42" width="26.8" height="117.04" rx="5.03"/><rect class="cls-1" x="261.63" width="13.9" height="145.46" rx="4.69"/><rect class="cls-22" x="238.31" y="36.89" width="22.32" height="107.08" rx="5.14"/><path class="cls-23" d="M258.85,255.51H239.37L288.1,124.94a2.67,2.67,0,0,1,2.48-1.74H304.4a2.7,2.7,0,0,1,2.65,2.75,2.52,2.52,0,0,1-.17.9Z" transform="translate(-62.05 -110.05)"/></g><rect id="SHELF-2" class="cls-22" x="26.34" y="145.46" width="331.65" height="21.88"/><g id="PLANT"><path class="cls-23" d="M121.91,207h83.71v9.19a39.33,39.33,0,0,1-39.33,39.33h-5.06a39.33,39.33,0,0,1-39.33-39.33h0V207h0Z" transform="translate(-62.05 -110.05)"/><path class="cls-6" d="M197.22,207h-62s-18.13,14.79-28.49,2.66c-7.5-8.78,28.39-9.18,28.39-9.18l1.08-.37s-15.4-32.32-.85-37.71c10.05-3.74,12.48,23.65,13,32.54,5.29-2.21,15.62-5.4,16.5,3,0,0,1.15-34.59,15.64-31.29,12,2.75-5.82,35.26-5.82,35.26l1.26.76s33.1-24.18,41.22-18.56C223.29,188.36,197.22,207,197.22,207Z" transform="translate(-62.05 -110.05)"/><path class="cls-20" d="M144.71,207s.64-29.82,11.87-29-4.42,29-4.42,29Z" transform="translate(-62.05 -110.05)"/><path class="cls-20" d="M144.71,207s-11.26-28.14-26.52-20.93c-14.91,7,17.16,20.93,17.16,20.93Z" transform="translate(-62.05 -110.05)"/><path class="cls-20" d="M167.86,207S178,181.65,194,184.06,174.2,207,174.2,207Z" transform="translate(-62.05 -110.05)"/><path class="cls-20" d="M184.34,207s31.36-15.79,37-6.27S184.34,207,184.34,207Z" transform="translate(-62.05 -110.05)"/></g></g></svg>