<svg id="Capa_1" enable-background="new 0 0 512.632 512.632" height="512" viewBox="0 0 512.632 512.632" width="512" xmlns="http://www.w3.org/2000/svg"><g><path d="m432.49 257.507c0-45.748-17.451-89.111-49.137-122.102-2.869-2.987-7.617-3.082-10.604-.214-2.987 2.869-3.083 7.617-.214 10.604 28.99 30.183 44.956 69.856 44.956 111.711 0 88.938-72.357 161.295-161.295 161.295s-161.297-72.356-161.297-161.294 72.357-161.296 161.295-161.296c33.602 0 65.806 10.232 93.13 29.59 3.378 2.395 8.061 1.596 10.455-1.784 2.395-3.38 1.596-8.061-1.784-10.455-29.873-21.164-65.075-32.351-101.801-32.351-97.209 0-176.295 79.086-176.295 176.295s79.086 176.295 176.295 176.295 176.296-79.085 176.296-176.294z"/><path d="m177.416 349.725c-4.958-4.24-9.608-8.904-13.89-13.97-2.675-3.163-7.406-3.561-10.57-.886-3.163 2.674-3.56 7.406-.886 10.57 25.979 30.734 63.931 48.36 104.125 48.36 75.152 0 136.292-61.141 136.292-136.292s-61.141-136.292-136.292-136.292-136.292 61.141-136.292 136.292c0 20.624 4.494 40.444 13.358 58.91 1.792 3.734 6.274 5.309 10.007 3.516 3.734-1.792 5.308-6.272 3.516-10.007-7.883-16.424-11.881-34.06-11.881-52.419 0-66.881 54.412-121.292 121.292-121.292s121.292 54.412 121.292 121.292c0 36.853-16.526 69.916-42.551 92.179-12.39-13.188-28.298-22.721-45.77-27.427v-13.678c4.991-3 9.62-6.693 13.751-11.065 2.845-3.01 2.711-7.757-.3-10.603-3.01-2.844-7.757-2.71-10.603.3-9.417 9.965-22.139 15.454-35.82 15.454-27.179 0-49.292-22.112-49.292-49.292v-21.286h98.583v21.286c0 2.921-.274 5.908-.813 8.877-.741 4.075 1.962 7.98 6.037 8.721 4.073.74 7.98-1.962 8.721-6.037.701-3.852 1.056-7.742 1.056-11.561v-28.786c0-.008-.001-.015-.001-.023 0-.009.001-.018.001-.027l-.369-55.771c-.027-4.081-2.326-7.717-6.001-9.492-3.674-1.774-7.952-1.313-11.164 1.202l-7.287 5.708h-55.737c-26.481 0-48.024 21.543-48.024 48.024v10.378 28.786c0 23.405 12.576 43.922 31.32 55.167v13.717c-17.492 4.712-33.414 14.259-45.808 27.467zm62.511-168.538h58.325c1.676 0 3.305-.562 4.625-1.595l2.299-1.801.26 39.299h-98.533v-2.878c0-18.211 14.815-33.025 33.024-33.025zm82.961 177.577c-19.148 12.655-42.074 20.035-66.694 20.035-24.014 0-47.124-7.081-66.721-20.007 9.701-9.934 21.816-17.286 35.093-21.326 4.024 13.668 16.676 23.677 31.628 23.677s27.605-10.009 31.628-23.677c13.264 4.037 25.369 11.378 35.066 21.298zm-66.694-41.097c6.186 0 12.214-.879 17.971-2.543v13.049c0 9.909-8.062 17.971-17.971 17.971s-17.971-8.062-17.971-17.971v-13.081c5.707 1.664 11.733 2.575 17.971 2.575z"/><path d="m339.174 84.848c4.087.667 7.943-2.106 8.61-6.194 2.844-17.422 11.831-33.385 25.306-44.948.636-.546 1.289-1.068 1.941-1.591-2.461 5.964-3.821 12.493-3.821 19.335 0 12.848 4.798 24.59 12.683 33.552-4.299 2.736-8.309 5.927-11.979 9.569-2.94 2.917-2.958 7.666-.04 10.606 1.466 1.477 3.395 2.217 5.323 2.217 1.91 0 3.82-.725 5.283-2.177 4.078-4.047 8.682-7.393 13.709-10.006 7.589 4.506 16.439 7.105 25.887 7.105 9.453 0 18.307-2.601 25.899-7.112 17.317 9.006 28.827 26.512 30.178 46.021-11.031 12.289-26.129 20.966-43.52 23.885-4.085.686-6.84 4.553-6.155 8.638.615 3.665 3.791 6.259 7.388 6.259.412 0 .83-.034 1.25-.104 20.813-3.494 39.864-14.297 53.641-30.419 13.938-16.31 21.613-37.123 21.613-58.605 0-49.789-40.506-90.295-90.295-90.295-21.553 0-42.42 7.72-58.755 21.739-16.154 13.862-26.929 33.01-30.341 53.916-.667 4.087 2.106 7.942 6.195 8.609zm47.035-33.398c0-19.777 16.09-35.867 35.867-35.867s35.867 16.09 35.867 35.867-16.09 35.867-35.867 35.867-35.867-16.09-35.867-35.867zm111.162 39.429c0 11.69-2.654 22.805-7.425 32.736-5.039-15.84-15.525-29.593-29.685-38.614 7.885-8.963 12.682-20.704 12.682-33.551 0-6.824-1.354-13.336-3.803-19.285 17.196 13.811 28.231 34.993 28.231 58.714z"/><path d="m75.544 179.326c.42.07.836.104 1.248.104 3.597 0 6.774-2.596 7.388-6.262.684-4.085-2.073-7.952-6.158-8.636-17.38-2.911-32.472-11.571-43.504-23.841 1.523-19.293 12.98-36.562 30.138-45.486 7.592 4.511 16.446 7.112 25.899 7.112 9.448 0 18.298-2.598 25.887-7.105 4.988 2.592 9.56 5.907 13.615 9.913 1.461 1.444 3.366 2.164 5.27 2.164 1.935 0 3.869-.744 5.336-2.229 2.911-2.947 2.881-7.696-.065-10.606-3.638-3.593-7.611-6.74-11.863-9.448 7.887-8.963 12.686-20.706 12.686-33.556 0-7.186-1.499-14.027-4.2-20.229.834.659 1.662 1.328 2.47 2.025 13.505 11.647 22.464 27.706 25.227 45.218.646 4.092 4.493 6.888 8.577 6.24 4.092-.645 6.885-4.485 6.24-8.577-3.314-21.015-14.056-40.277-30.247-54.24-16.365-14.114-37.294-21.887-58.932-21.887-49.789 0-90.296 40.506-90.296 90.295 0 21.487 7.679 42.305 21.623 58.616 13.784 16.126 32.841 26.927 53.661 30.415zm-20.855-127.876c0-19.777 16.09-35.867 35.867-35.867s35.867 16.09 35.867 35.867-16.09 35.867-35.867 35.867-35.867-16.09-35.867-35.867zm-10.815-20.176c-2.686 6.19-4.185 13.01-4.185 20.177 0 12.85 4.8 24.595 12.688 33.558-14.057 8.954-24.492 22.569-29.574 38.261-4.844-9.991-7.543-21.189-7.543-32.974 0-23.897 11.199-45.22 28.614-59.022z"/><path d="m437.474 334.509c-4.079-.725-7.972 1.994-8.697 6.072-.674 3.794 1.633 7.425 5.241 8.497.062.024.12.054.183.076 14.2 5.103 23.741 18.667 23.741 33.754 0 19.777-16.09 35.867-35.867 35.867-11.751 0-22.776-5.78-29.49-15.462-2.359-3.403-7.032-4.25-10.437-1.889-3.404 2.36-4.25 7.033-1.889 10.437 1.121 1.616 2.333 3.149 3.615 4.607-14.135 9.011-24.608 22.738-29.651 38.549-2.836-5.9-4.936-12.251-6.17-18.947-.751-4.073-4.656-6.766-8.735-6.017-4.073.751-6.767 4.662-6.017 8.735 7.886 42.788 45.22 73.843 88.774 73.843 49.789 0 90.295-40.506 90.295-90.295.001-43.178-31.498-80.114-74.896-87.827zm-15.398 163.123c-22.052 0-42.18-9.557-56.071-25.042 1.382-19.47 12.882-36.934 30.17-45.926 7.739 4.584 16.658 7.111 25.9 7.111 9.453 0 18.307-2.601 25.899-7.112 17.27 8.982 28.765 26.419 30.167 45.865-13.795 15.395-33.815 25.104-56.065 25.104zm67.842-42.648c-5.05-15.801-15.526-29.518-29.66-38.521 7.886-8.963 12.685-20.706 12.685-33.555 0-6.208-1.146-12.232-3.255-17.836 17.048 13.729 27.684 34.447 27.684 57.265-.001 11.69-2.679 22.766-7.454 32.647z"/><path d="m173.303 430.16c-4.076-.757-7.986 1.933-8.743 6.005-1.236 6.659-3.33 12.976-6.153 18.847-5.047-15.809-15.524-29.532-29.662-38.541 1.244-1.414 2.424-2.894 3.516-4.456 2.373-3.395 1.545-8.071-1.85-10.444-3.395-2.374-8.071-1.546-10.444 1.85-6.72 9.614-17.716 15.353-29.412 15.353-19.777 0-35.867-16.09-35.867-35.867 0-15.036 9.497-28.585 23.631-33.716.061-.022.118-.052.178-.075 3.56-1.111 5.821-4.72 5.141-8.484-.736-4.077-4.642-6.782-8.713-6.048-43.263 7.812-74.665 44.718-74.665 87.752 0 49.789 40.506 90.295 90.295 90.295 43.497 0 80.823-31.007 88.753-73.729.757-4.071-1.932-7.986-6.005-8.742zm-130.379-65.023c-2.096 5.588-3.234 11.59-3.234 17.771 0 12.846 4.797 24.587 12.68 33.549-14.134 9.005-24.605 22.727-29.653 38.532-4.776-9.883-7.456-20.96-7.456-32.652-.001-22.768 10.63-43.469 27.663-57.2zm47.632 132.495c-22.251 0-42.27-9.709-56.066-25.104 1.402-19.446 12.896-36.883 30.167-45.865 7.592 4.511 16.446 7.112 25.899 7.112 9.235 0 18.157-2.527 25.899-7.112 17.287 8.99 28.787 26.452 30.172 45.921-13.895 15.487-34.026 25.048-56.071 25.048z"/></g></svg>